<svg width="1980" height="702" xmlns="http://www.w3.org/2000/svg" xmlns:xlink="http://www.w3.org/1999/xlink" overflow="hidden"><defs><clipPath id="clip0"><rect x="1052" y="258" width="1980" height="702"/></clipPath></defs><g clip-path="url(#clip0)" transform="translate(-1052 -258)"><rect x="1184.5" y="437.5" width="130" height="130" stroke="#000000" stroke-width="4.58333" stroke-miterlimit="8" fill="#0070C0"/><text fill="#0070C0" font-family="LM Roman 10,LM Roman 10_MSFontService,sans-serif" font-weight="700" font-size="55" transform="matrix(1 0 0 1 1234.28 522)">0</text><rect x="1314.5" y="437.5" width="130" height="130" stroke="#000000" stroke-width="4.58333" stroke-miterlimit="8" fill="#0070C0"/><text fill="#0070C0" font-family="LM Roman 10,LM Roman 10_MSFontService,sans-serif" font-weight="700" font-size="55" transform="translate(1364.2 522)">0</text><rect x="1184.5" y="567.5" width="130" height="130" stroke="#000000" stroke-width="4.58333" stroke-miterlimit="8" fill="#0070C0"/><text fill="#0070C0" font-family="LM Roman 10,LM Roman 10_MSFontService,sans-serif" font-weight="700" font-size="55" transform="translate(1234.28 652)">0</text><rect x="1314.5" y="567.5" width="130" height="130" stroke="#000000" stroke-width="4.58333" stroke-miterlimit="8" fill="#0070C0"/><text fill="#0070C0" font-family="LM Roman 10,LM Roman 10_MSFontService,sans-serif" font-weight="700" font-size="55" transform="matrix(1 0 0 1 1364.2 652)">0</text><rect x="1444.5" y="437.5" width="130" height="130" stroke="#000000" stroke-width="4.58333" stroke-miterlimit="8" fill="#0070C0"/><text fill="#0070C0" font-family="LM Roman 10,LM Roman 10_MSFontService,sans-serif" font-weight="700" font-size="55" transform="translate(1494.12 522)">0</text><rect x="1444.5" y="567.5" width="130" height="130" stroke="#000000" stroke-width="4.58333" stroke-miterlimit="8" fill="#0070C0"/><text fill="#0070C0" font-family="LM Roman 10,LM Roman 10_MSFontService,sans-serif" font-weight="700" font-size="55" transform="matrix(1 0 0 1 1494.12 652)">0</text><rect x="1444.5" y="697.5" width="130" height="130" stroke="#000000" stroke-width="4.58333" stroke-miterlimit="8" fill="#0070C0"/><text fill="#0070C0" font-family="LM Roman 10,LM Roman 10_MSFontService,sans-serif" font-weight="700" font-size="55" transform="translate(1494.12 782)">0</text><rect x="1184.5" y="697.5" width="130" height="130" stroke="#000000" stroke-width="4.58333" stroke-miterlimit="8" fill="#0070C0"/><text fill="#0070C0" font-family="LM Roman 10,LM Roman 10_MSFontService,sans-serif" font-weight="700" font-size="55" transform="matrix(1 0 0 1 1234.28 782)">0</text><rect x="1314.5" y="697.5" width="130" height="130" stroke="#000000" stroke-width="4.58333" stroke-miterlimit="8" fill="#0070C0"/><text fill="#0070C0" font-family="LM Roman 10,LM Roman 10_MSFontService,sans-serif" font-weight="700" font-size="55" transform="matrix(1 0 0 1 1364.2 782)">0</text><rect x="1184.5" y="827.5" width="130" height="130" stroke="#000000" stroke-width="4.58333" stroke-miterlimit="8" fill="#0070C0"/><text fill="#0070C0" font-family="LM Roman 10,LM Roman 10_MSFontService,sans-serif" font-weight="700" font-size="55" transform="translate(1219.67 912)">10</text><rect x="1314.5" y="827.5" width="130" height="130" stroke="#000000" stroke-width="4.58333" stroke-miterlimit="8" fill="#0070C0"/><text fill="#0070C0" font-family="LM Roman 10,LM Roman 10_MSFontService,sans-serif" font-weight="700" font-size="55" transform="translate(1349.59 912)">10</text><rect x="1441.5" y="565.5" width="130" height="130" stroke="#000000" stroke-width="4.58333" stroke-miterlimit="8" fill="#FFFF00"/><rect x="2053.5" y="564.5" width="130" height="130" stroke="#000000" stroke-width="4.58333" stroke-miterlimit="8" fill="#FFFF00"/><rect x="1119.5" y="502.5" width="130" height="130" stroke="#000000" stroke-width="4.58333" stroke-miterlimit="8" fill="#00B050"/><text fill="#00B050" font-family="LM Roman 10,LM Roman 10_MSFontService,sans-serif" font-weight="700" font-size="55" transform="matrix(1 0 0 1 1169.32 587)">0</text><rect x="1249.5" y="502.5" width="130" height="130" stroke="#000000" stroke-width="4.58333" stroke-miterlimit="8" fill="#00B050"/><text fill="#00B050" font-family="LM Roman 10,LM Roman 10_MSFontService,sans-serif" font-weight="700" font-size="55" transform="translate(1299.24 587)">0</text><rect x="1119.5" y="632.5" width="130" height="130" stroke="#000000" stroke-width="4.58333" stroke-miterlimit="8" fill="#00B050"/><text fill="#00B050" font-family="LM Roman 10,LM Roman 10_MSFontService,sans-serif" font-weight="700" font-size="55" transform="matrix(1 0 0 1 1169.32 717)">0</text><rect x="1249.5" y="632.5" width="130" height="130" stroke="#000000" stroke-width="4.58333" stroke-miterlimit="8" fill="#00B050"/><text fill="#00B050" font-family="LM Roman 10,LM Roman 10_MSFontService,sans-serif" font-weight="700" font-size="55" transform="translate(1299.24 717)">0</text><rect x="1379.5" y="502.5" width="130" height="130" stroke="#000000" stroke-width="4.58333" stroke-miterlimit="8" fill="#00B050"/><text fill="#00B050" font-family="LM Roman 10,LM Roman 10_MSFontService,sans-serif" font-weight="700" font-size="55" transform="matrix(1 0 0 1 1429.16 587)">0</text><rect x="1379.5" y="632.5" width="130" height="130" stroke="#000000" stroke-width="4.58333" stroke-miterlimit="8" fill="#00B050"/><text fill="#00B050" font-family="LM Roman 10,LM Roman 10_MSFontService,sans-serif" font-weight="700" font-size="55" transform="matrix(1 0 0 1 1429.16 717)">0</text><rect x="1379.5" y="762.5" width="130" height="130" stroke="#000000" stroke-width="4.58333" stroke-miterlimit="8" fill="#00B050"/><text fill="#00B050" font-family="LM Roman 10,LM Roman 10_MSFontService,sans-serif" font-weight="700" font-size="55" transform="translate(1429.16 847)">0</text><rect x="1119.5" y="762.5" width="130" height="130" stroke="#000000" stroke-width="4.58333" stroke-miterlimit="8" fill="#00B050"/><text fill="#00B050" font-family="LM Roman 10,LM Roman 10_MSFontService,sans-serif" font-weight="700" font-size="55" transform="translate(1169.32 847)">0</text><rect x="1249.5" y="762.5" width="130" height="130" stroke="#000000" stroke-width="4.58333" stroke-miterlimit="8" fill="#00B050"/><text fill="#00B050" font-family="LM Roman 10,LM Roman 10_MSFontService,sans-serif" font-weight="700" font-size="55" transform="matrix(1 0 0 1 1299.24 847)">0</text><rect x="1379.5" y="633.5" width="130" height="130" stroke="#000000" stroke-width="4.58333" stroke-miterlimit="8" fill="#FFFF00"/><rect x="1054.5" y="567.5" width="130" height="130" stroke="#000000" stroke-width="4.58333" stroke-miterlimit="8" fill="#FF0000"/><text fill="#FF0000" font-family="LM Roman 10,LM Roman 10_MSFontService,sans-serif" font-weight="700" font-size="55" transform="translate(1104.36 652)">0</text><rect x="1184.5" y="567.5" width="130" height="130" stroke="#000000" stroke-width="4.58333" stroke-miterlimit="8" fill="#FF0000"/><text fill="#FF0000" font-family="LM Roman 10,LM Roman 10_MSFontService,sans-serif" font-weight="700" font-size="55" transform="matrix(1 0 0 1 1234.28 652)">0</text><rect x="1054.5" y="697.5" width="130" height="130" stroke="#000000" stroke-width="4.58333" stroke-miterlimit="8" fill="#FF0000"/><text fill="#FF0000" font-family="LM Roman 10,LM Roman 10_MSFontService,sans-serif" font-weight="700" font-size="55" transform="translate(1104.36 782)">0</text><rect x="1184.5" y="697.5" width="130" height="130" stroke="#000000" stroke-width="4.58333" stroke-miterlimit="8" fill="#FF0000"/><text fill="#FF0000" font-family="LM Roman 10,LM Roman 10_MSFontService,sans-serif" font-weight="700" font-size="55" transform="matrix(1 0 0 1 1234.28 782)">0</text><rect x="1314.5" y="567.5" width="130" height="130" stroke="#000000" stroke-width="4.58333" stroke-miterlimit="8" fill="#FF0000"/><text fill="#FF0000" font-family="LM Roman 10,LM Roman 10_MSFontService,sans-serif" font-weight="700" font-size="55" transform="matrix(1 0 0 1 1364.2 652)">0</text><rect x="1314.5" y="697.5" width="130" height="130" stroke="#000000" stroke-width="4.58333" stroke-miterlimit="8" fill="#FF0000"/><text fill="#FF0000" font-family="LM Roman 10,LM Roman 10_MSFontService,sans-serif" font-weight="700" font-size="55" transform="translate(1364.2 782)">0</text><rect x="1314.5" y="827.5" width="130" height="130" stroke="#000000" stroke-width="4.58333" stroke-miterlimit="8" fill="#FF0000"/><text fill="#FF0000" font-family="LM Roman 10,LM Roman 10_MSFontService,sans-serif" font-weight="700" font-size="55" transform="translate(1364.2 912)">0</text><rect x="1054.5" y="827.5" width="130" height="130" stroke="#000000" stroke-width="4.58333" stroke-miterlimit="8" fill="#FF0000"/><text fill="#FF0000" font-family="LM Roman 10,LM Roman 10_MSFontService,sans-serif" font-weight="700" font-size="55" transform="matrix(1 0 0 1 1104.36 912)">0</text><rect x="1184.5" y="827.5" width="130" height="130" stroke="#000000" stroke-width="4.58333" stroke-miterlimit="8" fill="#FF0000"/><text fill="#FF0000" font-family="LM Roman 10,LM Roman 10_MSFontService,sans-serif" font-weight="700" font-size="55" transform="translate(1234.28 912)">0</text><rect x="1988.5" y="629.5" width="130" height="130" stroke="#000000" stroke-width="4.58333" stroke-miterlimit="8" fill="#FFFF00"/><rect x="1923.5" y="694.5" width="130" height="130" stroke="#000000" stroke-width="4.58333" stroke-miterlimit="8" fill="#FFFF00"/><path d="M2351.5 680.75 2377 680.75 2377 664.5 2402.5 697 2377 729.5 2377 713.25 2351.5 713.25Z" stroke="#000000" stroke-width="4.58333" stroke-miterlimit="8" fill="#FFFFFF" fill-rule="evenodd"/><rect x="2491.5" y="502.5" width="130" height="130" stroke="#000000" stroke-width="4.58333" stroke-miterlimit="8" fill="#FFFFFF"/><text font-family="LM Roman 10,LM Roman 10_MSFontService,sans-serif" font-weight="700" font-size="110" transform="matrix(1 0 0 1 1730.55 767)">*</text><text font-family="LM Roman 10,LM Roman 10_MSFontService,sans-serif" font-weight="400" font-size="83" transform="translate(1169.79 364)">Input (<tspan font-size="83" x="258.958" y="0">3</tspan>x<tspan font-size="83" x="343.75" y="0">3</tspan>x<tspan font-size="83" x="428.542" y="0">3</tspan>)</text><text font-family="LM Roman 10,LM Roman 10_MSFontService,sans-serif" font-weight="400" font-size="83" transform="matrix(1 0 0 1 1836.59 362)">Kernel (1x1x3)<tspan font-size="83" x="662.277" y="0">Output (3x3)</tspan></text><rect x="2615.5" y="502.5" width="130" height="130" stroke="#000000" stroke-width="4.58333" stroke-miterlimit="8" fill="#FFFFFF"/><rect x="2745.5" y="502.5" width="130" height="130" stroke="#000000" stroke-width="4.58333" stroke-miterlimit="8" fill="#FFFFFF"/><rect x="2491.5" y="632.5" width="130" height="130" stroke="#000000" stroke-width="4.58333" stroke-miterlimit="8" fill="#FFFFFF"/><rect x="2615.5" y="632.5" width="130" height="130" stroke="#000000" stroke-width="4.58333" stroke-miterlimit="8" fill="#FFFFFF"/><rect x="2745.5" y="632.5" width="130" height="130" stroke="#000000" stroke-width="4.58333" stroke-miterlimit="8" fill="#FFFF00"/><rect x="2491.5" y="758.5" width="130" height="130" stroke="#000000" stroke-width="4.58333" stroke-miterlimit="8" fill="#FFFFFF"/><rect x="2615.5" y="758.5" width="130" height="130" stroke="#000000" stroke-width="4.58333" stroke-miterlimit="8" fill="#FFFFFF"/><rect x="2745.5" y="758.5" width="130" height="130" stroke="#000000" stroke-width="4.58333" stroke-miterlimit="8" fill="#FFFFFF"/><rect x="1314.5" y="695.5" width="130" height="130" stroke="#000000" stroke-width="4.58333" stroke-miterlimit="8" fill="#FFFF00"/></g></svg>