<svg width="1498" height="1673" xmlns="http://www.w3.org/2000/svg" xmlns:xlink="http://www.w3.org/1999/xlink" overflow="hidden"><defs><clipPath id="clip0"><rect x="1102" y="467" width="1498" height="1673"/></clipPath></defs><g clip-path="url(#clip0)" transform="translate(-1102 -467)"><rect x="1104.5" y="488.5" width="333" height="169" stroke="#2F528F" stroke-width="4.58333" stroke-miterlimit="8" fill="#FFFFFF"/><rect x="1104.5" y="469.5" width="150" height="169" stroke="#2F528F" stroke-width="4.58333" stroke-miterlimit="8" fill="#FFFFFF"/><rect x="1209.5" y="493.5" width="90.9998" height="73.9999" stroke="#FFFFFF" stroke-width="4.58333" stroke-miterlimit="8" fill="#FFFFFF"/><rect x="1104.5" y="505.5" width="387" height="170" stroke="#2F528F" stroke-width="4.58333" stroke-miterlimit="8" fill="#FFFFFF"/><text font-family="LM Roman 10,LM Roman 10_MSFontService,sans-serif" font-weight="700" font-size="55" transform="matrix(1 0 0 1 1199.46 610)">Dataset</text><path d="M1491 587.135 1586.8 587.135C1588.38 587.135 1589.66 588.418 1589.66 590L1589.66 1521.91 1586.8 1519.05 1659.67 1519.05 1659.67 1524.78 1586.8 1524.78C1585.21 1524.78 1583.93 1523.49 1583.93 1521.91L1583.93 590 1586.8 592.864 1491 592.864ZM1655.09 1508.16 1682.59 1521.91 1655.09 1535.66Z" fill="#4472C4"/><rect x="1683.5" y="488.5" width="332" height="169" stroke="#2F528F" stroke-width="4.58333" stroke-miterlimit="8" fill="#FFFFFF"/><rect x="1683.5" y="469.5" width="150" height="169" stroke="#2F528F" stroke-width="4.58333" stroke-miterlimit="8" fill="#FFFFFF"/><rect x="1787.5" y="493.5" width="92.0001" height="73.9999" stroke="#FFFFFF" stroke-width="4.58333" stroke-miterlimit="8" fill="#FFFFFF"/><rect x="1683.5" y="505.5" width="387" height="170" stroke="#2F528F" stroke-width="4.58333" stroke-miterlimit="8" fill="#FFFFFF"/><text font-family="LM Roman 10,LM Roman 10_MSFontService,sans-serif" font-weight="700" font-size="55" transform="matrix(1 0 0 1 1779.88 610)">Botto<tspan font-size="55" x="144.948" y="0">m</tspan></text><path d="M1491.5 587.063 1660.17 587.063 1660.17 593.938 1491.5 593.938ZM1655.59 576.75 1683.09 590.5 1655.59 604.25Z" fill="#4472C4"/><rect x="1683.5" y="1420.5" width="332" height="169" stroke="#2F528F" stroke-width="4.58333" stroke-miterlimit="8" fill="#FFFFFF"/><rect x="1683.5" y="1401.5" width="150" height="169" stroke="#2F528F" stroke-width="4.58333" stroke-miterlimit="8" fill="#FFFFFF"/><rect x="1787.5" y="1424.5" width="92.0001" height="74.9999" stroke="#FFFFFF" stroke-width="4.58333" stroke-miterlimit="8" fill="#FFFFFF"/><rect x="1683.5" y="1437.5" width="387" height="170" stroke="#2F528F" stroke-width="4.58333" stroke-miterlimit="8" fill="#FFFFFF"/><text font-family="LM Roman 10,LM Roman 10_MSFontService,sans-serif" font-weight="700" font-size="55" transform="matrix(1 0 0 1 1738.06 1542)">No bottom</text><rect x="2210.5" y="488.5" width="333" height="170" stroke="#2F528F" stroke-width="4.58333" stroke-miterlimit="8" fill="#FFFFFF"/><rect x="2210.5" y="469.5" width="150" height="169" stroke="#2F528F" stroke-width="4.58333" stroke-miterlimit="8" fill="#FFFFFF"/><rect x="2314.5" y="493.5" width="92.0002" height="73.9999" stroke="#FFFFFF" stroke-width="4.58333" stroke-miterlimit="8" fill="#FFFFFF"/><rect x="2210.5" y="505.5" width="387" height="170" stroke="#2F528F" stroke-width="4.58333" stroke-miterlimit="8" fill="#FFFFFF"/><text font-family="LM Roman 10,LM Roman 10_MSFontService,sans-serif" font-weight="700" font-size="55" transform="matrix(1 0 0 1 2306.69 610)">Sandeel</text><rect x="2208.5" y="755.5" width="332" height="169" stroke="#2F528F" stroke-width="4.58333" stroke-miterlimit="8" fill="#FFFFFF"/><rect x="2208.5" y="736.5" width="150" height="169" stroke="#2F528F" stroke-width="4.58333" stroke-miterlimit="8" fill="#FFFFFF"/><rect x="2312.5" y="759.5" width="92.0002" height="75.0003" stroke="#FFFFFF" stroke-width="4.58333" stroke-miterlimit="8" fill="#FFFFFF"/><rect x="2208.5" y="772.5" width="387" height="169" stroke="#2F528F" stroke-width="4.58333" stroke-miterlimit="8" fill="#FFFFFF"/><text font-family="LM Roman 10,LM Roman 10_MSFontService,sans-serif" font-weight="700" font-size="55" transform="matrix(1 0 0 1 2327.44 877)">Other</text><rect x="2208.5" y="1020.5" width="332" height="169" stroke="#2F528F" stroke-width="4.58333" stroke-miterlimit="8" fill="#FFFFFF"/><rect x="2208.5" y="1002.5" width="150" height="170" stroke="#2F528F" stroke-width="4.58333" stroke-miterlimit="8" fill="#FFFFFF"/><rect x="2312.5" y="1026.5" width="92.0002" height="74.9999" stroke="#FFFFFF" stroke-width="4.58333" stroke-miterlimit="8" fill="#FFFFFF"/><rect x="2208.5" y="1039.5" width="387" height="169" stroke="#2F528F" stroke-width="4.58333" stroke-miterlimit="8" fill="#FFFFFF"/><text font-family="LM Roman 10,LM Roman 10_MSFontService,sans-serif" font-weight="700" font-size="55" transform="matrix(1 0 0 1 2249.53 1144)">Background</text><rect x="2207.5" y="1419.5" width="333" height="170" stroke="#2F528F" stroke-width="4.58333" stroke-miterlimit="8" fill="#FFFFFF"/><rect x="2207.5" y="1402.5" width="150" height="169" stroke="#2F528F" stroke-width="4.58333" stroke-miterlimit="8" fill="#FFFFFF"/><rect x="2312.5" y="1423.5" width="91" height="74.9999" stroke="#FFFFFF" stroke-width="4.58333" stroke-miterlimit="8" fill="#FFFFFF"/><rect x="2207.5" y="1438.5" width="387" height="170" stroke="#2F528F" stroke-width="4.58333" stroke-miterlimit="8" fill="#FFFFFF"/><text font-family="LM Roman 10,LM Roman 10_MSFontService,sans-serif" font-weight="700" font-size="55" transform="matrix(1 0 0 1 2303.93 1543)">Sandeel</text><rect x="2207.5" y="1685.5" width="333" height="169" stroke="#2F528F" stroke-width="4.58333" stroke-miterlimit="8" fill="#FFFFFF"/><rect x="2207.5" y="1667.5" width="150" height="169" stroke="#2F528F" stroke-width="4.58333" stroke-miterlimit="8" fill="#FFFFFF"/><rect x="2312.5" y="1688.5" width="91" height="74.9999" stroke="#FFFFFF" stroke-width="4.58333" stroke-miterlimit="8" fill="#FFFFFF"/><rect x="2207.5" y="1703.5" width="387" height="170" stroke="#2F528F" stroke-width="4.58333" stroke-miterlimit="8" fill="#FFFFFF"/><text font-family="LM Roman 10,LM Roman 10_MSFontService,sans-serif" font-weight="700" font-size="55" transform="matrix(1 0 0 1 2326.84 1808)">Other</text><rect x="2207.5" y="1949.5" width="333" height="169" stroke="#2F528F" stroke-width="4.58333" stroke-miterlimit="8" fill="#FFFFFF"/><rect x="2207.5" y="1931.5" width="150" height="169" stroke="#2F528F" stroke-width="4.58333" stroke-miterlimit="8" fill="#FFFFFF"/><rect x="2312.5" y="1952.5" width="91" height="74.9999" stroke="#FFFFFF" stroke-width="4.58333" stroke-miterlimit="8" fill="#FFFFFF"/><rect x="2207.5" y="1967.5" width="387" height="170" stroke="#2F528F" stroke-width="4.58333" stroke-miterlimit="8" fill="#FFFFFF"/><text font-family="LM Roman 10,LM Roman 10_MSFontService,sans-serif" font-weight="700" font-size="55" transform="matrix(1 0 0 1 2248.93 2072)">Background</text><path d="M2070 1519.14 2138.89 1519.14C2140.47 1519.14 2141.76 1520.42 2141.76 1522L2141.76 1788.23 2138.89 1785.37 2184.87 1785.37 2184.87 1791.1 2138.89 1791.1C2137.31 1791.1 2136.03 1789.81 2136.03 1788.23L2136.03 1522 2138.89 1524.86 2070 1524.86ZM2180.28 1774.48 2207.78 1788.23 2180.28 1801.98Z" fill="#4472C4"/><path d="M2070 1519.14 2138.89 1519.14C2140.47 1519.14 2141.76 1520.42 2141.76 1522L2141.76 2052.17 2138.89 2049.31 2184.87 2049.31 2184.87 2055.04 2138.89 2055.04C2137.31 2055.04 2136.03 2053.75 2136.03 2052.17L2136.03 1522 2138.89 1524.86 2070 1524.86ZM2180.28 2038.42 2207.78 2052.17 2180.28 2065.92Z" fill="#4472C4"/><path d="M2070.5 587.063 2188.13 587.106 2188.12 593.981 2070.5 593.938ZM2183.55 576.792 2211.04 590.552 2183.54 604.292Z" fill="#4472C4"/><path d="M2070.53 1519.06 2185.4 1520.02 2185.34 1526.89 2070.47 1525.94ZM2180.9 1509.67 2208.28 1523.65 2180.67 1537.17Z" fill="#4472C4"/><path d="M2070 587.135 2139.19 587.135C2140.77 587.135 2142.06 588.418 2142.06 590L2142.06 856.856 2139.19 853.991 2185.47 853.991 2185.47 859.721 2139.19 859.721C2137.61 859.721 2136.33 858.438 2136.33 856.856L2136.33 590 2139.19 592.864 2070 592.864ZM2180.88 843.106 2208.38 856.856 2180.88 870.606Z" fill="#4472C4"/><path d="M2070 587.135 2139.19 587.135C2140.77 587.135 2142.06 588.418 2142.06 590L2142.06 1123.66 2139.19 1120.8 2185.47 1120.8 2185.47 1126.53 2139.19 1126.53C2137.61 1126.53 2136.33 1125.24 2136.33 1123.66L2136.33 590 2139.19 592.864 2070 592.864ZM2180.88 1109.91 2208.38 1123.66 2180.88 1137.41Z" fill="#4472C4"/></g></svg>