<svg width="1358" height="1688" xmlns="http://www.w3.org/2000/svg" xmlns:xlink="http://www.w3.org/1999/xlink" overflow="hidden"><defs><clipPath id="clip0"><rect x="917" y="292" width="1358" height="1688"/></clipPath></defs><g clip-path="url(#clip0)" transform="translate(-917 -292)"><rect x="919.5" y="294.5" width="363" height="169" stroke="#2F528F" stroke-width="4.58333" stroke-miterlimit="8" fill="#FFFFFF"/><text font-family="LM Roman 10,LM Roman 10_MSFontService,sans-serif" font-weight="700" font-size="73" transform="matrix(1 0 0 1 969.661 404)">Dataset</text><rect x="1410.5" y="463.5" width="363" height="169" stroke="#2F528F" stroke-width="4.58333" stroke-miterlimit="8" fill="#FFFFFF"/><text font-family="LM Roman 10,LM Roman 10_MSFontService,sans-serif" font-weight="700" font-size="73" transform="matrix(1 0 0 1 1544.01 530)">No <tspan font-size="73" x="-79.6354" y="88">Bottom</tspan></text><rect x="1909.5" y="632.5" width="363" height="170" stroke="#2F528F" stroke-width="4.58333" stroke-miterlimit="8" fill="#FFFFFF"/><text font-family="LM Roman 10,LM Roman 10_MSFontService,sans-serif" font-weight="700" font-size="73" transform="matrix(1 0 0 1 1960.81 743)">Sandeel</text><rect x="1909.5" y="841.5" width="363" height="170" stroke="#2F528F" stroke-width="4.58333" stroke-miterlimit="8" fill="#FFFFFF"/><text font-family="LM Roman 10,LM Roman 10_MSFontService,sans-serif" font-weight="700" font-size="73" transform="matrix(1 0 0 1 1991.17 952)">Other</text><rect x="1909.5" y="1050.5" width="363" height="170" stroke="#2F528F" stroke-width="4.58333" stroke-miterlimit="8" fill="#FFFFFF"/><text font-family="LM Roman 10,LM Roman 10_MSFontService,sans-serif" font-weight="700" font-size="73" transform="matrix(1 0 0 1 2001.67 1161)">Valid</text><path d="M1282 375.136 1346.28 375.136C1347.86 375.136 1349.15 376.418 1349.15 378L1349.15 547.342 1346.28 544.478 1387.65 544.478 1387.65 550.207 1346.28 550.207C1344.7 550.207 1343.42 548.924 1343.42 547.342L1343.42 378 1346.28 380.865 1282 380.865ZM1383.06 533.592 1410.56 547.342 1383.06 561.092Z" fill="#4472C4"/><rect x="1410.5" y="1220.5" width="363" height="169" stroke="#2F528F" stroke-width="4.58333" stroke-miterlimit="8" fill="#FFFFFF"/><text font-family="LM Roman 10,LM Roman 10_MSFontService,sans-serif" font-weight="700" font-size="73" transform="matrix(1 0 0 1 1464.37 1330)">Bottom</text><rect x="1909.5" y="1389.5" width="363" height="169" stroke="#2F528F" stroke-width="4.58333" stroke-miterlimit="8" fill="#FFFFFF"/><text font-family="LM Roman 10,LM Roman 10_MSFontService,sans-serif" font-weight="700" font-size="73" transform="matrix(1 0 0 1 1960.81 1500)">Sandeel</text><rect x="1909.5" y="1598.5" width="363" height="169" stroke="#2F528F" stroke-width="4.58333" stroke-miterlimit="8" fill="#FFFFFF"/><text font-family="LM Roman 10,LM Roman 10_MSFontService,sans-serif" font-weight="700" font-size="73" transform="matrix(1 0 0 1 1991.17 1709)">Other</text><rect x="1909.5" y="1807.5" width="363" height="169" stroke="#2F528F" stroke-width="4.58333" stroke-miterlimit="8" fill="#FFFFFF"/><text font-family="LM Roman 10,LM Roman 10_MSFontService,sans-serif" font-weight="700" font-size="73" transform="matrix(1 0 0 1 2001.67 1918)">Valid</text><path d="M1282 375.136 1346.28 375.136C1347.86 375.136 1349.15 376.418 1349.15 378L1349.15 1304.06 1346.28 1301.2 1387.65 1301.2 1387.65 1306.93 1346.28 1306.93C1344.7 1306.93 1343.42 1305.65 1343.42 1304.06L1343.42 378 1346.28 380.865 1282 380.865ZM1383.06 1290.31 1410.56 1304.06 1383.06 1317.81Z" fill="#4472C4"/><path d="M1773 545.135 1840.72 545.135C1842.3 545.135 1843.58 546.418 1843.58 548L1843.58 926.36 1840.72 923.496 1885.52 923.496 1885.52 929.225 1840.72 929.225C1839.14 929.225 1837.85 927.942 1837.85 926.36L1837.85 548 1840.72 550.865 1773 550.865ZM1880.94 912.61 1908.44 926.36 1880.94 940.11Z" fill="#4472C4"/><path d="M1773 545.135 1840.72 545.135C1842.3 545.135 1843.58 546.418 1843.58 548L1843.58 717.342 1840.72 714.478 1885.52 714.478 1885.52 720.207 1840.72 720.207C1839.14 720.207 1837.85 718.924 1837.85 717.342L1837.85 548 1840.72 550.865 1773 550.865ZM1880.94 703.592 1908.44 717.342 1880.94 731.092Z" fill="#4472C4"/><path d="M1773 545.135 1840.72 545.135C1842.3 545.135 1843.58 546.418 1843.58 548L1843.58 1135.38 1840.72 1132.51 1885.52 1132.51 1885.52 1138.24 1840.72 1138.24C1839.14 1138.24 1837.85 1136.96 1837.85 1135.38L1837.85 548 1840.72 550.865 1773 550.865ZM1880.94 1121.63 1908.44 1135.38 1880.94 1149.13Z" fill="#4472C4"/><path d="M1773 1301.14 1840.72 1301.14C1842.3 1301.14 1843.58 1302.42 1843.58 1304L1843.58 1473.34 1840.72 1470.48 1885.52 1470.48 1885.52 1476.21 1840.72 1476.21C1839.14 1476.21 1837.85 1474.92 1837.85 1473.34L1837.85 1304 1840.72 1306.86 1773 1306.86ZM1880.94 1459.59 1908.44 1473.34 1880.94 1487.09Z" fill="#4472C4"/><path d="M1773 1301.14 1840.72 1301.14C1842.3 1301.14 1843.58 1302.42 1843.58 1304L1843.58 1682.36 1840.72 1679.5 1885.52 1679.5 1885.52 1685.22 1840.72 1685.22C1839.14 1685.22 1837.85 1683.94 1837.85 1682.36L1837.85 1304 1840.72 1306.86 1773 1306.86ZM1880.94 1668.61 1908.44 1682.36 1880.94 1696.11Z" fill="#4472C4"/><path d="M1773 1301.14 1840.72 1301.14C1842.3 1301.14 1843.58 1302.42 1843.58 1304L1843.58 1891.38 1840.72 1888.51 1885.52 1888.51 1885.52 1894.24 1840.72 1894.24C1839.14 1894.24 1837.85 1892.96 1837.85 1891.38L1837.85 1304 1840.72 1306.86 1773 1306.86ZM1880.94 1877.63 1908.44 1891.38 1880.94 1905.13Z" fill="#4472C4"/></g></svg>