<svg width="1668" height="1406" xmlns="http://www.w3.org/2000/svg" xmlns:xlink="http://www.w3.org/1999/xlink" overflow="hidden"><defs><clipPath id="clip0"><rect x="865" y="373" width="1668" height="1406"/></clipPath><clipPath id="clip1"><rect x="1526" y="1393" width="31" height="31"/></clipPath><clipPath id="clip2"><rect x="1526" y="1393" width="31" height="31"/></clipPath><clipPath id="clip3"><rect x="1526" y="1393" width="31" height="31"/></clipPath><clipPath id="clip4"><rect x="1545" y="1403" width="31" height="31"/></clipPath><clipPath id="clip5"><rect x="1545" y="1403" width="31" height="31"/></clipPath><clipPath id="clip6"><rect x="1545" y="1403" width="31" height="31"/></clipPath><clipPath id="clip7"><rect x="1551" y="1387" width="29" height="29"/></clipPath><clipPath id="clip8"><rect x="1551" y="1387" width="29" height="29"/></clipPath><clipPath id="clip9"><rect x="1551" y="1387" width="29" height="29"/></clipPath><clipPath id="clip10"><rect x="1530" y="1380" width="29" height="30"/></clipPath><clipPath id="clip11"><rect x="1530" y="1380" width="29" height="30"/></clipPath><clipPath id="clip12"><rect x="1530" y="1380" width="29" height="30"/></clipPath><clipPath id="clip13"><rect x="1515" y="1387" width="31" height="29"/></clipPath><clipPath id="clip14"><rect x="1515" y="1387" width="31" height="29"/></clipPath><clipPath id="clip15"><rect x="1515" y="1387" width="31" height="29"/></clipPath><clipPath id="clip16"><rect x="1516" y="1400" width="30" height="29"/></clipPath><clipPath id="clip17"><rect x="1516" y="1400" width="30" height="29"/></clipPath><clipPath id="clip18"><rect x="1516" y="1400" width="30" height="29"/></clipPath><clipPath id="clip19"><rect x="1525" y="1410" width="31" height="29"/></clipPath><clipPath id="clip20"><rect x="1525" y="1410" width="31" height="29"/></clipPath><clipPath id="clip21"><rect x="1525" y="1410" width="31" height="29"/></clipPath><clipPath id="clip22"><rect x="1537" y="1421" width="31" height="29"/></clipPath><clipPath id="clip23"><rect x="1537" y="1421" width="31" height="29"/></clipPath><clipPath id="clip24"><rect x="1537" y="1421" width="31" height="29"/></clipPath><clipPath id="clip25"><rect x="1556" y="1413" width="31" height="31"/></clipPath><clipPath id="clip26"><rect x="1556" y="1413" width="31" height="31"/></clipPath><clipPath id="clip27"><rect x="1556" y="1413" width="31" height="31"/></clipPath><clipPath id="clip28"><rect x="1559" y="1428" width="31" height="30"/></clipPath><clipPath id="clip29"><rect x="1559" y="1428" width="31" height="30"/></clipPath><clipPath id="clip30"><rect x="1559" y="1428" width="31" height="30"/></clipPath><clipPath id="clip31"><rect x="1582" y="1425" width="30" height="30"/></clipPath><clipPath id="clip32"><rect x="1582" y="1425" width="30" height="30"/></clipPath><clipPath id="clip33"><rect x="1582" y="1425" width="30" height="30"/></clipPath><clipPath id="clip34"><rect x="1593" y="1419" width="30" height="29"/></clipPath><clipPath id="clip35"><rect x="1593" y="1419" width="30" height="29"/></clipPath><clipPath id="clip36"><rect x="1593" y="1419" width="30" height="29"/></clipPath><clipPath id="clip37"><rect x="1600" y="1409" width="30" height="29"/></clipPath><clipPath id="clip38"><rect x="1600" y="1409" width="30" height="29"/></clipPath><clipPath id="clip39"><rect x="1600" y="1409" width="30" height="29"/></clipPath><clipPath id="clip40"><rect x="1606" y="1401" width="29" height="29"/></clipPath><clipPath id="clip41"><rect x="1606" y="1401" width="29" height="29"/></clipPath><clipPath id="clip42"><rect x="1606" y="1401" width="29" height="29"/></clipPath><clipPath id="clip43"><rect x="1603" y="1382" width="31" height="31"/></clipPath><clipPath id="clip44"><rect x="1603" y="1382" width="31" height="31"/></clipPath><clipPath id="clip45"><rect x="1603" y="1382" width="31" height="31"/></clipPath><clipPath id="clip46"><rect x="1606" y="1391" width="29" height="30"/></clipPath><clipPath id="clip47"><rect x="1606" y="1391" width="29" height="30"/></clipPath><clipPath id="clip48"><rect x="1606" y="1391" width="29" height="30"/></clipPath><clipPath id="clip49"><rect x="1599" y="1375" width="29" height="29"/></clipPath><clipPath id="clip50"><rect x="1599" y="1375" width="29" height="29"/></clipPath><clipPath id="clip51"><rect x="1599" y="1375" width="29" height="29"/></clipPath><clipPath id="clip52"><rect x="1592" y="1366" width="31" height="28"/></clipPath><clipPath id="clip53"><rect x="1592" y="1366" width="31" height="28"/></clipPath><clipPath id="clip54"><rect x="1592" y="1366" width="31" height="28"/></clipPath><clipPath id="clip55"><rect x="1580" y="1357" width="30" height="29"/></clipPath><clipPath id="clip56"><rect x="1580" y="1357" width="30" height="29"/></clipPath><clipPath id="clip57"><rect x="1580" y="1357" width="30" height="29"/></clipPath><clipPath id="clip58"><rect x="1562" y="1355" width="29" height="28"/></clipPath><clipPath id="clip59"><rect x="1562" y="1355" width="29" height="28"/></clipPath><clipPath id="clip60"><rect x="1562" y="1355" width="29" height="28"/></clipPath><clipPath id="clip61"><rect x="1542" y="1357" width="28" height="29"/></clipPath><clipPath id="clip62"><rect x="1542" y="1357" width="28" height="29"/></clipPath><clipPath id="clip63"><rect x="1542" y="1357" width="28" height="29"/></clipPath><clipPath id="clip64"><rect x="1532" y="1366" width="29" height="28"/></clipPath><clipPath id="clip65"><rect x="1532" y="1366" width="29" height="28"/></clipPath><clipPath id="clip66"><rect x="1532" y="1366" width="29" height="28"/></clipPath><clipPath id="clip67"><rect x="1523" y="1376" width="30" height="29"/></clipPath><clipPath id="clip68"><rect x="1523" y="1376" width="30" height="29"/></clipPath><clipPath id="clip69"><rect x="1523" y="1376" width="30" height="29"/></clipPath><clipPath id="clip70"><rect x="1556" y="1365" width="30" height="28"/></clipPath><clipPath id="clip71"><rect x="1556" y="1365" width="30" height="28"/></clipPath><clipPath id="clip72"><rect x="1556" y="1365" width="30" height="28"/></clipPath><clipPath id="clip73"><rect x="1570" y="1375" width="31" height="28"/></clipPath><clipPath id="clip74"><rect x="1570" y="1375" width="31" height="28"/></clipPath><clipPath id="clip75"><rect x="1570" y="1375" width="31" height="28"/></clipPath><clipPath id="clip76"><rect x="1546" y="1376" width="31" height="29"/></clipPath><clipPath id="clip77"><rect x="1546" y="1376" width="31" height="29"/></clipPath><clipPath id="clip78"><rect x="1546" y="1376" width="31" height="29"/></clipPath><clipPath id="clip79"><rect x="1578" y="1386" width="31" height="29"/></clipPath><clipPath id="clip80"><rect x="1578" y="1386" width="31" height="29"/></clipPath><clipPath id="clip81"><rect x="1578" y="1386" width="31" height="29"/></clipPath><clipPath id="clip82"><rect x="1557" y="1395" width="31" height="30"/></clipPath><clipPath id="clip83"><rect x="1557" y="1395" width="31" height="30"/></clipPath><clipPath id="clip84"><rect x="1557" y="1395" width="31" height="30"/></clipPath><clipPath id="clip85"><rect x="1581" y="1397" width="31" height="29"/></clipPath><clipPath id="clip86"><rect x="1581" y="1397" width="31" height="29"/></clipPath><clipPath id="clip87"><rect x="1581" y="1397" width="31" height="29"/></clipPath><clipPath id="clip88"><rect x="1573" y="1406" width="29" height="30"/></clipPath><clipPath id="clip89"><rect x="1573" y="1406" width="29" height="30"/></clipPath><clipPath id="clip90"><rect x="1573" y="1406" width="29" height="30"/></clipPath></defs><g clip-path="url(#clip0)" transform="translate(-865 -373)"><text font-family="LM Roman 10,LM Roman 10_MSFontService,sans-serif" font-weight="400" font-size="46" transform="translate(1988.42 1146)">Receiver/Amplifier </text><rect x="1908.5" y="450.5" width="547" height="545" stroke="#000000" stroke-width="4.58333" stroke-miterlimit="8" fill="none"/><path d="M866.5 1705.5C966.229 1650.97 1065.96 1596.44 1178.3 1593 1290.63 1589.55 1467.55 1681.39 1540.53 1684.84 1613.51 1688.28 1595.17 1614.81 1616.19 1613.66 1637.2 1612.51 1637.97 1665.7 1666.62 1677.95 1695.28 1690.19 1736.55 1703.2 1788.13 1687.13 1839.72 1671.06 1912.32 1579.99 1976.13 1581.52 2039.94 1583.05 2111.01 1677.57 2171 1696.32 2230.99 1715.07 2336.07 1694.02 2336.07 1694.02 2363.96 1693.64 2331.1 1691.34 2338.36 1694.02" stroke="#2F528F" stroke-width="4.58333" stroke-miterlimit="8" fill="none" fill-rule="evenodd"/><path d="M0 0 187.917 769.991" stroke="#000000" stroke-width="4.58333" stroke-miterlimit="8" fill="none" fill-rule="evenodd" transform="matrix(-1 0 0 1 1565.42 870.5)"/><path d="M1764.95 1688.77 1565.5 871.5" stroke="#000000" stroke-width="4.58333" stroke-miterlimit="8" fill="none" fill-rule="evenodd"/><g clip-path="url(#clip1)"><g clip-path="url(#clip2)"><g clip-path="url(#clip3)"><path d="M1550.26 1407.9C1549.93 1407.9 1549.66 1407.62 1549.66 1407.29 1549.66 1406.96 1549.93 1406.69 1550.26 1406.69 1550.59 1406.69 1550.86 1406.96 1550.86 1407.29 1550.86 1407.62 1550.59 1407.9 1550.26 1407.9ZM1545.12 1404.27C1544.4 1404.27 1543.61 1404.33 1542.83 1404.45L1538.48 1402.16C1538.48 1402.16 1538.51 1403.91 1539.14 1405.24 1536.55 1405.9 1534.1 1406.69 1532.44 1406.69L1528.21 1404.27C1528.21 1405.93 1529.11 1408.5 1529.11 1408.5 1529.11 1408.5 1528.21 1411.07 1528.21 1412.73L1532.44 1410.31C1534.1 1410.31 1536.55 1411.1 1539.14 1411.76 1538.51 1413.09 1538.48 1414.84 1538.48 1414.84L1542.83 1412.55C1543.61 1412.67 1544.4 1412.73 1545.12 1412.73 1548.96 1412.73 1554.79 1409.86 1554.79 1408.5 1554.79 1407.14 1548.96 1404.27 1545.12 1404.27Z"/></g></g></g><g clip-path="url(#clip4)"><g clip-path="url(#clip5)"><g clip-path="url(#clip6)"><path d="M1569.26 1417.9C1568.93 1417.9 1568.66 1417.62 1568.66 1417.29 1568.66 1416.96 1568.93 1416.69 1569.26 1416.69 1569.59 1416.69 1569.86 1416.96 1569.86 1417.29 1569.86 1417.62 1569.59 1417.9 1569.26 1417.9ZM1564.12 1414.27C1563.4 1414.27 1562.61 1414.33 1561.83 1414.45L1557.48 1412.16C1557.48 1412.16 1557.51 1413.91 1558.14 1415.24 1555.55 1415.9 1553.1 1416.69 1551.44 1416.69L1547.21 1414.27C1547.21 1415.93 1548.11 1418.5 1548.11 1418.5 1548.11 1418.5 1547.21 1421.07 1547.21 1422.73L1551.44 1420.31C1553.1 1420.31 1555.55 1421.1 1558.14 1421.76 1557.51 1423.09 1557.48 1424.84 1557.48 1424.84L1561.83 1422.55C1562.61 1422.67 1563.4 1422.73 1564.12 1422.73 1567.96 1422.73 1573.79 1419.86 1573.79 1418.5 1573.79 1417.14 1567.96 1414.27 1564.12 1414.27Z"/></g></g></g><g clip-path="url(#clip7)"><g clip-path="url(#clip8)"><g clip-path="url(#clip9)"><path d="M1574.26 1400.9C1573.93 1400.9 1573.66 1400.62 1573.66 1400.29 1573.66 1399.96 1573.93 1399.69 1574.26 1399.69 1574.59 1399.69 1574.86 1399.96 1574.86 1400.29 1574.86 1400.62 1574.59 1400.9 1574.26 1400.9ZM1569.12 1397.27C1568.4 1397.27 1567.61 1397.33 1566.83 1397.45L1562.48 1395.16C1562.48 1395.16 1562.51 1396.91 1563.14 1398.24 1560.55 1398.9 1558.1 1399.69 1556.44 1399.69L1552.21 1397.27C1552.21 1398.93 1553.11 1401.5 1553.11 1401.5 1553.11 1401.5 1552.21 1404.07 1552.21 1405.73L1556.44 1403.31C1558.1 1403.31 1560.55 1404.1 1563.14 1404.76 1562.51 1406.09 1562.48 1407.84 1562.48 1407.84L1566.83 1405.55C1567.61 1405.67 1568.4 1405.73 1569.12 1405.73 1572.96 1405.73 1578.79 1402.86 1578.79 1401.5 1578.79 1400.14 1572.96 1397.27 1569.12 1397.27Z"/></g></g></g><g clip-path="url(#clip10)"><g clip-path="url(#clip11)"><g clip-path="url(#clip12)"><path d="M1553.26 1393.9C1552.93 1393.9 1552.66 1393.62 1552.66 1393.29 1552.66 1392.96 1552.93 1392.69 1553.26 1392.69 1553.59 1392.69 1553.86 1392.96 1553.86 1393.29 1553.86 1393.62 1553.59 1393.9 1553.26 1393.9ZM1548.12 1390.27C1547.4 1390.27 1546.61 1390.33 1545.83 1390.45L1541.48 1388.16C1541.48 1388.16 1541.51 1389.91 1542.14 1391.24 1539.55 1391.9 1537.1 1392.69 1535.44 1392.69L1531.21 1390.27C1531.21 1391.93 1532.11 1394.5 1532.11 1394.5 1532.11 1394.5 1531.21 1397.07 1531.21 1398.73L1535.44 1396.31C1537.1 1396.31 1539.55 1397.1 1542.14 1397.76 1541.51 1399.09 1541.48 1400.84 1541.48 1400.84L1545.83 1398.55C1546.61 1398.67 1547.4 1398.73 1548.12 1398.73 1551.96 1398.73 1557.79 1395.86 1557.79 1394.5 1557.79 1393.14 1551.96 1390.27 1548.12 1390.27Z"/></g></g></g><g clip-path="url(#clip13)"><g clip-path="url(#clip14)"><g clip-path="url(#clip15)"><path d="M23.2603 13.8958C22.928 13.8958 22.6561 13.6239 22.6561 13.2916 22.6561 12.9593 22.928 12.6874 23.2603 12.6874 23.5926 12.6874 23.8645 12.9593 23.8645 13.2916 23.8645 13.6239 23.5926 13.8958 23.2603 13.8958ZM18.1249 10.2708C17.3999 10.2708 16.6145 10.3312 15.8291 10.452L11.4791 8.15621C11.4791 8.15621 11.5093 9.90829 12.1437 11.2374 9.54579 11.902 7.09893 12.6874 5.43748 12.6874L1.20833 10.2708C1.20833 11.9322 2.11457 14.4999 2.11457 14.4999 2.11457 14.4999 1.20833 17.0676 1.20833 18.7291L5.43748 16.3124C7.09893 16.3124 9.54579 17.0978 12.1437 17.7624 11.5093 19.0916 11.4791 20.8437 11.4791 20.8437L15.8291 18.5478C16.6145 18.6687 17.3999 18.7291 18.1249 18.7291 21.9614 18.7291 27.7915 15.8593 27.7915 14.4999 27.7915 13.1406 21.9614 10.2708 18.1249 10.2708Z" transform="matrix(1.00001 0 0 1 1516 1387)"/></g></g></g><g clip-path="url(#clip16)"><g clip-path="url(#clip17)"><g clip-path="url(#clip18)"><path d="M22.4585 13.4168C22.1377 13.4168 21.8752 13.1543 21.8752 12.8334 21.8752 12.5126 22.1377 12.2501 22.4585 12.2501 22.7793 12.2501 23.0418 12.5126 23.0418 12.8334 23.0418 13.1543 22.7793 13.4168 22.4585 13.4168ZM17.5001 9.91674C16.8001 9.91674 16.0418 9.97507 15.2834 10.0917L11.0834 7.87506C11.0834 7.87506 11.1126 9.56673 11.7251 10.8501 9.21673 11.4917 6.85421 12.2501 5.25004 12.2501L1.16667 9.91674C1.16667 11.5209 2.04168 14.0001 2.04168 14.0001 2.04168 14.0001 1.16667 16.4793 1.16667 18.0835L5.25004 15.7501C6.85421 15.7501 9.21673 16.5084 11.7251 17.1501 11.1126 18.4335 11.0834 20.1251 11.0834 20.1251L15.2834 17.9085C16.0418 18.0251 16.8001 18.0835 17.5001 18.0835 21.2043 18.0835 26.8335 15.3126 26.8335 14.0001 26.8335 12.6876 21.2043 9.91674 17.5001 9.91674Z" transform="matrix(1 0 0 1.0357 1517 1400)"/></g></g></g><g clip-path="url(#clip19)"><g clip-path="url(#clip20)"><g clip-path="url(#clip21)"><path d="M23.2603 13.8958C22.928 13.8958 22.6561 13.6239 22.6561 13.2916 22.6561 12.9593 22.928 12.6874 23.2603 12.6874 23.5926 12.6874 23.8645 12.9593 23.8645 13.2916 23.8645 13.6239 23.5926 13.8958 23.2603 13.8958ZM18.1249 10.2708C17.3999 10.2708 16.6145 10.3312 15.8291 10.452L11.4791 8.15621C11.4791 8.15621 11.5093 9.90829 12.1437 11.2374 9.54579 11.902 7.09893 12.6874 5.43748 12.6874L1.20833 10.2708C1.20833 11.9322 2.11457 14.4999 2.11457 14.4999 2.11457 14.4999 1.20833 17.0676 1.20833 18.7291L5.43748 16.3124C7.09893 16.3124 9.54579 17.0978 12.1437 17.7624 11.5093 19.0916 11.4791 20.8437 11.4791 20.8437L15.8291 18.5478C16.6145 18.6687 17.3999 18.7291 18.1249 18.7291 21.9614 18.7291 27.7915 15.8593 27.7915 14.4999 27.7915 13.1406 21.9614 10.2708 18.1249 10.2708Z" transform="matrix(1.00001 0 0 1 1526 1410)"/></g></g></g><g clip-path="url(#clip22)"><g clip-path="url(#clip23)"><g clip-path="url(#clip24)"><path d="M23.2603 13.8958C22.928 13.8958 22.6561 13.6239 22.6561 13.2916 22.6561 12.9593 22.928 12.6874 23.2603 12.6874 23.5926 12.6874 23.8645 12.9593 23.8645 13.2916 23.8645 13.6239 23.5926 13.8958 23.2603 13.8958ZM18.1249 10.2708C17.3999 10.2708 16.6145 10.3312 15.8291 10.452L11.4791 8.15621C11.4791 8.15621 11.5093 9.90829 12.1437 11.2374 9.54579 11.902 7.09893 12.6874 5.43748 12.6874L1.20833 10.2708C1.20833 11.9322 2.11457 14.4999 2.11457 14.4999 2.11457 14.4999 1.20833 17.0676 1.20833 18.7291L5.43748 16.3124C7.09893 16.3124 9.54579 17.0978 12.1437 17.7624 11.5093 19.0916 11.4791 20.8437 11.4791 20.8437L15.8291 18.5478C16.6145 18.6687 17.3999 18.7291 18.1249 18.7291 21.9614 18.7291 27.7915 15.8593 27.7915 14.4999 27.7915 13.1406 21.9614 10.2708 18.1249 10.2708Z" transform="matrix(1.00001 0 0 1 1538 1421)"/></g></g></g><g clip-path="url(#clip25)"><g clip-path="url(#clip26)"><g clip-path="url(#clip27)"><path d="M1580.26 1427.9C1579.93 1427.9 1579.66 1427.62 1579.66 1427.29 1579.66 1426.96 1579.93 1426.69 1580.26 1426.69 1580.59 1426.69 1580.86 1426.96 1580.86 1427.29 1580.86 1427.62 1580.59 1427.9 1580.26 1427.9ZM1575.12 1424.27C1574.4 1424.27 1573.61 1424.33 1572.83 1424.45L1568.48 1422.16C1568.48 1422.16 1568.51 1423.91 1569.14 1425.24 1566.55 1425.9 1564.1 1426.69 1562.44 1426.69L1558.21 1424.27C1558.21 1425.93 1559.11 1428.5 1559.11 1428.5 1559.11 1428.5 1558.21 1431.07 1558.21 1432.73L1562.44 1430.31C1564.1 1430.31 1566.55 1431.1 1569.14 1431.76 1568.51 1433.09 1568.48 1434.84 1568.48 1434.84L1572.83 1432.55C1573.61 1432.67 1574.4 1432.73 1575.12 1432.73 1578.96 1432.73 1584.79 1429.86 1584.79 1428.5 1584.79 1427.14 1578.96 1424.27 1575.12 1424.27Z"/></g></g></g><g clip-path="url(#clip28)"><g clip-path="url(#clip29)"><g clip-path="url(#clip30)"><path d="M22.4585 13.4168C22.1377 13.4168 21.8752 13.1543 21.8752 12.8334 21.8752 12.5126 22.1377 12.2501 22.4585 12.2501 22.7793 12.2501 23.0418 12.5126 23.0418 12.8334 23.0418 13.1543 22.7793 13.4168 22.4585 13.4168ZM17.5001 9.91674C16.8001 9.91674 16.0418 9.97507 15.2834 10.0917L11.0834 7.87506C11.0834 7.87506 11.1126 9.56673 11.7251 10.8501 9.21673 11.4917 6.85421 12.2501 5.25004 12.2501L1.16667 9.91674C1.16667 11.5209 2.04168 14.0001 2.04168 14.0001 2.04168 14.0001 1.16667 16.4793 1.16667 18.0835L5.25004 15.7501C6.85421 15.7501 9.21673 16.5084 11.7251 17.1501 11.1126 18.4335 11.0834 20.1251 11.0834 20.1251L15.2834 17.9085C16.0418 18.0251 16.8001 18.0835 17.5001 18.0835 21.2043 18.0835 26.8335 15.3126 26.8335 14.0001 26.8335 12.6876 21.2043 9.91674 17.5001 9.91674Z" transform="matrix(1.03572 0 0 1 1560 1429)"/></g></g></g><g clip-path="url(#clip31)"><g clip-path="url(#clip32)"><g clip-path="url(#clip33)"><path d="M22.4585 13.4168C22.1377 13.4168 21.8752 13.1543 21.8752 12.8334 21.8752 12.5126 22.1377 12.2501 22.4585 12.2501 22.7793 12.2501 23.0418 12.5126 23.0418 12.8334 23.0418 13.1543 22.7793 13.4168 22.4585 13.4168ZM17.5001 9.91674C16.8001 9.91674 16.0418 9.97507 15.2834 10.0917L11.0834 7.87506C11.0834 7.87506 11.1126 9.56673 11.7251 10.8501 9.21673 11.4917 6.85421 12.2501 5.25004 12.2501L1.16667 9.91674C1.16667 11.5209 2.04168 14.0001 2.04168 14.0001 2.04168 14.0001 1.16667 16.4793 1.16667 18.0835L5.25004 15.7501C6.85421 15.7501 9.21673 16.5084 11.7251 17.1501 11.1126 18.4335 11.0834 20.1251 11.0834 20.1251L15.2834 17.9085C16.0418 18.0251 16.8001 18.0835 17.5001 18.0835 21.2043 18.0835 26.8335 15.3126 26.8335 14.0001 26.8335 12.6876 21.2043 9.91674 17.5001 9.91674Z" transform="matrix(1.0357 0 0 1 1583 1426)"/></g></g></g><g clip-path="url(#clip34)"><g clip-path="url(#clip35)"><g clip-path="url(#clip36)"><path d="M1617.26 1432.9C1616.93 1432.9 1616.66 1432.62 1616.66 1432.29 1616.66 1431.96 1616.93 1431.69 1617.26 1431.69 1617.59 1431.69 1617.86 1431.96 1617.86 1432.29 1617.86 1432.62 1617.59 1432.9 1617.26 1432.9ZM1612.12 1429.27C1611.4 1429.27 1610.61 1429.33 1609.83 1429.45L1605.48 1427.16C1605.48 1427.16 1605.51 1428.91 1606.14 1430.24 1603.55 1430.9 1601.1 1431.69 1599.44 1431.69L1595.21 1429.27C1595.21 1430.93 1596.11 1433.5 1596.11 1433.5 1596.11 1433.5 1595.21 1436.07 1595.21 1437.73L1599.44 1435.31C1601.1 1435.31 1603.55 1436.1 1606.14 1436.76 1605.51 1438.09 1605.48 1439.84 1605.48 1439.84L1609.83 1437.55C1610.61 1437.67 1611.4 1437.73 1612.12 1437.73 1615.96 1437.73 1621.79 1434.86 1621.79 1433.5 1621.79 1432.14 1615.96 1429.27 1612.12 1429.27Z"/></g></g></g><g clip-path="url(#clip37)"><g clip-path="url(#clip38)"><g clip-path="url(#clip39)"><path d="M22.4585 13.4168C22.1377 13.4168 21.8752 13.1543 21.8752 12.8334 21.8752 12.5126 22.1377 12.2501 22.4585 12.2501 22.7793 12.2501 23.0418 12.5126 23.0418 12.8334 23.0418 13.1543 22.7793 13.4168 22.4585 13.4168ZM17.5001 9.91674C16.8001 9.91674 16.0418 9.97507 15.2834 10.0917L11.0834 7.87506C11.0834 7.87506 11.1126 9.56673 11.7251 10.8501 9.21673 11.4917 6.85421 12.2501 5.25004 12.2501L1.16667 9.91674C1.16667 11.5209 2.04168 14.0001 2.04168 14.0001 2.04168 14.0001 1.16667 16.4793 1.16667 18.0835L5.25004 15.7501C6.85421 15.7501 9.21673 16.5084 11.7251 17.1501 11.1126 18.4335 11.0834 20.1251 11.0834 20.1251L15.2834 17.9085C16.0418 18.0251 16.8001 18.0835 17.5001 18.0835 21.2043 18.0835 26.8335 15.3126 26.8335 14.0001 26.8335 12.6876 21.2043 9.91674 17.5001 9.91674Z" transform="matrix(1 0 0 1.0357 1601 1409)"/></g></g></g><g clip-path="url(#clip40)"><g clip-path="url(#clip41)"><g clip-path="url(#clip42)"><path d="M1629.26 1414.9C1628.93 1414.9 1628.66 1414.62 1628.66 1414.29 1628.66 1413.96 1628.93 1413.69 1629.26 1413.69 1629.59 1413.69 1629.86 1413.96 1629.86 1414.29 1629.86 1414.62 1629.59 1414.9 1629.26 1414.9ZM1624.12 1411.27C1623.4 1411.27 1622.61 1411.33 1621.83 1411.45L1617.48 1409.16C1617.48 1409.16 1617.51 1410.91 1618.14 1412.24 1615.55 1412.9 1613.1 1413.69 1611.44 1413.69L1607.21 1411.27C1607.21 1412.93 1608.11 1415.5 1608.11 1415.5 1608.11 1415.5 1607.21 1418.07 1607.21 1419.73L1611.44 1417.31C1613.1 1417.31 1615.55 1418.1 1618.14 1418.76 1617.51 1420.09 1617.48 1421.84 1617.48 1421.84L1621.83 1419.55C1622.61 1419.67 1623.4 1419.73 1624.12 1419.73 1627.96 1419.73 1633.79 1416.86 1633.79 1415.5 1633.79 1414.14 1627.96 1411.27 1624.12 1411.27Z"/></g></g></g><g clip-path="url(#clip43)"><g clip-path="url(#clip44)"><g clip-path="url(#clip45)"><path d="M1627.26 1396.9C1626.93 1396.9 1626.66 1396.62 1626.66 1396.29 1626.66 1395.96 1626.93 1395.69 1627.26 1395.69 1627.59 1395.69 1627.86 1395.96 1627.86 1396.29 1627.86 1396.62 1627.59 1396.9 1627.26 1396.9ZM1622.12 1393.27C1621.4 1393.27 1620.61 1393.33 1619.83 1393.45L1615.48 1391.16C1615.48 1391.16 1615.51 1392.91 1616.14 1394.24 1613.55 1394.9 1611.1 1395.69 1609.44 1395.69L1605.21 1393.27C1605.21 1394.93 1606.11 1397.5 1606.11 1397.5 1606.11 1397.5 1605.21 1400.07 1605.21 1401.73L1609.44 1399.31C1611.1 1399.31 1613.55 1400.1 1616.14 1400.76 1615.51 1402.09 1615.48 1403.84 1615.48 1403.84L1619.83 1401.55C1620.61 1401.67 1621.4 1401.73 1622.12 1401.73 1625.96 1401.73 1631.79 1398.86 1631.79 1397.5 1631.79 1396.14 1625.96 1393.27 1622.12 1393.27Z"/></g></g></g><g clip-path="url(#clip46)"><g clip-path="url(#clip47)"><g clip-path="url(#clip48)"><path d="M1629.26 1404.9C1628.93 1404.9 1628.66 1404.62 1628.66 1404.29 1628.66 1403.96 1628.93 1403.69 1629.26 1403.69 1629.59 1403.69 1629.86 1403.96 1629.86 1404.29 1629.86 1404.62 1629.59 1404.9 1629.26 1404.9ZM1624.12 1401.27C1623.4 1401.27 1622.61 1401.33 1621.83 1401.45L1617.48 1399.16C1617.48 1399.16 1617.51 1400.91 1618.14 1402.24 1615.55 1402.9 1613.1 1403.69 1611.44 1403.69L1607.21 1401.27C1607.21 1402.93 1608.11 1405.5 1608.11 1405.5 1608.11 1405.5 1607.21 1408.07 1607.21 1409.73L1611.44 1407.31C1613.1 1407.31 1615.55 1408.1 1618.14 1408.76 1617.51 1410.09 1617.48 1411.84 1617.48 1411.84L1621.83 1409.55C1622.61 1409.67 1623.4 1409.73 1624.12 1409.73 1627.96 1409.73 1633.79 1406.86 1633.79 1405.5 1633.79 1404.14 1627.96 1401.27 1624.12 1401.27Z"/></g></g></g><g clip-path="url(#clip49)"><g clip-path="url(#clip50)"><g clip-path="url(#clip51)"><path d="M1622.26 1388.9C1621.93 1388.9 1621.66 1388.62 1621.66 1388.29 1621.66 1387.96 1621.93 1387.69 1622.26 1387.69 1622.59 1387.69 1622.86 1387.96 1622.86 1388.29 1622.86 1388.62 1622.59 1388.9 1622.26 1388.9ZM1617.12 1385.27C1616.4 1385.27 1615.61 1385.33 1614.83 1385.45L1610.48 1383.16C1610.48 1383.16 1610.51 1384.91 1611.14 1386.24 1608.55 1386.9 1606.1 1387.69 1604.44 1387.69L1600.21 1385.27C1600.21 1386.93 1601.11 1389.5 1601.11 1389.5 1601.11 1389.5 1600.21 1392.07 1600.21 1393.73L1604.44 1391.31C1606.1 1391.31 1608.55 1392.1 1611.14 1392.76 1610.51 1394.09 1610.48 1395.84 1610.48 1395.84L1614.83 1393.55C1615.61 1393.67 1616.4 1393.73 1617.12 1393.73 1620.96 1393.73 1626.79 1390.86 1626.79 1389.5 1626.79 1388.14 1620.96 1385.27 1617.12 1385.27Z"/></g></g></g><g clip-path="url(#clip52)"><g clip-path="url(#clip53)"><g clip-path="url(#clip54)"><path d="M22.4582 13.4166C22.1374 13.4166 21.8749 13.1541 21.8749 12.8333 21.8749 12.5124 22.1374 12.2499 22.4582 12.2499 22.779 12.2499 23.0415 12.5124 23.0415 12.8333 23.0415 13.1541 22.779 13.4166 22.4582 13.4166ZM17.4999 9.91661C16.7999 9.91661 16.0416 9.97494 15.2832 10.0916L11.0833 7.87495C11.0833 7.87495 11.1124 9.56661 11.7249 10.8499 9.21661 11.4916 6.85413 12.2499 5.24997 12.2499L1.16666 9.91661C1.16666 11.5208 2.04165 13.9999 2.04165 13.9999 2.04165 13.9999 1.16666 16.4791 1.16666 18.0832L5.24997 15.7499C6.85413 15.7499 9.21661 16.5082 11.7249 17.1499 11.1124 18.4332 11.0833 20.1249 11.0833 20.1249L15.2832 17.9082C16.0416 18.0249 16.7999 18.0832 17.4999 18.0832 21.204 18.0832 26.8332 15.3124 26.8332 13.9999 26.8332 12.6874 21.204 9.91661 17.4999 9.91661Z" transform="matrix(1.03573 0 0 1 1593 1366)"/></g></g></g><g clip-path="url(#clip55)"><g clip-path="url(#clip56)"><g clip-path="url(#clip57)"><path d="M22.4585 13.4168C22.1377 13.4168 21.8752 13.1543 21.8752 12.8334 21.8752 12.5126 22.1377 12.2501 22.4585 12.2501 22.7793 12.2501 23.0418 12.5126 23.0418 12.8334 23.0418 13.1543 22.7793 13.4168 22.4585 13.4168ZM17.5001 9.91674C16.8001 9.91674 16.0418 9.97507 15.2834 10.0917L11.0834 7.87506C11.0834 7.87506 11.1126 9.56673 11.7251 10.8501 9.21673 11.4917 6.85421 12.2501 5.25004 12.2501L1.16667 9.91674C1.16667 11.5209 2.04168 14.0001 2.04168 14.0001 2.04168 14.0001 1.16667 16.4793 1.16667 18.0835L5.25004 15.7501C6.85421 15.7501 9.21673 16.5084 11.7251 17.1501 11.1126 18.4335 11.0834 20.1251 11.0834 20.1251L15.2834 17.9085C16.0418 18.0251 16.8001 18.0835 17.5001 18.0835 21.2043 18.0835 26.8335 15.3126 26.8335 14.0001 26.8335 12.6876 21.2043 9.91674 17.5001 9.91674Z" transform="matrix(1 0 0 1.0357 1581 1357)"/></g></g></g><g clip-path="url(#clip58)"><g clip-path="url(#clip59)"><g clip-path="url(#clip60)"><path d="M22.4582 13.4166C22.1374 13.4166 21.8749 13.1541 21.8749 12.8333 21.8749 12.5124 22.1374 12.2499 22.4582 12.2499 22.779 12.2499 23.0415 12.5124 23.0415 12.8333 23.0415 13.1541 22.779 13.4166 22.4582 13.4166ZM17.4999 9.91661C16.7999 9.91661 16.0416 9.97494 15.2832 10.0916L11.0833 7.87495C11.0833 7.87495 11.1124 9.56661 11.7249 10.8499 9.21661 11.4916 6.85413 12.2499 5.24997 12.2499L1.16666 9.91661C1.16666 11.5208 2.04165 13.9999 2.04165 13.9999 2.04165 13.9999 1.16666 16.4791 1.16666 18.0832L5.24997 15.7499C6.85413 15.7499 9.21661 16.5082 11.7249 17.1499 11.1124 18.4332 11.0833 20.1249 11.0833 20.1249L15.2832 17.9082C16.0416 18.0249 16.7999 18.0832 17.4999 18.0832 21.204 18.0832 26.8332 15.3124 26.8332 13.9999 26.8332 12.6874 21.204 9.91661 17.4999 9.91661Z" transform="matrix(1.03572 0 0 1 1562 1355)"/></g></g></g><g clip-path="url(#clip61)"><g clip-path="url(#clip62)"><g clip-path="url(#clip63)"><path d="M22.4582 13.4166C22.1374 13.4166 21.8749 13.1541 21.8749 12.8333 21.8749 12.5124 22.1374 12.2499 22.4582 12.2499 22.779 12.2499 23.0415 12.5124 23.0415 12.8333 23.0415 13.1541 22.779 13.4166 22.4582 13.4166ZM17.4999 9.91661C16.7999 9.91661 16.0416 9.97494 15.2832 10.0916L11.0833 7.87495C11.0833 7.87495 11.1124 9.56661 11.7249 10.8499 9.21661 11.4916 6.85413 12.2499 5.24997 12.2499L1.16666 9.91661C1.16666 11.5208 2.04165 13.9999 2.04165 13.9999 2.04165 13.9999 1.16666 16.4791 1.16666 18.0832L5.24997 15.7499C6.85413 15.7499 9.21661 16.5082 11.7249 17.1499 11.1124 18.4332 11.0833 20.1249 11.0833 20.1249L15.2832 17.9082C16.0416 18.0249 16.7999 18.0832 17.4999 18.0832 21.204 18.0832 26.8332 15.3124 26.8332 13.9999 26.8332 12.6874 21.204 9.91661 17.4999 9.91661Z" transform="matrix(1 0 0 1.03572 1542 1357)"/></g></g></g><g clip-path="url(#clip64)"><g clip-path="url(#clip65)"><g clip-path="url(#clip66)"><path d="M22.4582 13.4166C22.1374 13.4166 21.8749 13.1541 21.8749 12.8333 21.8749 12.5124 22.1374 12.2499 22.4582 12.2499 22.779 12.2499 23.0415 12.5124 23.0415 12.8333 23.0415 13.1541 22.779 13.4166 22.4582 13.4166ZM17.4999 9.91661C16.7999 9.91661 16.0416 9.97494 15.2832 10.0916L11.0833 7.87495C11.0833 7.87495 11.1124 9.56661 11.7249 10.8499 9.21661 11.4916 6.85413 12.2499 5.24997 12.2499L1.16666 9.91661C1.16666 11.5208 2.04165 13.9999 2.04165 13.9999 2.04165 13.9999 1.16666 16.4791 1.16666 18.0832L5.24997 15.7499C6.85413 15.7499 9.21661 16.5082 11.7249 17.1499 11.1124 18.4332 11.0833 20.1249 11.0833 20.1249L15.2832 17.9082C16.0416 18.0249 16.7999 18.0832 17.4999 18.0832 21.204 18.0832 26.8332 15.3124 26.8332 13.9999 26.8332 12.6874 21.204 9.91661 17.4999 9.91661Z" transform="matrix(1.03572 0 0 1 1532 1366)"/></g></g></g><g clip-path="url(#clip67)"><g clip-path="url(#clip68)"><g clip-path="url(#clip69)"><path d="M1546.26 1389.9C1545.93 1389.9 1545.66 1389.62 1545.66 1389.29 1545.66 1388.96 1545.93 1388.69 1546.26 1388.69 1546.59 1388.69 1546.86 1388.96 1546.86 1389.29 1546.86 1389.62 1546.59 1389.9 1546.26 1389.9ZM1541.12 1386.27C1540.4 1386.27 1539.61 1386.33 1538.83 1386.45L1534.48 1384.16C1534.48 1384.16 1534.51 1385.91 1535.14 1387.24 1532.55 1387.9 1530.1 1388.69 1528.44 1388.69L1524.21 1386.27C1524.21 1387.93 1525.11 1390.5 1525.11 1390.5 1525.11 1390.5 1524.21 1393.07 1524.21 1394.73L1528.44 1392.31C1530.1 1392.31 1532.55 1393.1 1535.14 1393.76 1534.51 1395.09 1534.48 1396.84 1534.48 1396.84L1538.83 1394.55C1539.61 1394.67 1540.4 1394.73 1541.12 1394.73 1544.96 1394.73 1550.79 1391.86 1550.79 1390.5 1550.79 1389.14 1544.96 1386.27 1541.12 1386.27Z"/></g></g></g><g clip-path="url(#clip70)"><g clip-path="url(#clip71)"><g clip-path="url(#clip72)"><path d="M22.4582 13.4166C22.1374 13.4166 21.8749 13.1541 21.8749 12.8333 21.8749 12.5124 22.1374 12.2499 22.4582 12.2499 22.779 12.2499 23.0415 12.5124 23.0415 12.8333 23.0415 13.1541 22.779 13.4166 22.4582 13.4166ZM17.4999 9.91661C16.7999 9.91661 16.0416 9.97494 15.2832 10.0916L11.0833 7.87495C11.0833 7.87495 11.1124 9.56661 11.7249 10.8499 9.21661 11.4916 6.85413 12.2499 5.24997 12.2499L1.16666 9.91661C1.16666 11.5208 2.04165 13.9999 2.04165 13.9999 2.04165 13.9999 1.16666 16.4791 1.16666 18.0832L5.24997 15.7499C6.85413 15.7499 9.21661 16.5082 11.7249 17.1499 11.1124 18.4332 11.0833 20.1249 11.0833 20.1249L15.2832 17.9082C16.0416 18.0249 16.7999 18.0832 17.4999 18.0832 21.204 18.0832 26.8332 15.3124 26.8332 13.9999 26.8332 12.6874 21.204 9.91661 17.4999 9.91661Z" transform="matrix(1.03572 0 0 1 1556 1365)"/></g></g></g><g clip-path="url(#clip73)"><g clip-path="url(#clip74)"><g clip-path="url(#clip75)"><path d="M22.4582 13.4166C22.1374 13.4166 21.8749 13.1541 21.8749 12.8333 21.8749 12.5124 22.1374 12.2499 22.4582 12.2499 22.779 12.2499 23.0415 12.5124 23.0415 12.8333 23.0415 13.1541 22.779 13.4166 22.4582 13.4166ZM17.4999 9.91661C16.7999 9.91661 16.0416 9.97494 15.2832 10.0916L11.0833 7.87495C11.0833 7.87495 11.1124 9.56661 11.7249 10.8499 9.21661 11.4916 6.85413 12.2499 5.24997 12.2499L1.16666 9.91661C1.16666 11.5208 2.04165 13.9999 2.04165 13.9999 2.04165 13.9999 1.16666 16.4791 1.16666 18.0832L5.24997 15.7499C6.85413 15.7499 9.21661 16.5082 11.7249 17.1499 11.1124 18.4332 11.0833 20.1249 11.0833 20.1249L15.2832 17.9082C16.0416 18.0249 16.7999 18.0832 17.4999 18.0832 21.204 18.0832 26.8332 15.3124 26.8332 13.9999 26.8332 12.6874 21.204 9.91661 17.4999 9.91661Z" transform="matrix(1.03573 0 0 1 1571 1375)"/></g></g></g><g clip-path="url(#clip76)"><g clip-path="url(#clip77)"><g clip-path="url(#clip78)"><path d="M23.2603 13.8958C22.928 13.8958 22.6561 13.6239 22.6561 13.2916 22.6561 12.9593 22.928 12.6874 23.2603 12.6874 23.5926 12.6874 23.8645 12.9593 23.8645 13.2916 23.8645 13.6239 23.5926 13.8958 23.2603 13.8958ZM18.1249 10.2708C17.3999 10.2708 16.6145 10.3312 15.8291 10.452L11.4791 8.15621C11.4791 8.15621 11.5093 9.90829 12.1437 11.2374 9.54579 11.902 7.09893 12.6874 5.43748 12.6874L1.20833 10.2708C1.20833 11.9322 2.11457 14.4999 2.11457 14.4999 2.11457 14.4999 1.20833 17.0676 1.20833 18.7291L5.43748 16.3124C7.09893 16.3124 9.54579 17.0978 12.1437 17.7624 11.5093 19.0916 11.4791 20.8437 11.4791 20.8437L15.8291 18.5478C16.6145 18.6687 17.3999 18.7291 18.1249 18.7291 21.9614 18.7291 27.7915 15.8593 27.7915 14.4999 27.7915 13.1406 21.9614 10.2708 18.1249 10.2708Z" transform="matrix(1.00001 0 0 1 1547 1376)"/></g></g></g><g clip-path="url(#clip79)"><g clip-path="url(#clip80)"><g clip-path="url(#clip81)"><path d="M23.2603 13.8958C22.928 13.8958 22.6561 13.6239 22.6561 13.2916 22.6561 12.9593 22.928 12.6874 23.2603 12.6874 23.5926 12.6874 23.8645 12.9593 23.8645 13.2916 23.8645 13.6239 23.5926 13.8958 23.2603 13.8958ZM18.1249 10.2708C17.3999 10.2708 16.6145 10.3312 15.8291 10.452L11.4791 8.15621C11.4791 8.15621 11.5093 9.90829 12.1437 11.2374 9.54579 11.902 7.09893 12.6874 5.43748 12.6874L1.20833 10.2708C1.20833 11.9322 2.11457 14.4999 2.11457 14.4999 2.11457 14.4999 1.20833 17.0676 1.20833 18.7291L5.43748 16.3124C7.09893 16.3124 9.54579 17.0978 12.1437 17.7624 11.5093 19.0916 11.4791 20.8437 11.4791 20.8437L15.8291 18.5478C16.6145 18.6687 17.3999 18.7291 18.1249 18.7291 21.9614 18.7291 27.7915 15.8593 27.7915 14.4999 27.7915 13.1406 21.9614 10.2708 18.1249 10.2708Z" transform="matrix(1.00001 0 0 1 1579 1386)"/></g></g></g><g clip-path="url(#clip82)"><g clip-path="url(#clip83)"><g clip-path="url(#clip84)"><path d="M23.2603 13.8958C22.928 13.8958 22.6561 13.6239 22.6561 13.2916 22.6561 12.9593 22.928 12.6874 23.2603 12.6874 23.5926 12.6874 23.8645 12.9593 23.8645 13.2916 23.8645 13.6239 23.5926 13.8958 23.2603 13.8958ZM18.1249 10.2708C17.3999 10.2708 16.6145 10.3312 15.8291 10.452L11.4791 8.15621C11.4791 8.15621 11.5093 9.90829 12.1437 11.2374 9.54579 11.902 7.09893 12.6874 5.43748 12.6874L1.20833 10.2708C1.20833 11.9322 2.11457 14.4999 2.11457 14.4999 2.11457 14.4999 1.20833 17.0676 1.20833 18.7291L5.43748 16.3124C7.09893 16.3124 9.54579 17.0978 12.1437 17.7624 11.5093 19.0916 11.4791 20.8437 11.4791 20.8437L15.8291 18.5478C16.6145 18.6687 17.3999 18.7291 18.1249 18.7291 21.9614 18.7291 27.7915 15.8593 27.7915 14.4999 27.7915 13.1406 21.9614 10.2708 18.1249 10.2708Z" transform="matrix(1.00001 0 0 1 1558 1396)"/></g></g></g><g clip-path="url(#clip85)"><g clip-path="url(#clip86)"><g clip-path="url(#clip87)"><path d="M23.2603 13.8958C22.928 13.8958 22.6561 13.6239 22.6561 13.2916 22.6561 12.9593 22.928 12.6874 23.2603 12.6874 23.5926 12.6874 23.8645 12.9593 23.8645 13.2916 23.8645 13.6239 23.5926 13.8958 23.2603 13.8958ZM18.1249 10.2708C17.3999 10.2708 16.6145 10.3312 15.8291 10.452L11.4791 8.15621C11.4791 8.15621 11.5093 9.90829 12.1437 11.2374 9.54579 11.902 7.09893 12.6874 5.43748 12.6874L1.20833 10.2708C1.20833 11.9322 2.11457 14.4999 2.11457 14.4999 2.11457 14.4999 1.20833 17.0676 1.20833 18.7291L5.43748 16.3124C7.09893 16.3124 9.54579 17.0978 12.1437 17.7624 11.5093 19.0916 11.4791 20.8437 11.4791 20.8437L15.8291 18.5478C16.6145 18.6687 17.3999 18.7291 18.1249 18.7291 21.9614 18.7291 27.7915 15.8593 27.7915 14.4999 27.7915 13.1406 21.9614 10.2708 18.1249 10.2708Z" transform="matrix(1.00001 0 0 1 1582 1397)"/></g></g></g><g clip-path="url(#clip88)"><g clip-path="url(#clip89)"><g clip-path="url(#clip90)"><path d="M1596.26 1420.9C1595.93 1420.9 1595.66 1420.62 1595.66 1420.29 1595.66 1419.96 1595.93 1419.69 1596.26 1419.69 1596.59 1419.69 1596.86 1419.96 1596.86 1420.29 1596.86 1420.62 1596.59 1420.9 1596.26 1420.9ZM1591.12 1417.27C1590.4 1417.27 1589.61 1417.33 1588.83 1417.45L1584.48 1415.16C1584.48 1415.16 1584.51 1416.91 1585.14 1418.24 1582.55 1418.9 1580.1 1419.69 1578.44 1419.69L1574.21 1417.27C1574.21 1418.93 1575.11 1421.5 1575.11 1421.5 1575.11 1421.5 1574.21 1424.07 1574.21 1425.73L1578.44 1423.31C1580.1 1423.31 1582.55 1424.1 1585.14 1424.76 1584.51 1426.09 1584.48 1427.84 1584.48 1427.84L1588.83 1425.55C1589.61 1425.67 1590.4 1425.73 1591.12 1425.73 1594.96 1425.73 1600.79 1422.86 1600.79 1421.5 1600.79 1420.14 1594.96 1417.27 1591.12 1417.27Z"/></g></g></g><path d="M1989 841 1989 865.063" stroke="#4472C4" stroke-width="2.29167" stroke-miterlimit="8" fill="none" fill-rule="evenodd"/><path d="M1996 843 1996 867.062" stroke="#4472C4" stroke-width="2.29167" stroke-miterlimit="8" fill="none" fill-rule="evenodd"/><path d="M2003 844 2003 868.062" stroke="#4472C4" stroke-width="2.29167" stroke-miterlimit="8" fill="none" fill-rule="evenodd"/><path d="M2010 849 2010 873.063" stroke="#4472C4" stroke-width="2.29167" stroke-miterlimit="8" fill="none" fill-rule="evenodd"/><path d="M2019 852 2019 876.063" stroke="#4472C4" stroke-width="2.29167" stroke-miterlimit="8" fill="none" fill-rule="evenodd"/><path d="M2027 855 2027 879.062" stroke="#4472C4" stroke-width="2.29167" stroke-miterlimit="8" fill="none" fill-rule="evenodd"/><path d="M2035 857 2035 881.062" stroke="#4472C4" stroke-width="2.29167" stroke-miterlimit="8" fill="none" fill-rule="evenodd"/><path d="M2042 859 2042 883.063" stroke="#4472C4" stroke-width="2.29167" stroke-miterlimit="8" fill="none" fill-rule="evenodd"/><path d="M2049 861 2049 885.063" stroke="#4472C4" stroke-width="2.29167" stroke-miterlimit="8" fill="none" fill-rule="evenodd"/><path d="M2056 863 2056 887.063" stroke="#4472C4" stroke-width="2.29167" stroke-miterlimit="8" fill="none" fill-rule="evenodd"/><path d="M2064 865 2064 889.062" stroke="#4472C4" stroke-width="2.29167" stroke-miterlimit="8" fill="none" fill-rule="evenodd"/><path d="M2071 867 2071 891.062" stroke="#4472C4" stroke-width="2.29167" stroke-miterlimit="8" fill="none" fill-rule="evenodd"/><path d="M2077 871 2077 895.063" stroke="#4472C4" stroke-width="2.29167" stroke-miterlimit="8" fill="none" fill-rule="evenodd"/><path d="M2084 873 2084 897.063" stroke="#4472C4" stroke-width="2.29167" stroke-miterlimit="8" fill="none" fill-rule="evenodd"/><path d="M2091 876 2091 900.062" stroke="#4472C4" stroke-width="2.29167" stroke-miterlimit="8" fill="none" fill-rule="evenodd"/><path d="M2099 877 2099 901.062" stroke="#4472C4" stroke-width="2.29167" stroke-miterlimit="8" fill="none" fill-rule="evenodd"/><path d="M2107 879 2107 903.062" stroke="#4472C4" stroke-width="2.29167" stroke-miterlimit="8" fill="none" fill-rule="evenodd"/><path d="M2114 880 2114 904.062" stroke="#4472C4" stroke-width="2.29167" stroke-miterlimit="8" fill="none" fill-rule="evenodd"/><path d="M2121 883 2121 907.063" stroke="#4472C4" stroke-width="2.29167" stroke-miterlimit="8" fill="none" fill-rule="evenodd"/><path d="M2128 884 2128 908.063" stroke="#4472C4" stroke-width="2.29167" stroke-miterlimit="8" fill="none" fill-rule="evenodd"/><path d="M2136 885 2136 909.063" stroke="#4472C4" stroke-width="2.29167" stroke-miterlimit="8" fill="none" fill-rule="evenodd"/><path d="M2144 885 2144 909.063" stroke="#4472C4" stroke-width="2.29167" stroke-miterlimit="8" fill="none" fill-rule="evenodd"/><path d="M2151 885 2151 909.063" stroke="#4472C4" stroke-width="2.29167" stroke-miterlimit="8" fill="none" fill-rule="evenodd"/><path d="M2159 885 2159 909.063" stroke="#4472C4" stroke-width="2.29167" stroke-miterlimit="8" fill="none" fill-rule="evenodd"/><path d="M2166 885 2166 909.063" stroke="#4472C4" stroke-width="2.29167" stroke-miterlimit="8" fill="none" fill-rule="evenodd"/><path d="M2174 882 2174 906.063" stroke="#4472C4" stroke-width="2.29167" stroke-miterlimit="8" fill="none" fill-rule="evenodd"/><path d="M2181 878 2181 902.062" stroke="#4472C4" stroke-width="2.29167" stroke-miterlimit="8" fill="none" fill-rule="evenodd"/><path d="M2188 873 2188 897.063" stroke="#4472C4" stroke-width="2.29167" stroke-miterlimit="8" fill="none" fill-rule="evenodd"/><path d="M2195 864 2195 888.062" stroke="#4472C4" stroke-width="2.29167" stroke-miterlimit="8" fill="none" fill-rule="evenodd"/><path d="M2202 855 2202 879.062" stroke="#4472C4" stroke-width="2.29167" stroke-miterlimit="8" fill="none" fill-rule="evenodd"/><path d="M2207 837 2207 861.063" stroke="#4472C4" stroke-width="2.29167" stroke-miterlimit="8" fill="none" fill-rule="evenodd"/><path d="M2213 819 2213 843.063" stroke="#4472C4" stroke-width="2.29167" stroke-miterlimit="8" fill="none" fill-rule="evenodd"/><path d="M2219 816 2219 840.063" stroke="#4472C4" stroke-width="2.29167" stroke-miterlimit="8" fill="none" fill-rule="evenodd"/><path d="M2224 816 2224 840.063" stroke="#4472C4" stroke-width="2.29167" stroke-miterlimit="8" fill="none" fill-rule="evenodd"/><path d="M2231 819 2231 843.063" stroke="#4472C4" stroke-width="2.29167" stroke-miterlimit="8" fill="none" fill-rule="evenodd"/><path d="M2237 828 2237 852.063" stroke="#4472C4" stroke-width="2.29167" stroke-miterlimit="8" fill="none" fill-rule="evenodd"/><path d="M2243 843 2243 867.062" stroke="#4472C4" stroke-width="2.29167" stroke-miterlimit="8" fill="none" fill-rule="evenodd"/><path d="M2249 855 2249 879.062" stroke="#4472C4" stroke-width="2.29167" stroke-miterlimit="8" fill="none" fill-rule="evenodd"/><path d="M2255 866 2255 890.062" stroke="#4472C4" stroke-width="2.29167" stroke-miterlimit="8" fill="none" fill-rule="evenodd"/><path d="M2261 873 2261 897.063" stroke="#4472C4" stroke-width="2.29167" stroke-miterlimit="8" fill="none" fill-rule="evenodd"/><path d="M2268 879 2268 903.062" stroke="#4472C4" stroke-width="2.29167" stroke-miterlimit="8" fill="none" fill-rule="evenodd"/><path d="M2274 882 2274 906.063" stroke="#4472C4" stroke-width="2.29167" stroke-miterlimit="8" fill="none" fill-rule="evenodd"/><path d="M2281 885 2281 909.063" stroke="#4472C4" stroke-width="2.29167" stroke-miterlimit="8" fill="none" fill-rule="evenodd"/><path d="M2288 888 2288 912.062" stroke="#4472C4" stroke-width="2.29167" stroke-miterlimit="8" fill="none" fill-rule="evenodd"/><path d="M2296 890 2296 914.062" stroke="#4472C4" stroke-width="2.29167" stroke-miterlimit="8" fill="none" fill-rule="evenodd"/><path d="M2303 891 2303 915.062" stroke="#4472C4" stroke-width="2.29167" stroke-miterlimit="8" fill="none" fill-rule="evenodd"/><path d="M2310 892 2310 916.063" stroke="#4472C4" stroke-width="2.29167" stroke-miterlimit="8" fill="none" fill-rule="evenodd"/><path d="M2317 892 2317 916.063" stroke="#4472C4" stroke-width="2.29167" stroke-miterlimit="8" fill="none" fill-rule="evenodd"/><path d="M2324 894 2324 918.063" stroke="#4472C4" stroke-width="2.29167" stroke-miterlimit="8" fill="none" fill-rule="evenodd"/><path d="M2332 894 2332 918.063" stroke="#4472C4" stroke-width="2.29167" stroke-miterlimit="8" fill="none" fill-rule="evenodd"/><path d="M2339 894 2339 918.063" stroke="#4472C4" stroke-width="2.29167" stroke-miterlimit="8" fill="none" fill-rule="evenodd"/><path d="M2345 894 2345 918.063" stroke="#4472C4" stroke-width="2.29167" stroke-miterlimit="8" fill="none" fill-rule="evenodd"/><path d="M2352 894 2352 918.063" stroke="#4472C4" stroke-width="2.29167" stroke-miterlimit="8" fill="none" fill-rule="evenodd"/><path d="M2358 894 2358 918.063" stroke="#4472C4" stroke-width="2.29167" stroke-miterlimit="8" fill="none" fill-rule="evenodd"/><path d="M2364 894 2364 918.063" stroke="#4472C4" stroke-width="2.29167" stroke-miterlimit="8" fill="none" fill-rule="evenodd"/><path d="M2121 603 2121 627.062" stroke="#4472C4" stroke-width="2.29167" stroke-miterlimit="8" fill="none" fill-rule="evenodd"/><path d="M2128 599 2128 635.01" stroke="#4472C4" stroke-width="2.29167" stroke-miterlimit="8" fill="none" fill-rule="evenodd"/><path d="M2136 594 2136 642.209" stroke="#4472C4" stroke-width="2.29167" stroke-miterlimit="8" fill="none" fill-rule="evenodd"/><path d="M2143 587 2143 646.424" stroke="#4472C4" stroke-width="2.29167" stroke-miterlimit="8" fill="none" fill-rule="evenodd"/><path d="M2151 580 2151 651.948" stroke="#4472C4" stroke-width="2.29167" stroke-miterlimit="8" fill="none" fill-rule="evenodd"/><path d="M2159 576 2159 656.789" stroke="#4472C4" stroke-width="2.29167" stroke-miterlimit="8" fill="none" fill-rule="evenodd"/><path d="M2170 576 2170 663.541" stroke="#4472C4" stroke-width="2.29167" stroke-miterlimit="8" fill="none" fill-rule="evenodd"/><path d="M2178 574 2178 661.541" stroke="#4472C4" stroke-width="2.29167" stroke-miterlimit="8" fill="none" fill-rule="evenodd"/><path d="M2187 575 2187 662.541" stroke="#4472C4" stroke-width="2.29167" stroke-miterlimit="8" fill="none" fill-rule="evenodd"/><path d="M2195 575 2195 662.541" stroke="#4472C4" stroke-width="2.29167" stroke-miterlimit="8" fill="none" fill-rule="evenodd"/><path d="M2205 576 2205 657.649" stroke="#4472C4" stroke-width="2.29167" stroke-miterlimit="8" fill="none" fill-rule="evenodd"/><path d="M2214 584 2214 653.384" stroke="#4472C4" stroke-width="2.29167" stroke-miterlimit="8" fill="none" fill-rule="evenodd"/><path d="M2224 590 2224 648.526" stroke="#4472C4" stroke-width="2.29167" stroke-miterlimit="8" fill="none" fill-rule="evenodd"/><path d="M2230 599 2230 638.447" stroke="#4472C4" stroke-width="2.29167" stroke-miterlimit="8" fill="none" fill-rule="evenodd"/><path d="M2237 607 2237 631.842" stroke="#4472C4" stroke-width="2.29167" stroke-miterlimit="8" fill="none" fill-rule="evenodd"/><path d="M1495.5 1161.5C1495.5 1157.08 1526.39 1153.5 1564.5 1153.5 1602.61 1153.5 1633.5 1157.08 1633.5 1161.5 1633.5 1165.92 1602.61 1169.5 1564.5 1169.5 1526.39 1169.5 1495.5 1165.92 1495.5 1161.5Z" stroke="#A6A6A6" stroke-width="4.58333" stroke-miterlimit="8" fill="none" fill-rule="evenodd"/><text font-family="LM Roman 10,LM Roman 10_MSFontService,sans-serif" font-weight="400" font-size="46" transform="matrix(1 0 0 1 1508.8 1351)">School<tspan font-size="46" x="147.31" y="-173">Pulse</tspan><tspan font-size="46" x="-16.3972" y="389">Seabed</tspan><tspan font-size="46" x="-57.6714" y="-504">Transducer</tspan><tspan font-size="46" x="-62.6221" y="-630">Transmitter</tspan><tspan font-size="46" x="-6.86963" y="-756">Timer</tspan><tspan font-size="46" x="610.382" y="-918">Display</tspan></text><text font-family="LM Roman 10,LM Roman 10_MSFontService,sans-serif" font-weight="400" font-size="46" transform="translate(2115.13 960)">Seabed</text><text font-family="LM Roman 10,LM Roman 10_MSFontService,sans-serif" font-weight="400" font-size="46" transform="matrix(1 0 0 1 2122.59 564)">School</text><path d="M1565.15 620 1565.15 644.983 1562.85 644.983 1562.85 620ZM1577.75 640.399 1564 667.9 1550.25 640.4Z" fill="#4472C4"/><path d="M1566.15 749 1566.15 773.983 1563.85 773.983 1563.85 749ZM1578.75 769.399 1565 796.899 1551.25 769.4Z" fill="#4472C4"/><path d="M2187.85 1085.01 2187.85 1036.92 2190.15 1036.92 2190.15 1085.01ZM2175.25 1041.5 2189 1014 2202.75 1041.5Z" fill="#4472C4"/><path d="M1714 829.854 1835.92 829.854 1835.92 1130 1834.78 1128.86 1932.64 1128.86 1932.64 1131.15 1833.63 1131.15 1833.63 831 1834.78 832.146 1714 832.146ZM1928.05 1116.25 1955.55 1130 1928.05 1143.75Z" fill="#4472C4"/><text font-family="LM Roman 10,LM Roman 10_MSFontService,sans-serif" font-weight="400" font-size="46" transform="matrix(6.12323e-17 1 -1 6.12323e-17 2472.03 612)">Range <tspan font-size="46" x="140" y="8.57253e-15">-</tspan><tspan font-size="46" x="156" y="9.55225e-15">&gt;</tspan></text><path d="M1648 577.854 1857.38 577.854 1857.38 580.146 1648 580.146ZM1852.8 565.25 1880.3 579 1852.8 592.75Z" fill="#4472C4"/><text font-family="LM Roman 10,LM Roman 10_MSFontService,sans-serif" font-weight="400" font-size="46" transform="matrix(1 0 0 1 2251.9 1048)">Time <tspan font-size="46" x="120.313" y="0">-</tspan>&gt;</text></g></svg>