<svg width="1386" height="2160" xmlns="http://www.w3.org/2000/svg" xmlns:xlink="http://www.w3.org/1999/xlink" overflow="hidden"><defs><clipPath id="clip0"><rect x="1084" y="4" width="1386" height="2160"/></clipPath></defs><g clip-path="url(#clip0)" transform="translate(-1084 -4)"><path d="M1.14577-0.0117864 2.5023 131.858 0.210756 131.882-1.14577 0.0117864ZM15.0587 127.145 1.59226 154.785-12.4399 127.428Z" transform="matrix(-1 0 0 1 1619.59 1850)"/><rect x="1265.5" y="435.5" width="312" height="156" stroke="#000000" stroke-width="4.58333" stroke-miterlimit="8" fill="#00B050"/><text fill="#FFFFFF" font-family="LM Roman 10,LM Roman 10_MSFontService,sans-serif" font-weight="700" font-size="30" transform="matrix(1 0 0 1 1333.43 505)">Extract crop <tspan font-size="30" x="-22.0687" y="36">from Sv dataset</tspan></text><path d="M1422.15 590.973 1422.48 605.283 1420.19 605.336 1419.85 591.026ZM1434.97 600.41 1421.86 628.22 1407.48 601.045Z"/><rect x="1266.5" y="628.5" width="312" height="192" stroke="#000000" stroke-width="4.58333" stroke-miterlimit="8" fill="#00B050"/><text fill="#FFFFFF" font-family="LM Roman 10,LM Roman 10_MSFontService,sans-serif" font-weight="700" font-size="30" transform="matrix(1 0 0 1 1406.46 663)">If:</text><path d="M1406.76 666.608 1436.76 666.608 1436.76 667.608 1406.76 667.608Z" fill="#FFFFFF" fill-rule="evenodd"/><text fill="#FFFFFF" font-family="LM Roman 10,LM Roman 10_MSFontService,sans-serif" font-weight="700" font-size="30" transform="matrix(1 0 0 1 1335.12 699)">-<tspan font-size="30" x="21.7709" y="0">Containing </tspan><tspan font-size="30" x="-12.3063" y="36">missing values</tspan><tspan font-size="30" x="63.5938" y="72">Or:</tspan><tspan font-size="30" x="-12.8792" y="107">-</tspan><tspan font-size="30" x="8.89172" y="107">Only bottom</tspan></text><path d="M1265.13 896.844 1260.07 896.655 1254.91 895.954 1249.83 894.874 1244.81 893.413 1239.8 891.573 1234.83 889.346 1225.17 883.786 1215.82 876.965 1206.86 868.889 1198.42 859.689 1190.55 849.555 1183.25 838.545 1176.71 826.78 1170.99 814.328 1166.08 801.311 1162.18 787.852 1159.28 774.057 1158.81 768.885 1161.1 768.677 1161.56 773.783 1161.54 773.651 1164.42 787.339 1164.39 787.255 1168.27 800.63 1168.24 800.545 1173.12 813.483 1173.09 813.408 1178.77 825.783 1178.73 825.705 1185.23 837.392 1185.19 837.316 1192.44 848.254 1192.39 848.184 1200.2 858.246 1200.14 858.174 1208.51 867.299 1208.44 867.223 1217.31 875.223 1217.22 875.149 1226.47 881.899 1226.37 881.831 1235.93 887.331 1235.83 887.279 1240.7 889.466 1240.63 889.436 1245.56 891.249 1245.49 891.224 1250.43 892.661 1250.34 892.641 1255.34 893.703 1255.26 893.689 1260.32 894.376 1260.21 894.367 1265.21 894.554ZM1146.65 774.531 1157.98 745.949 1174.05 772.163Z"/><path d="M1505.08 937.857 2110.22 982.925 2110.05 985.211 1504.91 940.143ZM2106.59 970.016 2132.99 985.77 2104.54 997.44Z"/><rect x="1977.5" y="986.5" width="311" height="156" stroke="#000000" stroke-width="4.58333" stroke-miterlimit="8" fill="#FF0000"/><text font-family="LM Roman 10,LM Roman 10_MSFontService,sans-serif" font-weight="700" font-size="30" transform="matrix(1 0 0 1 2046.91 1039)">Extract  Sv-<tspan font-size="30" x="-9.16663" y="36">corresponding </tspan><tspan font-size="30" x="-21.7709" y="72">crop from mask</tspan></text><rect x="1621.5" y="989.5" width="312" height="156" stroke="#000000" stroke-width="4.58333" stroke-miterlimit="8" fill="#FFD966"/><text font-family="LM Roman 10,LM Roman 10_MSFontService,sans-serif" font-weight="700" font-size="30" transform="matrix(1 0 0 1 1691.02 1041)">Extract  Sv<tspan font-size="30" x="160.417" y="0">-</tspan><tspan font-size="30" x="-9.16663" y="36">corresponding </tspan><tspan font-size="30" x="-25.2083" y="72">crop from labels</tspan></text><path d="M1505.2 937.873 1754.76 983.035 1754.35 985.29 1504.8 940.128ZM1752.49 969.816 1777.1 988.244 1747.59 996.877Z"/><rect x="1621.5" y="1241.5" width="312" height="156" stroke="#000000" stroke-width="4.58333" stroke-miterlimit="8" fill="#FFD966"/><text font-family="LM Roman 10,LM Roman 10_MSFontService,sans-serif" font-weight="700" font-size="30" transform="matrix(1 0 0 1 1707.92 1276)">Threshold <tspan font-size="30" x="-21.1979" y="36">probabilities:</tspan><tspan font-size="30" x="-44.6875" y="72">p(class) &lt; 0.8 = </tspan><tspan font-size="30" x="17.7605" y="108">0 else 1</tspan></text><path d="M1778.15 1145 1778.15 1218.73 1775.85 1218.73 1775.85 1145ZM1790.75 1214.14 1777 1241.64 1763.25 1214.14Z"/><rect x="1621.5" y="1494.5" width="312" height="156" stroke="#000000" stroke-width="4.58333" stroke-miterlimit="8" fill="#FFD966"/><text font-family="LM Roman 10,LM Roman 10_MSFontService,sans-serif" font-weight="700" font-size="30" transform="matrix(1 0 0 1 1696.19 1546)">Delete class <tspan font-size="30" x="-39.2562" y="36">predictions below </tspan><tspan font-size="30" x="28.3479" y="72">seafloor</tspan></text><path d="M2134.13 1142.02 2133.81 1162.16 2133 1182.31 2131.56 1202.35 2129.62 1222.25 2127.18 1242.03 2124.24 1261.62 2120.79 1280.96 2116.91 1299.99 2112.59 1318.77 2107.84 1337.11 2102.7 1355.14 2097.13 1372.67 2091.25 1389.76 2084.99 1406.36 2078.41 1422.39 2071.52 1437.86 2064.32 1452.64 2056.86 1466.8 2049.15 1480.28 2041.19 1492.94 2032.97 1504.86 2024.56 1515.96 2015.96 1526.2 2007.23 1535.5 1998.3 1543.86 1989.24 1551.29 1980.09 1557.66 1970.82 1562.96 1961.4 1567.22 1955.73 1568.44 1955.25 1566.2 1960.8 1565 1960.57 1565.08 1969.82 1560.89 1969.73 1560.94 1978.91 1555.69 1978.83 1555.75 1987.89 1549.43 1987.82 1549.49 1996.82 1542.11 1996.76 1542.16 2005.64 1533.85 2005.58 1533.9 2014.27 1524.65 2014.23 1524.7 2022.79 1514.51 2022.76 1514.56 2031.13 1503.5 2031.1 1503.54 2039.29 1491.66 2039.26 1491.7 2047.2 1479.08 2047.17 1479.12 2054.86 1465.68 2054.84 1465.72 2062.28 1451.59 2062.26 1451.62 2069.45 1436.87 2069.43 1436.91 2076.31 1421.47 2076.3 1421.5 2082.86 1405.5 2082.85 1405.53 2089.1 1388.97 2089.09 1389 2094.96 1371.94 2094.95 1371.97 2100.51 1354.47 2100.5 1354.5 2105.63 1336.5 2105.62 1336.52 2110.37 1318.21 2110.36 1318.24 2114.68 1299.49 2114.67 1299.52 2118.55 1280.52 2118.54 1280.55 2121.98 1261.24 2121.97 1261.27 2124.91 1241.7 2124.91 1241.73 2127.34 1221.98 2127.34 1222.01 2129.28 1202.14 2129.28 1202.17 2130.71 1182.17 2130.71 1182.2 2131.52 1162.08 2131.52 1162.11 2131.84 1141.98ZM1962.57 1579.97 1932.98 1571.62 1957.41 1552.96Z"/><path d="M1778.15 1397 1778.15 1470.73 1775.85 1470.73 1775.85 1397ZM1790.75 1466.14 1777 1493.64 1763.25 1466.14Z"/><rect x="1308.5" y="1772.5" width="312" height="156" stroke="#787878" stroke-width="4.58333" stroke-miterlimit="8" fill="#A5A5A5"/><text font-family="LM Roman 10,LM Roman 10_MSFontService,sans-serif" font-weight="700" font-size="30" transform="matrix(1 0 0 1 1414.57 1860)">Sample</text><rect x="1620.5" y="1772.5" width="312" height="156" stroke="#787878" stroke-width="4.58333" stroke-miterlimit="8" fill="#A5A5A5"/><text font-family="LM Roman 10,LM Roman 10_MSFontService,sans-serif" font-weight="700" font-size="30" transform="matrix(1 0 0 1 1738.13 1860)">Label</text><path d="M1.14447-0.0559685 40.7531 809.878 38.4642 809.989-1.14447 0.0559685ZM53.1185 804.686 40.7281 832.825 25.6513 806.029Z" transform="matrix(-1 0 0 1 1504.73 939)"/><path d="M1.14579-0.00952638 1.97443 99.655-0.317161 99.674-1.14579 0.00952638ZM14.54 94.967 1.01916 122.58-12.959 95.1956Z" transform="matrix(-1 0 0 1 1777.02 1650)"/><rect x="1462.5" y="2005.5" width="312" height="156" stroke="#000000" stroke-width="4.58333" stroke-miterlimit="8" fill="none"/><text font-family="LM Roman 10,LM Roman 10_MSFontService,sans-serif" font-weight="700" font-size="30" transform="matrix(1 0 0 1 1518.47 2093)">Store to folder</text><rect x="1265.5" y="244.5" width="312" height="156" stroke="#000000" stroke-width="4.58333" stroke-miterlimit="8" fill="#00B050"/><text fill="#FFFFFF" font-family="LM Roman 10,LM Roman 10_MSFontService,sans-serif" font-weight="700" font-size="30" transform="matrix(1 0 0 1 1348.6 332)">Sv dataset  </text><rect x="1771.5" y="244.5" width="311" height="156" stroke="#000000" stroke-width="4.58333" stroke-miterlimit="8"/><text fill="#FFFFFF" font-family="LM Roman 10,LM Roman 10_MSFontService,sans-serif" font-weight="700" font-size="30" transform="matrix(1 0 0 1 1853.7 296)">Pretrained <tspan font-size="30" x="0" y="36">CRIMAC/</tspan><tspan font-size="30" x="31.2355" y="72">U</tspan><tspan font-size="30" x="54.1521" y="72">-</tspan><tspan font-size="30" x="65.0376" y="72">Net</tspan></text><path d="M1422.15 400 1422.15 412.429 1419.85 412.429 1419.85 400ZM1434.75 407.846 1421 435.346 1407.25 407.846Z"/><path d="M1577 320.854 1747.94 320.855 1747.94 323.146 1577 323.146ZM1743.36 308.25 1770.86 322 1743.36 335.75Z"/><rect x="1265.5" y="6.50003" width="312" height="156" stroke="#000000" stroke-width="4.58333" stroke-miterlimit="8"/><text fill="#FFFFFF" font-family="LM Roman 10,LM Roman 10_MSFontService,sans-serif" font-weight="700" font-size="30" transform="matrix(1 0 0 1 1345.82 76)">CRIMAC /<tspan font-size="30" x="-6.57715" y="36">preprocessor</tspan></text><path d="M1422.15 162 1422.15 220.899 1419.85 220.899 1419.85 162ZM1434.75 216.316 1421 243.816 1407.25 216.316Z"/><rect x="1771.5" y="736.5" width="311" height="156" stroke="#000000" stroke-width="4.58333" stroke-miterlimit="8" fill="#FFD966"/><text font-family="LM Roman 10,LM Roman 10_MSFontService,sans-serif" font-weight="700" font-size="30" transform="matrix(1 0 0 1 1833.65 824)">Pseudo labels</text><path d="M1927.15 400 1927.15 713.651 1924.85 713.651 1924.85 400ZM1939.75 709.068 1926 736.568 1912.25 709.068Z"/><path d="M0.621221-0.962818 131.149 83.2554 129.907 85.1811-0.621221 0.962818ZM134.131 70.1795 149.784 96.6426 119.222 93.2872Z" transform="matrix(-1 0 0 1 1926.78 892)"/><rect x="2156.5" y="244.5" width="311" height="156" stroke="#000000" stroke-width="4.58333" stroke-miterlimit="8"/><text fill="#FFFFFF" font-family="LM Roman 10,LM Roman 10_MSFontService,sans-serif" font-weight="700" font-size="30" transform="matrix(1 0 0 1 2233.32 314)">CRIMAC / <tspan font-size="30" x="-34.1001" y="36">bottomdetection</tspan></text><rect x="2156.5" y="736.5" width="311" height="156" stroke="#000000" stroke-width="4.58333" stroke-miterlimit="8" fill="#FF0000"/><text font-family="LM Roman 10,LM Roman 10_MSFontService,sans-serif" font-weight="700" font-size="30" transform="matrix(1 0 0 1 2216.41 824)">Seafloor mask</text><path d="M2313.15 400 2313.15 713.651 2310.85 713.651 2310.85 400ZM2325.75 709.068 2312 736.568 2298.25 709.068Z"/><path d="M0.533586-1.01401 159.21 82.4834 158.143 84.5114-0.533586 1.01401ZM161.023 69.1949 178.956 94.1691 148.217 93.5312Z" transform="matrix(-1 0 0 1 2311.96 892)"/><rect x="1771.5" y="7.50007" width="311" height="156" stroke="#000000" stroke-width="4.58333" stroke-miterlimit="8" fill="#4472C4"/><text fill="#FFFFFF" font-family="LM Roman 10,LM Roman 10_MSFontService,sans-serif" font-weight="700" font-size="30" transform="matrix(1 0 0 1 1812.45 95)">Acoustic dataset </text><path d="M1770.85 86.5449 1599.91 85.3111 1599.92 83.0195 1770.87 84.2532ZM1604.4 97.948 1577 83.9999 1604.6 70.4487Z"/><rect x="1265.5" y="853.5" width="150" height="85.9999" stroke="#ED7D31" stroke-width="4.58333" stroke-miterlimit="8" fill="#FFFFFF"/><text font-family="LM Roman 10,LM Roman 10_MSFontService,sans-serif" font-weight="700" font-size="30" transform="matrix(1 0 0 1 1306.8 906)">True</text><rect x="1432.5" y="853.5" width="145" height="85.9999" stroke="#70AD47" stroke-width="4.58333" stroke-miterlimit="8" fill="#FFFFFF"/><text font-family="LM Roman 10,LM Roman 10_MSFontService,sans-serif" font-weight="700" font-size="30" transform="matrix(1 0 0 1 1469.05 906)">False</text><rect x="1086.5" y="659.5" width="143" height="86.9999" stroke="#ED7D31" stroke-width="4.58333" stroke-miterlimit="8" fill="#FFFFFF"/><text font-family="LM Roman 10,LM Roman 10_MSFontService,sans-serif" font-weight="700" font-size="30" transform="matrix(1 0 0 1 1124.74 695)">Next <tspan font-size="30" x="3.4375" y="36">crop</tspan></text><path d="M1156.86 659.544 1157.48 645.744 1159.31 632.025 1162.2 618.562 1166.1 605.414 1171.01 592.644 1176.8 580.442 1183.34 568.931 1190.57 558.107 1198.51 548.157 1206.95 539.208 1215.91 531.323 1225.26 524.628 1234.98 519.163 1242.53 516.812 1243.21 519 1235.78 521.315 1236 521.22 1226.44 526.595 1226.54 526.527 1217.29 533.152 1217.38 533.081 1208.51 540.893 1208.58 540.82 1200.21 549.695 1200.27 549.623 1192.4 559.498 1192.45 559.42 1185.27 570.17 1185.31 570.099 1178.81 581.537 1178.85 581.462 1173.1 593.587 1173.13 593.507 1168.26 606.194 1168.29 606.109 1164.41 619.172 1164.43 619.087 1161.56 632.462 1161.57 632.372 1159.76 645.997 1159.77 645.898 1159.14 659.648ZM1235.43 505.466 1265.25 512.971 1241.36 532.321Z"/><path d="M1422.42 818.934 1484.02 843.187 1483.18 845.319 1421.58 821.066ZM1484.37 829.78 1504.93 852.648 1474.3 855.368Z"/><path d="M0.424291-1.06438 61.0383 23.0979 60.1897 25.2267-0.424291 1.06438ZM61.4479 9.69255 81.9016 32.6481 51.265 35.2377Z" transform="matrix(-1 0 0 1 1421.9 820)"/><path d="M0.0549368-1.14452 7.91862-0.767059 15.707 0.309384 23.4237 2.08043 30.946 4.41929 38.2198 7.32882 45.1753 10.8066 51.7491 14.7256 57.9503 19.0917 63.5855 23.8405 68.7168 28.9085 73.2249 34.242 77.1076 39.9068 80.1695 45.7118 82.4729 51.6622 83.885 57.7597 84.3919 63.8423 84.3802 63.7491 84.8802 66.7491 84.7916 66.4601 86.1666 69.4601 86.0253 69.2287 88.3378 72.1662 88.231 72.0484 91.356 75.0484 91.2407 74.9515 95.2407 77.889 95.1501 77.8288 99.9626 80.7038 99.9011 80.6696 105.464 83.5446 105.404 83.5158 111.716 86.3284 111.677 86.3118 118.677 89.1243 118.625 89.1049 126.375 91.7924 126.35 91.784 134.725 94.4715 134.696 94.4625 143.696 97.0875 143.663 97.0785 153.288 99.5785 153.275 99.5751 163.4 102.075 163.374 102.069 174.061 104.444 174.043 104.44 185.293 106.753 185.273 106.749 196.961 108.936 196.942 108.933 209.067 110.995 209.055 110.993 221.618 112.993 221.602 112.991 234.539 114.866 234.52 114.863 261.458 118.301 261.429 118.298 289.554 121.173 289.528 121.17 318.591 123.483 318.567 123.481 348.317 125.231 348.29 125.23 378.603 126.292 378.577 126.292 409.077 126.667 409.051 126.667 439.551 126.354 439.532 126.355 469.782 125.542 469.762 125.543 499.575 124.23 499.551 124.232 528.614 122.357 528.596 122.358 556.721 120.108 556.701 120.11 583.639 117.485 583.618 117.487 596.556 115.987 596.546 115.988 609.109 114.425 609.098 114.427 621.223 112.802 621.211 112.803 632.899 111.116 632.879 111.119 644.067 109.306 644.052 109.309 654.74 107.434 654.73 107.436 664.918 105.561 664.892 105.566 674.517 103.566 674.501 103.569 683.501 101.569 683.468 101.577 691.843 99.4519 691.82 99.4581 699.507 97.3331 699.474 97.343 706.536 95.1555 706.366 95.2237 715.87 90.5054 716.889 92.558 707.302 97.3173 700.135 99.5372 692.419 101.67 684.015 103.802 674.991 105.808 665.345 107.812 655.14 109.69 644.441 111.567 633.236 113.383 621.533 115.072 609.397 116.699 596.824 118.263 583.872 119.764 556.914 122.391 528.77 124.643 499.687 126.519 469.853 127.833 439.584 128.646 409.061 128.958 378.535 128.583 348.196 127.52 318.421 125.768 289.334 123.454 261.182 120.576 234.22 117.135 221.265 115.258 208.689 113.256 196.549 111.191 184.842 108.999 173.573 106.683 162.863 104.303 152.719 101.798 143.07 99.2923 134.039 96.6582 125.637 93.962 117.848 91.261 110.803 88.4303 104.441 85.5956 98.8176 82.6892 93.9281 79.7683 89.8234 76.7539 86.5865 73.6464 84.1402 70.539 82.6448 67.2763 82.112 64.0795 81.6081 58.0327 81.6337 58.196 80.2587 52.2585 80.3064 52.4136 78.0564 46.6011 78.1115 46.7221 75.1115 41.0346 75.1799 41.1478 71.3674 35.5853 71.4374 35.6772 66.9999 30.4272 67.0698 30.5027 62.0073 25.5027 62.0741 25.5637 56.5116 20.8762 56.5903 20.9369 50.4653 16.6244 50.5383 16.6717 44.0383 12.7967 44.1126 12.8374 37.2376 9.39986 37.3244 9.43888 30.1369 6.56388 30.2223 6.59416 22.7848 4.28166 22.8687 4.3043 15.2437 2.5543 15.3431 2.57254 7.65562 1.51004 7.75756 1.51952-0.0549368 1.14452ZM704.562 83.141 734.875 78 720.8 105.335Z" transform="matrix(1 0 0 -1 1577 321.953)"/></g></svg>