<svg width="1737" height="2464" xmlns="http://www.w3.org/2000/svg" xmlns:xlink="http://www.w3.org/1999/xlink" overflow="hidden"><defs><clipPath id="clip0"><rect x="1077" y="4" width="1737" height="2464"/></clipPath></defs><g clip-path="url(#clip0)" transform="translate(-1077 -4)"><path d="M1621.15 1850 1621.19 2012.07 1618.9 2012.07 1618.85 1850ZM1633.8 2007.48 1620.05 2034.98 1606.3 2007.49Z"/><rect x="1265.5" y="435.5" width="312" height="156" stroke="#000000" stroke-width="4.58333" stroke-miterlimit="8" fill="#00B050"/><text fill="#FFFFFF" font-family="LM Roman 10,LM Roman 10_MSFontService,sans-serif" font-weight="700" font-size="30" transform="matrix(1 0 0 1 1333.43 505)">Extract crop <tspan font-size="30" x="-22.0687" y="36">from </tspan><tspan font-size="30" x="52.4104" y="36">Sv </tspan><tspan font-size="30" x="97.0979" y="36">dataset</tspan></text><path d="M1422.15 590.971 1422.43 602.178 1420.14 602.236 1419.85 591.029ZM1434.91 597.279 1421.86 625.116 1407.42 597.972Z"/><rect x="1266.5" y="625.5" width="312" height="156" stroke="#000000" stroke-width="4.58333" stroke-miterlimit="8" fill="#00B050"/><text fill="#FFFFFF" font-family="LM Roman 10,LM Roman 10_MSFontService,sans-serif" font-weight="700" font-size="30" transform="matrix(1 0 0 1 1406.47 659)">If:<tspan font-size="30" x="-105.715" y="36">-</tspan><tspan font-size="30" x="-83.9437" y="36">No NAN Values</tspan><tspan font-size="30" x="-60.1563" y="72">-</tspan><tspan font-size="30" x="-38.3854" y="72">Not Only </tspan><tspan font-size="30" x="-36.6666" y="108">Bottom</tspan></text><path d="M1264.56 857.745 1254.11 857.115 1243.74 855.217 1233.5 852.184 1223.52 848.142 1213.86 843.091 1204.65 837.099 1195.89 830.353 1187.75 822.849 1180.19 814.654 1173.44 805.951 1167.51 796.743 1162.4 787.085 1158.34 777.068 1156.51 768.842 1158.75 768.344 1160.56 776.477 1160.5 776.296 1164.5 786.171 1164.45 786.065 1169.52 795.627 1169.47 795.543 1175.34 804.668 1175.28 804.586 1181.97 813.211 1181.91 813.136 1189.41 821.261 1189.34 821.196 1197.4 828.634 1197.33 828.568 1206.01 835.255 1205.94 835.203 1215.06 841.14 1214.97 841.085 1224.53 846.085 1224.43 846.039 1234.31 850.039 1234.2 850.002 1244.33 853.002 1244.21 852.974 1254.46 854.849 1254.32 854.832 1264.7 855.457ZM1144.8 775.332 1153.94 745.976 1171.94 770.901Z"/><path d="M1505.16 898.865 2110.44 981.628 2110.13 983.899 1504.84 901.135ZM2107.6 968.519 2132.99 985.868 2103.88 995.766Z"/><rect x="1977.5" y="986.5" width="311" height="156" stroke="#000000" stroke-width="4.58333" stroke-miterlimit="8" fill="#FF0000"/><text font-family="LM Roman 10,LM Roman 10_MSFontService,sans-serif" font-weight="700" font-size="30" transform="matrix(1 0 0 1 2054.63 1039)">Extract sv<tspan font-size="30" x="144.948" y="0">-</tspan><tspan font-size="30" x="-16.8894" y="36">corresponding </tspan><tspan font-size="30" x="-29.4937" y="72">crop from mask</tspan></text><path d="M0.831386-0.7885 68.8462 70.9256 67.1834 72.5026-0.831386 0.7885ZM74.8374 58.9265 83.7848 88.3418 54.8842 77.8505Z" transform="matrix(-1 0 0 1 1504.78 900)"/><rect x="1265.5" y="989.5" width="312" height="156" stroke="#000000" stroke-width="4.58333" stroke-miterlimit="8" fill="#00B050"/><text fill="#FFFFFF" font-family="LM Roman 10,LM Roman 10_MSFontService,sans-serif" font-weight="700" font-size="30" transform="matrix(1 0 0 1 1307.35 1059)">Convert <tspan font-size="30" x="121.458" y="0">Sv </tspan>data <tspan font-size="30" x="9.16663" y="36">to decibel scale</tspan></text><rect x="1621.5" y="989.5" width="312" height="156" stroke="#000000" stroke-width="4.58333" stroke-miterlimit="8" fill="#FFD966"/><text font-family="LM Roman 10,LM Roman 10_MSFontService,sans-serif" font-weight="700" font-size="30" transform="matrix(1 0 0 1 1698.74 1041)">Extract sv<tspan font-size="30" x="144.948" y="0">-</tspan><tspan font-size="30" x="-16.8895" y="36">corresponding </tspan><tspan font-size="30" x="-32.9312" y="72">crop from labels</tspan></text><path d="M1505.35 898.91 1755.66 980.175 1754.95 982.355 1504.65 901.09ZM1755.19 966.772 1777.1 988.342 1746.7 992.928Z"/><rect x="1621.5" y="1241.5" width="312" height="156" stroke="#000000" stroke-width="4.58333" stroke-miterlimit="8" fill="#FFD966"/><text font-family="LM Roman 10,LM Roman 10_MSFontService,sans-serif" font-weight="700" font-size="30" transform="matrix(1 0 0 1 1707.92 1276)">Threshold <tspan font-size="30" x="-21.1979" y="36">probabilities:</tspan><tspan font-size="30" x="-44.6875" y="72">p(class) &lt; 0.8 = </tspan><tspan font-size="30" x="17.7605" y="108">0 else 1</tspan></text><path d="M1778.15 1145 1778.15 1218.73 1775.85 1218.73 1775.85 1145ZM1790.75 1214.14 1777 1241.64 1763.25 1214.14Z"/><rect x="1621.5" y="1494.5" width="312" height="156" stroke="#000000" stroke-width="4.58333" stroke-miterlimit="8" fill="#FFD966"/><text font-family="LM Roman 10,LM Roman 10_MSFontService,sans-serif" font-weight="700" font-size="30" transform="matrix(1 0 0 1 1696.19 1546)">Delete class <tspan font-size="30" x="-39.2562" y="36">predictions below </tspan><tspan font-size="30" x="28.3479" y="72">seafloor</tspan></text><path d="M2134.13 1142.02 2133.81 1162.16 2133 1182.31 2131.56 1202.35 2129.62 1222.25 2127.18 1242.03 2124.24 1261.62 2120.79 1280.96 2116.91 1299.99 2112.59 1318.77 2107.84 1337.11 2102.7 1355.14 2097.13 1372.67 2091.25 1389.76 2084.99 1406.36 2078.41 1422.39 2071.52 1437.86 2064.32 1452.64 2056.86 1466.8 2049.15 1480.28 2041.19 1492.94 2032.97 1504.86 2024.56 1515.96 2015.96 1526.2 2007.23 1535.5 1998.3 1543.86 1989.24 1551.29 1980.09 1557.66 1970.82 1562.96 1961.4 1567.22 1955.73 1568.44 1955.25 1566.2 1960.8 1565 1960.57 1565.08 1969.82 1560.89 1969.73 1560.94 1978.91 1555.69 1978.83 1555.75 1987.89 1549.43 1987.82 1549.49 1996.82 1542.11 1996.76 1542.16 2005.64 1533.85 2005.58 1533.9 2014.27 1524.65 2014.23 1524.7 2022.79 1514.51 2022.76 1514.56 2031.13 1503.5 2031.1 1503.54 2039.29 1491.66 2039.26 1491.7 2047.2 1479.08 2047.17 1479.12 2054.86 1465.68 2054.84 1465.72 2062.28 1451.59 2062.26 1451.62 2069.45 1436.87 2069.43 1436.91 2076.31 1421.47 2076.3 1421.5 2082.86 1405.5 2082.85 1405.53 2089.1 1388.97 2089.09 1389 2094.96 1371.94 2094.95 1371.97 2100.51 1354.47 2100.5 1354.5 2105.63 1336.5 2105.62 1336.52 2110.37 1318.21 2110.36 1318.24 2114.68 1299.49 2114.67 1299.52 2118.55 1280.52 2118.54 1280.55 2121.98 1261.24 2121.97 1261.27 2124.91 1241.7 2124.91 1241.73 2127.34 1221.98 2127.34 1222.01 2129.28 1202.14 2129.28 1202.17 2130.71 1182.17 2130.71 1182.2 2131.52 1162.08 2131.52 1162.11 2131.84 1141.98ZM1962.57 1579.97 1932.98 1571.62 1957.41 1552.96Z"/><path d="M1778.15 1397 1778.15 1470.73 1775.85 1470.73 1775.85 1397ZM1790.75 1466.14 1777 1493.64 1763.25 1466.14Z"/><rect x="1308.5" y="1772.5" width="312" height="156" stroke="#787878" stroke-width="4.58333" stroke-miterlimit="8" fill="#A5A5A5"/><text font-family="LM Roman 10,LM Roman 10_MSFontService,sans-serif" font-weight="700" font-size="30" transform="matrix(1 0 0 1 1414.57 1860)">Sample</text><rect x="1620.5" y="1772.5" width="312" height="156" stroke="#787878" stroke-width="4.58333" stroke-miterlimit="8" fill="#A5A5A5"/><text font-family="LM Roman 10,LM Roman 10_MSFontService,sans-serif" font-weight="700" font-size="30" transform="matrix(1 0 0 1 1738.13 1860)">Label</text><path d="M1422.14 1144.92 1463.63 1749.73 1461.35 1749.89 1419.86 1145.08ZM1475.89 1744.3 1464.06 1772.68 1448.46 1746.18Z"/><path d="M1.14579-0.00952638 1.97443 99.655-0.317161 99.674-1.14579 0.00952638ZM14.54 94.967 1.01916 122.58-12.959 95.1956Z" transform="matrix(-1 0 0 1 1777.02 1650)"/><rect x="1464.5" y="2035.5" width="312" height="156" stroke="#000000" stroke-width="4.58333" stroke-miterlimit="8" fill="none"/><text font-family="LM Roman 10,LM Roman 10_MSFontService,sans-serif" font-weight="700" font-size="30" transform="matrix(1 0 0 1 1503.5 2088)">Check criterions. <tspan font-size="30" x="5.72913" y="36">First hit defines </tspan><tspan font-size="30" x="34.375" y="72">datasample.</tspan></text><rect x="1465.5" y="2309.5" width="311" height="156" stroke="#000000" stroke-width="4.58333" stroke-miterlimit="8" fill="none"/><text font-family="LM Roman 10,LM Roman 10_MSFontService,sans-serif" font-weight="700" font-size="30" transform="matrix(1 0 0 1 1531.93 2361)">Store to disk <tspan font-size="30" x="-2.29163" y="36">depending on </tspan><tspan font-size="30" x="30.3646" y="72">criteron.</tspan></text><path d="M1621.15 2190.99 1621.66 2285.74 1619.37 2285.76 1618.85 2191.01ZM1634.24 2281.09 1620.64 2308.67 1606.74 2281.24Z"/><rect x="2081.5" y="1932.5" width="730" height="359" stroke="#A5A5A5" stroke-width="4.58333" stroke-miterlimit="8" fill="#FFFFFF"/><text font-family="LM Roman 10,LM Roman 10_MSFontService,sans-serif" font-weight="700" font-size="30" transform="matrix(1 0 0 1 2114.38 1979)">Criterions<tspan font-size="30" x="0" y="36">1.</tspan><tspan font-size="30" x="82.5" y="36">100+ pixels == sandeel class</tspan><tspan font-size="30" x="0" y="72">2.</tspan><tspan font-size="30" x="82.5" y="72">100+ pixels == sandeel class + bottom</tspan><tspan font-size="30" x="0" y="108">3.</tspan><tspan font-size="30" x="82.5" y="108">100+ pixels == other class</tspan><tspan font-size="30" x="0" y="143">4.</tspan><tspan font-size="30" x="82.5" y="143">100+ pixels == other class </tspan><tspan font-size="30" x="469.219" y="143">+ bottom</tspan><tspan font-size="30" x="0" y="179">5.</tspan><tspan font-size="30" x="82.5" y="179">Contains bottom</tspan><tspan font-size="30" x="0" y="215">6.</tspan><tspan font-size="30" x="82.5" y="215">Contains nothing</tspan></text><path d="M0.0044751-1.14582 282.762-0.0414949 282.753 2.25015-0.0044751 1.14582ZM278.228-12.6635 305.674 1.19383 278.121 14.8363Z" transform="matrix(-1 0 0 1 2081.67 2112)"/><rect x="1265.5" y="244.5" width="312" height="156" stroke="#000000" stroke-width="4.58333" stroke-miterlimit="8" fill="#00B050"/><text fill="#FFFFFF" font-family="LM Roman 10,LM Roman 10_MSFontService,sans-serif" font-weight="700" font-size="30" transform="matrix(1 0 0 1 1348.6 314)">Sv dataset  <tspan font-size="30" x="27.7979" y="36">(.zarr)</tspan></text><rect x="1771.5" y="244.5" width="311" height="156" stroke="#000000" stroke-width="4.58333" stroke-miterlimit="8"/><text fill="#FFFFFF" font-family="LM Roman 10,LM Roman 10_MSFontService,sans-serif" font-weight="700" font-size="30" transform="matrix(1 0 0 1 1853.7 314)">Pretrained<tspan font-size="30" x="-33.2291" y="36">CRIMAC/Unet</tspan></text><path d="M1422.15 400 1422.15 412.429 1419.85 412.429 1419.85 400ZM1434.75 407.846 1421 435.346 1407.25 407.846Z"/><path d="M1577 320.854 1747.94 320.855 1747.94 323.146 1577 323.146ZM1743.36 308.25 1770.86 322 1743.36 335.75Z"/><rect x="1265.5" y="6.50003" width="312" height="156" stroke="#000000" stroke-width="4.58333" stroke-miterlimit="8"/><text fill="#FFFFFF" font-family="LM Roman 10,LM Roman 10_MSFontService,sans-serif" font-weight="700" font-size="30" transform="matrix(1 0 0 1 1345.82 76)">CRIMAC /<tspan font-size="30" x="-6.57715" y="36">preprocessor</tspan></text><path d="M1422.15 162 1422.15 220.899 1419.85 220.899 1419.85 162ZM1434.75 216.316 1421 243.816 1407.25 216.316Z"/><rect x="1771.5" y="736.5" width="311" height="156" stroke="#000000" stroke-width="4.58333" stroke-miterlimit="8" fill="#FFD966"/><text font-family="LM Roman 10,LM Roman 10_MSFontService,sans-serif" font-weight="700" font-size="30" transform="matrix(1 0 0 1 1833.65 788)">Pseudo labels <tspan font-size="30" x="10.0375" y="36">(pixel based </tspan><tspan font-size="30" x="1.14587" y="72">probabilities)</tspan></text><path d="M1927.15 400 1927.15 713.651 1924.85 713.651 1924.85 400ZM1939.75 709.068 1926 736.568 1912.25 709.068Z"/><path d="M0.621221-0.962818 131.149 83.2554 129.907 85.1811-0.621221 0.962818ZM134.131 70.1795 149.784 96.6426 119.222 93.2872Z" transform="matrix(-1 0 0 1 1926.78 892)"/><rect x="2156.5" y="244.5" width="311" height="156" stroke="#000000" stroke-width="4.58333" stroke-miterlimit="8"/><text fill="#FFFFFF" font-family="LM Roman 10,LM Roman 10_MSFontService,sans-serif" font-weight="700" font-size="30" transform="matrix(1 0 0 1 2189.2 314)">CRIMAC/bottom<tspan font-size="30" x="48.125" y="36">_detection</tspan></text><rect x="2156.5" y="736.5" width="311" height="156" stroke="#000000" stroke-width="4.58333" stroke-miterlimit="8" fill="#FF0000"/><text font-family="LM Roman 10,LM Roman 10_MSFontService,sans-serif" font-weight="700" font-size="30" transform="matrix(1 0 0 1 2216.41 824)">Seafloor mask</text><path d="M2313.15 400 2313.15 713.651 2310.85 713.651 2310.85 400ZM2325.75 709.068 2312 736.568 2298.25 709.068Z"/><path d="M0.533586-1.01401 159.21 82.4834 158.143 84.5114-0.533586 1.01401ZM161.023 69.1949 178.956 94.1691 148.217 93.5312Z" transform="matrix(-1 0 0 1 2311.96 892)"/><rect x="1771.5" y="7.50007" width="311" height="156" stroke="#000000" stroke-width="4.58333" stroke-miterlimit="8" fill="#4472C4"/><text fill="#FFFFFF" font-family="LM Roman 10,LM Roman 10_MSFontService,sans-serif" font-weight="700" font-size="30" transform="matrix(1 0 0 1 1851.69 78)">Sonar data <tspan font-size="30" x="32.3584" y="36">(.raw)</tspan></text><path d="M1770.85 86.5449 1599.91 85.3111 1599.92 83.0195 1770.87 84.2532ZM1604.4 97.948 1577 83.9999 1604.6 70.4487Z"/><rect x="1265.5" y="813.5" width="150" height="86.9999" stroke="#ED7D31" stroke-width="4.58333" stroke-miterlimit="8" fill="#FFFFFF"/><text font-family="LM Roman 10,LM Roman 10_MSFontService,sans-serif" font-weight="700" font-size="30" transform="matrix(1 0 0 1 1304.22 867)">False</text><rect x="1432.5" y="813.5" width="145" height="86.9999" stroke="#70AD47" stroke-width="4.58333" stroke-miterlimit="8" fill="#FFFFFF"/><text font-family="LM Roman 10,LM Roman 10_MSFontService,sans-serif" font-weight="700" font-size="30" transform="matrix(1 0 0 1 1471.63 867)">True</text><rect x="1079.5" y="659.5" width="150" height="86.9999" stroke="#ED7D31" stroke-width="4.58333" stroke-miterlimit="8" fill="#FFFFFF"/><text font-family="LM Roman 10,LM Roman 10_MSFontService,sans-serif" font-weight="700" font-size="30" transform="matrix(1 0 0 1 1114.98 713)">Retry</text><path d="M1152.86 659.544 1153.48 645.742 1155.37 632.017 1158.39 618.552 1162.42 605.403 1167.51 592.633 1173.43 580.431 1180.16 568.915 1187.71 558.092 1195.83 548.144 1204.59 539.196 1213.8 531.312 1223.46 524.619 1233.49 519.161 1241.9 516.526 1242.59 518.713 1234.28 521.314 1234.49 521.227 1224.61 526.602 1224.72 526.538 1215.15 533.163 1215.25 533.091 1206.12 540.904 1206.19 540.835 1197.51 549.71 1197.58 549.633 1189.51 559.508 1189.56 559.439 1182.06 570.189 1182.11 570.112 1175.43 581.549 1175.47 581.47 1169.59 593.595 1169.63 593.52 1164.56 606.208 1164.6 606.119 1160.6 619.181 1160.62 619.097 1157.62 632.472 1157.64 632.377 1155.76 646.002 1155.77 645.898 1155.14 659.648ZM1234.97 505.085 1264.69 512.971 1240.55 532.013Z"/><path d="M1422.42 779.934 1484.02 804.187 1483.18 806.319 1421.58 782.066ZM1484.37 790.78 1504.93 813.648 1474.3 816.368Z"/><path d="M0.424291-1.06438 61.0383 23.0979 60.1897 25.2267-0.424291 1.06438ZM61.4479 9.69255 81.9016 32.6481 51.265 35.2377Z" transform="matrix(-1 0 0 1 1421.9 781)"/><path d="M0.0549368-1.14452 7.91862-0.767059 15.707 0.309384 23.4237 2.08043 30.946 4.41929 38.2198 7.32882 45.1753 10.8066 51.7491 14.7256 57.9503 19.0917 63.5855 23.8405 68.7168 28.9085 73.2249 34.242 77.1076 39.9068 80.1695 45.7118 82.4729 51.6622 83.885 57.7597 84.3919 63.8423 84.3802 63.7491 84.8802 66.7491 84.7916 66.4601 86.1666 69.4601 86.0253 69.2287 88.3378 72.1662 88.231 72.0484 91.356 75.0484 91.2407 74.9515 95.2407 77.889 95.1501 77.8288 99.9626 80.7038 99.9011 80.6696 105.464 83.5446 105.404 83.5158 111.716 86.3284 111.677 86.3118 118.677 89.1243 118.625 89.1049 126.375 91.7924 126.35 91.784 134.725 94.4715 134.696 94.4625 143.696 97.0875 143.663 97.0785 153.288 99.5785 153.275 99.5751 163.4 102.075 163.374 102.069 174.061 104.444 174.043 104.44 185.293 106.753 185.273 106.749 196.961 108.936 196.942 108.933 209.067 110.995 209.055 110.993 221.618 112.993 221.602 112.991 234.539 114.866 234.52 114.863 261.458 118.301 261.429 118.298 289.554 121.173 289.528 121.17 318.591 123.483 318.567 123.481 348.317 125.231 348.29 125.23 378.603 126.292 378.577 126.292 409.077 126.667 409.051 126.667 439.551 126.354 439.532 126.355 469.782 125.542 469.762 125.543 499.575 124.23 499.551 124.232 528.614 122.357 528.596 122.358 556.721 120.108 556.701 120.11 583.639 117.485 583.618 117.487 596.556 115.987 596.546 115.988 609.109 114.425 609.098 114.427 621.223 112.802 621.211 112.803 632.899 111.116 632.879 111.119 644.067 109.306 644.052 109.309 654.74 107.434 654.73 107.436 664.918 105.561 664.892 105.566 674.517 103.566 674.501 103.569 683.501 101.569 683.468 101.577 691.843 99.4519 691.82 99.4581 699.507 97.3331 699.474 97.343 706.536 95.1555 706.366 95.2237 715.87 90.5054 716.889 92.558 707.302 97.3173 700.135 99.5372 692.419 101.67 684.015 103.802 674.991 105.808 665.345 107.812 655.14 109.69 644.441 111.567 633.236 113.383 621.533 115.072 609.397 116.699 596.824 118.263 583.872 119.764 556.914 122.391 528.77 124.643 499.687 126.519 469.853 127.833 439.584 128.646 409.061 128.958 378.535 128.583 348.196 127.52 318.421 125.768 289.334 123.454 261.182 120.576 234.22 117.135 221.265 115.258 208.689 113.256 196.549 111.191 184.842 108.999 173.573 106.683 162.863 104.303 152.719 101.798 143.07 99.2923 134.039 96.6582 125.637 93.962 117.848 91.261 110.803 88.4303 104.441 85.5956 98.8176 82.6892 93.9281 79.7683 89.8234 76.7539 86.5865 73.6464 84.1402 70.539 82.6448 67.2763 82.112 64.0795 81.6081 58.0327 81.6337 58.196 80.2587 52.2585 80.3064 52.4136 78.0564 46.6011 78.1115 46.7221 75.1115 41.0346 75.1799 41.1478 71.3674 35.5853 71.4374 35.6772 66.9999 30.4272 67.0698 30.5027 62.0073 25.5027 62.0741 25.5637 56.5116 20.8762 56.5903 20.9369 50.4653 16.6244 50.5383 16.6717 44.0383 12.7967 44.1126 12.8374 37.2376 9.39986 37.3244 9.43888 30.1369 6.56388 30.2223 6.59416 22.7848 4.28166 22.8687 4.3043 15.2437 2.5543 15.3431 2.57254 7.65562 1.51004 7.75756 1.51952-0.0549368 1.14452ZM704.562 83.141 734.875 78 720.8 105.335Z" transform="matrix(1 0 0 -1 1577 321.953)"/></g></svg>