<svg width="1050" height="1257" xmlns="http://www.w3.org/2000/svg" xmlns:xlink="http://www.w3.org/1999/xlink" overflow="hidden"><defs><clipPath id="clip0"><rect x="1892" y="510" width="1050" height="1257"/></clipPath></defs><g clip-path="url(#clip0)" transform="translate(-1892 -510)"><rect x="2665.5" y="727.5" width="234" height="127" stroke="#2F528F" stroke-width="4.58333" stroke-miterlimit="8" fill="#FFFFFF"/><rect x="2665.5" y="712.5" width="106" height="127" stroke="#2F528F" stroke-width="4.58333" stroke-miterlimit="8" fill="#FFFFFF"/><rect x="2739.5" y="732.5" width="64.0002" height="55" stroke="#FFFFFF" stroke-width="4.58333" stroke-miterlimit="8" fill="#FFFFFF"/><rect x="2665.5" y="739.5" width="273" height="128" stroke="#2F528F" stroke-width="4.58333" stroke-miterlimit="8" fill="#FFFFFF"/><text font-family="LM Roman 10,LM Roman 10_MSFontService,sans-serif" font-weight="700" font-size="37" transform="matrix(1 0 0 1 2751.73 816)">Other</text><rect x="1894.5" y="526.5" width="234" height="127" stroke="#2F528F" stroke-width="4.58333" stroke-miterlimit="8" fill="#FFFFFF"/><rect x="1894.5" y="512.5" width="106" height="127" stroke="#2F528F" stroke-width="4.58333" stroke-miterlimit="8" fill="#FFFFFF"/><rect x="1968.5" y="531.5" width="63.9999" height="56.0001" stroke="#FFFFFF" stroke-width="4.58333" stroke-miterlimit="8" fill="#FFFFFF"/><rect x="1894.5" y="539.5" width="273" height="127" stroke="#2F528F" stroke-width="4.58333" stroke-miterlimit="8" fill="#FFFFFF"/><text font-family="LM Roman 10,LM Roman 10_MSFontService,sans-serif" font-weight="700" font-size="37" transform="matrix(1 0 0 1 1964.43 616)">Dataset</text><path d="M2167 600.135 2231.23 600.135C2232.81 600.135 2234.1 601.418 2234.1 603L2234.1 1302.68 2231.23 1299.82 2272.55 1299.82 2272.55 1305.55 2231.23 1305.55C2229.65 1305.55 2228.37 1304.26 2228.37 1302.68L2228.37 603 2231.23 605.865 2167 605.865ZM2267.97 1288.93 2295.47 1302.68 2267.97 1316.43Z" fill="#4472C4"/><rect x="2295.5" y="526.5" width="234" height="127" stroke="#2F528F" stroke-width="4.58333" stroke-miterlimit="8" fill="#FFFFFF"/><rect x="2295.5" y="512.5" width="106" height="127" stroke="#2F528F" stroke-width="4.58333" stroke-miterlimit="8" fill="#FFFFFF"/><rect x="2369.5" y="531.5" width="64" height="56.0001" stroke="#FFFFFF" stroke-width="4.58333" stroke-miterlimit="8" fill="#FFFFFF"/><rect x="2295.5" y="539.5" width="273" height="127" stroke="#2F528F" stroke-width="4.58333" stroke-miterlimit="8" fill="#FFFFFF"/><text font-family="LM Roman 10,LM Roman 10_MSFontService,sans-serif" font-weight="700" font-size="37" transform="matrix(1 0 0 1 2367.12 616)">Bottom</text><path d="M2167.5 600.063 2273.05 600.063 2273.05 606.938 2167.5 606.938ZM2268.47 589.75 2295.97 603.5 2268.47 617.25Z" fill="#4472C4"/><rect x="2295.5" y="1226.5" width="234" height="127" stroke="#2F528F" stroke-width="4.58333" stroke-miterlimit="8" fill="#FFFFFF"/><rect x="2295.5" y="1211.5" width="106" height="127" stroke="#2F528F" stroke-width="4.58333" stroke-miterlimit="8" fill="#FFFFFF"/><rect x="2369.5" y="1231.5" width="64" height="55.9996" stroke="#FFFFFF" stroke-width="4.58333" stroke-miterlimit="8" fill="#FFFFFF"/><rect x="2295.5" y="1239.5" width="273" height="127" stroke="#2F528F" stroke-width="4.58333" stroke-miterlimit="8" fill="#FFFFFF"/><text font-family="LM Roman 10,LM Roman 10_MSFontService,sans-serif" font-weight="700" font-size="37" transform="matrix(1 0 0 1 2339.34 1315)">No bottom</text><rect x="2667.5" y="526.5" width="234" height="127" stroke="#2F528F" stroke-width="4.58333" stroke-miterlimit="8" fill="#FFFFFF"/><rect x="2667.5" y="512.5" width="105" height="127" stroke="#2F528F" stroke-width="4.58333" stroke-miterlimit="8" fill="#FFFFFF"/><rect x="2740.5" y="531.5" width="64.0002" height="56.0001" stroke="#FFFFFF" stroke-width="4.58333" stroke-miterlimit="8" fill="#FFFFFF"/><rect x="2667.5" y="539.5" width="272" height="127" stroke="#2F528F" stroke-width="4.58333" stroke-miterlimit="8" fill="#FFFFFF"/><text font-family="LM Roman 10,LM Roman 10_MSFontService,sans-serif" font-weight="700" font-size="37" transform="matrix(1 0 0 1 2738.35 616)">Sandeel</text><rect x="2665.5" y="926.5" width="234" height="127" stroke="#2F528F" stroke-width="4.58333" stroke-miterlimit="8" fill="#FFFFFF"/><rect x="2665.5" y="912.5" width="106" height="127" stroke="#2F528F" stroke-width="4.58333" stroke-miterlimit="8" fill="#FFFFFF"/><rect x="2739.5" y="932.5" width="64.0002" height="56.0001" stroke="#FFFFFF" stroke-width="4.58333" stroke-miterlimit="8" fill="#FFFFFF"/><rect x="2665.5" y="940.5" width="273" height="127" stroke="#2F528F" stroke-width="4.58333" stroke-miterlimit="8" fill="#FFFFFF"/><text font-family="LM Roman 10,LM Roman 10_MSFontService,sans-serif" font-weight="700" font-size="37" transform="matrix(1 0 0 1 2700.17 1016)">Background</text><rect x="2665.5" y="1225.5" width="234" height="128" stroke="#2F528F" stroke-width="4.58333" stroke-miterlimit="8" fill="#FFFFFF"/><rect x="2665.5" y="1212.5" width="105" height="127" stroke="#2F528F" stroke-width="4.58333" stroke-miterlimit="8" fill="#FFFFFF"/><rect x="2738.5" y="1230.5" width="65" height="56" stroke="#FFFFFF" stroke-width="4.58333" stroke-miterlimit="8" fill="#FFFFFF"/><rect x="2665.5" y="1240.5" width="272" height="127" stroke="#2F528F" stroke-width="4.58333" stroke-miterlimit="8" fill="#FFFFFF"/><text font-family="LM Roman 10,LM Roman 10_MSFontService,sans-serif" font-weight="700" font-size="37" transform="matrix(1 0 0 1 2736.41 1316)">Sandeel</text><rect x="2665.5" y="1424.5" width="234" height="128" stroke="#2F528F" stroke-width="4.58333" stroke-miterlimit="8" fill="#FFFFFF"/><rect x="2665.5" y="1411.5" width="105" height="127" stroke="#2F528F" stroke-width="4.58333" stroke-miterlimit="8" fill="#FFFFFF"/><rect x="2738.5" y="1429.5" width="65" height="55.9996" stroke="#FFFFFF" stroke-width="4.58333" stroke-miterlimit="8" fill="#FFFFFF"/><rect x="2665.5" y="1439.5" width="272" height="127" stroke="#2F528F" stroke-width="4.58333" stroke-miterlimit="8" fill="#FFFFFF"/><text font-family="LM Roman 10,LM Roman 10_MSFontService,sans-serif" font-weight="700" font-size="37" transform="matrix(1 0 0 1 2751.31 1515)">Other</text><rect x="2665.5" y="1623.5" width="234" height="127" stroke="#2F528F" stroke-width="4.58333" stroke-miterlimit="8" fill="#FFFFFF"/><rect x="2665.5" y="1609.5" width="105" height="127" stroke="#2F528F" stroke-width="4.58333" stroke-miterlimit="8" fill="#FFFFFF"/><rect x="2738.5" y="1627.5" width="65" height="55.9996" stroke="#FFFFFF" stroke-width="4.58333" stroke-miterlimit="8" fill="#FFFFFF"/><rect x="2665.5" y="1637.5" width="272" height="127" stroke="#2F528F" stroke-width="4.58333" stroke-miterlimit="8" fill="#FFFFFF"/><text font-family="LM Roman 10,LM Roman 10_MSFontService,sans-serif" font-weight="700" font-size="37" transform="matrix(1 0 0 1 2699.74 1713)">Background</text><path d="M2568 1299.14 2616.53 1299.14C2618.11 1299.14 2619.4 1300.42 2619.4 1302L2619.4 1501.89 2616.53 1499.02 2642.15 1499.02 2642.15 1504.75 2616.53 1504.75C2614.95 1504.75 2613.67 1503.47 2613.67 1501.89L2613.67 1302 2616.53 1304.86 2568 1304.86ZM2637.57 1488.14 2665.07 1501.89 2637.57 1515.64Z" fill="#4472C4"/><path d="M2568 1299.14 2616.53 1299.14C2618.11 1299.14 2619.4 1300.42 2619.4 1302L2619.4 1700.05 2616.53 1697.19 2642.15 1697.19 2642.15 1702.92 2616.53 1702.92C2614.95 1702.92 2613.67 1701.64 2613.67 1700.05L2613.67 1302 2616.53 1304.86 2568 1304.86ZM2637.57 1686.3 2665.07 1700.05 2637.57 1713.8Z" fill="#4472C4"/><path d="M2568.5 600.063 2644.59 600.092 2644.59 606.967 2568.5 606.938ZM2640.01 589.778 2667.51 603.539 2640 617.278Z" fill="#4472C4"/><path d="M2568.53 1299.06 2642.68 1299.72 2642.62 1306.59 2568.47 1305.94ZM2638.19 1289.37 2665.56 1303.36 2637.94 1316.87Z" fill="#4472C4"/><path d="M2568 600.135 2616.74 600.135C2618.33 600.135 2619.61 601.418 2619.61 603L2619.61 803.356 2616.74 800.492 2642.57 800.492 2642.57 806.221 2616.74 806.221C2615.16 806.221 2613.88 804.938 2613.88 803.356L2613.88 603 2616.74 605.865 2568 605.865ZM2637.99 789.606 2665.49 803.356 2637.99 817.106Z" fill="#4472C4"/><path d="M2568 600.135 2616.74 600.135C2618.33 600.135 2619.61 601.418 2619.61 603L2619.61 1003.67 2616.74 1000.81 2642.57 1000.81 2642.57 1006.54 2616.74 1006.54C2615.16 1006.54 2613.88 1005.26 2613.88 1003.67L2613.88 603 2616.74 605.865 2568 605.865ZM2637.99 989.924 2665.49 1003.67 2637.99 1017.42Z" fill="#4472C4"/></g></svg>