<svg width="1124" height="565" xmlns="http://www.w3.org/2000/svg" xmlns:xlink="http://www.w3.org/1999/xlink" overflow="hidden"><defs><clipPath id="clip0"><rect x="2927" y="339" width="1124" height="565"/></clipPath></defs><g clip-path="url(#clip0)" transform="translate(-2927 -339)"><rect x="3102.5" y="423.5" width="45" height="48.0001" stroke="#FFFFFF" stroke-width="4.58333" stroke-miterlimit="8" fill="#7AF5A7"/><rect x="3100.5" y="682.5" width="45" height="49.0002" stroke="#FFFFFF" stroke-width="4.58333" stroke-miterlimit="8" fill="#7AF5A7"/><rect x="3360.5" y="682.5" width="45" height="49.0002" stroke="#FFFFFF" stroke-width="4.58333" stroke-miterlimit="8" fill="#7AF5A7"/><rect x="3360.5" y="552.5" width="45" height="49.0002" stroke="#FFFFFF" stroke-width="4.58333" stroke-miterlimit="8" fill="#7AF5A7"/><rect x="2929.5" y="382.5" width="130" height="130" stroke="#000000" stroke-width="4.58333" stroke-miterlimit="8" fill="#7AF5A7"/><text font-family="LM Roman 10,LM Roman 10_MSFontService,sans-serif" font-weight="700" font-size="55" transform="translate(2978.97 467)">1</text><rect x="3059.5" y="382.5" width="129" height="130" stroke="#000000" stroke-width="4.58333" stroke-miterlimit="8" fill="#7AF5A7"/><text font-family="LM Roman 10,LM Roman 10_MSFontService,sans-serif" font-weight="700" font-size="55" transform="matrix(1 0 0 1 3108.89 467)">4</text><rect x="2929.5" y="512.5" width="130" height="129" stroke="#000000" stroke-width="4.58333" stroke-miterlimit="8" fill="#7AF5A7"/><text font-family="LM Roman 10,LM Roman 10_MSFontService,sans-serif" font-weight="700" font-size="55" transform="translate(2978.97 597)">2</text><rect x="3059.5" y="512.5" width="129" height="129" stroke="#000000" stroke-width="4.58333" stroke-miterlimit="8" fill="#7AF5A7"/><text font-family="LM Roman 10,LM Roman 10_MSFontService,sans-serif" font-weight="700" font-size="55" transform="matrix(1 0 0 1 3108.89 597)">1</text><rect x="3188.5" y="382.5" width="130" height="130" stroke="#000000" stroke-width="4.58333" stroke-miterlimit="8" fill="#D6D065"/><text font-family="LM Roman 10,LM Roman 10_MSFontService,sans-serif" font-weight="700" font-size="55" transform="matrix(1 0 0 1 3238.81 467)">5</text><rect x="3318.5" y="382.5" width="130" height="130" stroke="#000000" stroke-width="4.58333" stroke-miterlimit="8" fill="#D6D065"/><text font-family="LM Roman 10,LM Roman 10_MSFontService,sans-serif" font-weight="700" font-size="55" transform="translate(3368.73 467)">2</text><rect x="3188.5" y="512.5" width="130" height="129" stroke="#000000" stroke-width="4.58333" stroke-miterlimit="8" fill="#D6D065"/><text font-family="LM Roman 10,LM Roman 10_MSFontService,sans-serif" font-weight="700" font-size="55" transform="translate(3238.81 597)">1</text><rect x="3318.5" y="512.5" width="130" height="129" stroke="#000000" stroke-width="4.58333" stroke-miterlimit="8" fill="#D6D065"/><text font-family="LM Roman 10,LM Roman 10_MSFontService,sans-serif" font-weight="700" font-size="55" transform="matrix(1 0 0 1 3368.73 597)">7</text><rect x="3188.5" y="641.5" width="130" height="130" stroke="#000000" stroke-width="4.58333" stroke-miterlimit="8" fill="#D694D1"/><text font-family="LM Roman 10,LM Roman 10_MSFontService,sans-serif" font-weight="700" font-size="55" transform="translate(3238.81 726)">2</text><rect x="3318.5" y="641.5" width="130" height="130" stroke="#000000" stroke-width="4.58333" stroke-miterlimit="8" fill="#D694D1"/><text font-family="LM Roman 10,LM Roman 10_MSFontService,sans-serif" font-weight="700" font-size="55" transform="matrix(1 0 0 1 3368.73 726)">8</text><rect x="3188.5" y="771.5" width="130" height="130" stroke="#000000" stroke-width="4.58333" stroke-miterlimit="8" fill="#D694D1"/><text font-family="LM Roman 10,LM Roman 10_MSFontService,sans-serif" font-weight="700" font-size="55" transform="translate(3238.81 856)">5</text><rect x="3318.5" y="771.5" width="130" height="130" stroke="#000000" stroke-width="4.58333" stroke-miterlimit="8" fill="#D694D1"/><text font-family="LM Roman 10,LM Roman 10_MSFontService,sans-serif" font-weight="700" font-size="55" transform="matrix(1 0 0 1 3368.73 856)">1</text><rect x="2929.5" y="641.5" width="130" height="130" stroke="#000000" stroke-width="4.58333" stroke-miterlimit="8" fill="#EBA473"/><text font-family="LM Roman 10,LM Roman 10_MSFontService,sans-serif" font-weight="700" font-size="55" transform="matrix(1 0 0 1 2978.97 726)">2</text><rect x="3059.5" y="641.5" width="129" height="130" stroke="#000000" stroke-width="4.58333" stroke-miterlimit="8" fill="#EBA473"/><text font-family="LM Roman 10,LM Roman 10_MSFontService,sans-serif" font-weight="700" font-size="55" transform="translate(3108.89 726)">9</text><rect x="2929.5" y="771.5" width="130" height="130" stroke="#000000" stroke-width="4.58333" stroke-miterlimit="8" fill="#EBA473"/><text font-family="LM Roman 10,LM Roman 10_MSFontService,sans-serif" font-weight="700" font-size="55" transform="translate(2978.97 856)">1</text><rect x="3059.5" y="771.5" width="129" height="130" stroke="#000000" stroke-width="4.58333" stroke-miterlimit="8" fill="#EBA473"/><text font-family="LM Roman 10,LM Roman 10_MSFontService,sans-serif" font-weight="700" font-size="55" transform="matrix(1 0 0 1 3108.89 856)">2</text><rect x="3788.5" y="512.5" width="130" height="129" stroke="#000000" stroke-width="4.58333" stroke-miterlimit="8" fill="#7AF5A7"/><text font-family="LM Roman 10,LM Roman 10_MSFontService,sans-serif" font-weight="700" font-size="55" transform="translate(3838.68 597)">4</text><rect x="3918.5" y="512.5" width="130" height="129" stroke="#000000" stroke-width="4.58333" stroke-miterlimit="8" fill="#D6D065"/><text font-family="LM Roman 10,LM Roman 10_MSFontService,sans-serif" font-weight="700" font-size="55" transform="matrix(1 0 0 1 3968.6 597)">7</text><rect x="3918.5" y="641.5" width="130" height="130" stroke="#000000" stroke-width="4.58333" stroke-miterlimit="8" fill="#D694D1"/><text font-family="LM Roman 10,LM Roman 10_MSFontService,sans-serif" font-weight="700" font-size="55" transform="translate(3968.6 726)">8</text><rect x="3788.5" y="641.5" width="130" height="130" stroke="#000000" stroke-width="4.58333" stroke-miterlimit="8" fill="#EBA473"/><text font-family="LM Roman 10,LM Roman 10_MSFontService,sans-serif" font-weight="700" font-size="55" transform="matrix(1 0 0 1 3838.68 726)">9</text><path d="M0.146634 1.13641-3.72837 1.63641-3.44649 1.56269-7.3215 3.12519-7.1002 3.00626-10.9127 5.63126-10.7876 5.53158-14.6001 9.03158-14.5007 8.92819-18.3132 13.4282-18.2514 13.3483-22.0014 18.6608-21.9506 18.5823-25.6381 24.8323-25.6093 24.7803-29.2968 31.8428-29.2685 31.7848-32.831 39.6598-32.8148 39.6222-36.3773 48.3097-36.3617 48.2695-39.7992 57.6445-39.7886 57.6144-43.1636 67.6769-43.1532 67.6441-46.4032 78.3941-46.3967 78.3717-49.5842 89.7467-49.5776 89.7222-52.6401 101.66-52.6343 101.636-55.5718 114.198-55.5685 114.184-58.4435 127.246-58.4383 127.222-61.1258 140.847-61.1229 140.831-63.6854 154.831-63.6825 154.815-66.12 169.315-66.1178 169.301-68.4303 184.176-68.4276 184.158-70.5526 199.408-70.5497 199.386-74.2997 230.823-74.2965 230.793-77.2965 263.355-77.2941 263.325-79.4816 296.638-79.4801 296.609-80.8551 330.484-80.8543 330.454-81.3543 364.579-81.3543 364.546-81.1043 381.608-81.1053 381.575-80.3553 398.637-80.357 398.608-79.1695 415.608-79.1724 415.573-77.4849 432.449-77.4878 432.422-75.4253 449.172-75.4301 449.137-72.8676 465.7-72.872 465.673-69.9345 482.111-69.9401 482.082-66.6276 498.207-66.6339 498.178-62.9464 514.053-62.9538 514.023-58.8913 529.586-58.8998 529.555-54.4623 544.805-54.471 544.776-49.721 559.651-49.7307 559.622-44.6682 574.122-44.6781 574.095-39.3656 588.158-39.3808 588.119-33.6933 601.682-33.705 601.655-27.83 614.717-27.8451 614.685-21.7201 627.248-21.7403 627.208-15.3028 639.208-15.3224 639.173-8.69736 650.548-8.72127 650.509-1.90877 661.197-1.93249 661.161 5.06751 671.286 5.03727 671.244 12.1623 680.619 12.1209 680.568 19.4959 689.193 19.458 689.151 26.8955 697.026 26.8411 696.972 34.4661 704.034 34.4059 703.982 42.0934 710.17 42.0245 710.118 49.837 715.493 49.756 715.443 57.631 719.943 57.4297 719.852 67.0502 723.107 66.3157 725.278 56.5903 721.987 48.5775 717.409 40.6901 711.982 32.9381 705.743 25.2558 698.627 17.7725 690.704 10.3577 682.032 3.19714 672.61-3.82971 662.446-10.6661 651.721-17.3127 640.309-23.7702 628.272-29.9127 615.674-35.801 602.582-41.5021 588.987-46.827 574.891-51.8994 560.363-56.6586 545.459-61.1047 530.18-65.1751 514.587-68.8694 498.682-72.1879 482.529-75.1303 466.063-77.6976 449.47-79.7638 432.69-81.4544 415.784-82.6441 398.753-83.3955 381.659-83.646 364.562-83.1455 330.406-81.7693 296.502-79.5799 263.16-76.5771 230.567-72.8239 199.103-70.6961 183.833-68.3812 168.942-65.9411 154.427-63.3757 140.411-60.6842 126.766-57.8049 113.684-54.8629 101.102-51.7943 89.1405-48.6002 77.7421-45.3418 66.9644-41.9563 56.8705-38.5059 47.4602-34.9274 38.7338-31.3432 30.8108-27.627 23.6933-23.9006 17.3774-20.0944 11.9854-16.2028 7.392-12.2783 3.7892-8.29571 1.04707-4.16729-0.617617-0.146634-1.13641ZM65.1666 709.778 89.0625 729.125 59.2475 736.634Z" fill="#4472C4" transform="matrix(1.83697e-16 1 1 -1.83697e-16 3124 423)"/><path d="M0.0860022-1.1426 5.98395-0.69867 11.8846 0.648215 17.7684 2.75873 23.6389 5.75778 29.3577 9.50677 35.0566 14.0026 40.6827 19.1861 46.1732 25.0553 51.5889 31.6045 56.9366 38.7768 62.0914 46.5089 67.1778 54.8607 72.1371 63.7748 76.9059 73.1869 81.484 83.033 85.9347 93.439 90.1965 104.219 94.2704 115.437 98.0916 127.026 101.789 138.997 108.365 163.858 113.938 189.847 118.447 216.71 121.828 244.2 123.895 272.131 124.584 300.309 124.083 328.476 122.706 356.386 120.516 383.859 117.512 410.708 113.756 436.683 109.313 461.529 106.871 473.427 104.304 485.008 101.612 496.216 98.7923 507.054 95.7849 517.392 92.7148 527.292 89.5176 536.695 86.2561 545.539 82.8673 553.885 79.4109 561.678 75.8267 568.784 72.2372 575.333 68.4635 581.281 60.9499 588.856 59.3229 587.243 66.749 579.756 66.5949 579.949 70.2824 574.136 70.2452 574.199 73.8077 567.699 73.7895 567.734 77.352 560.671 77.3276 560.723 80.7651 552.973 80.7508 553.006 84.1258 544.694 84.1124 544.729 87.3624 535.916 87.3527 535.944 90.5402 526.569 90.5306 526.598 93.5931 516.723 93.5873 516.742 96.5873 506.43 96.5786 506.462 99.3911 495.649 99.3858 495.67 102.073 484.482 102.069 484.502 104.631 472.94 104.628 472.957 107.065 461.082 107.06 461.111 111.497 436.298 111.491 436.336 115.241 410.399 115.236 410.435 118.236 383.623 118.233 383.659 120.42 356.221 120.418 356.256 121.793 328.381 121.792 328.417 122.292 300.292 122.292 300.34 121.605 272.215 121.607 272.272 119.545 244.397 119.55 244.452 116.175 217.015 116.182 217.065 111.682 190.252 111.692 190.303 106.13 164.365 106.142 164.418 99.5798 139.605 99.5927 139.651 95.9052 127.713 95.9118 127.734 92.0993 116.171 92.1105 116.204 88.048 105.016 88.0594 105.046 83.8094 94.2963 83.8215 94.3256 79.384 83.9506 79.3985 83.9831 74.836 74.1706 74.8529 74.2054 70.1029 64.8304 70.1237 64.8696 65.1862 55.9946 65.2089 56.0335 60.1464 47.721 60.1716 47.7606 55.0466 40.0731 55.0814 40.1224 49.7689 32.9974 49.8045 33.0427 44.4295 26.5427 44.4757 26.5953 39.0382 20.7828 39.0986 20.8427 33.5361 15.7177 33.6028 15.7746 27.9778 11.3371 28.0593 11.3958 22.4343 7.70828 22.5412 7.77039 16.7912 4.83289 16.9256 4.89105 11.1756 2.82855 11.3075 2.8671 5.55751 1.5546 5.7265 1.5801-0.0860022 1.1426ZM71.484 597.066 40.9375 600.562 56.4683 574.028Z" fill="#4472C4" transform="matrix(1.83697e-16 1 1 -1.83697e-16 3383 731)"/></g></svg>