<svg width="1304" height="656" xmlns="http://www.w3.org/2000/svg" xmlns:xlink="http://www.w3.org/1999/xlink" xml:space="preserve" overflow="hidden"><defs><clipPath id="clip0"><rect x="1187" y="239" width="1304" height="656"/></clipPath></defs><g clip-path="url(#clip0)" transform="translate(-1187 -239)"><rect x="1771.5" y="736.5" width="311" height="156" stroke="#000000" stroke-width="4.58333" stroke-miterlimit="8" fill="#FFD966"/><text font-family="LM Roman 10,LM Roman 10_MSFontService,sans-serif" font-weight="700" font-size="30" transform="matrix(1 0 0 1 1847.96 788)">Pixel based <tspan font-size="30" x="-34.0772" y="36">probabilities per </tspan><tspan font-size="30" x="-3.13965" y="72">class (.zarr)</tspan></text><rect x="2176.5" y="736.5" width="312" height="156" stroke="#000000" stroke-width="4.58333" stroke-miterlimit="8" fill="#FF0000"/><text font-family="LM Roman 10,LM Roman 10_MSFontService,sans-serif" font-weight="700" font-size="30" transform="translate(2239.51 806)">Bottom mask<tspan font-size="30" x="48.125" y="36">(.zarr)</tspan></text><rect x="1771.5" y="488.5" width="311" height="156" stroke="#000000" stroke-width="4.58333" stroke-miterlimit="8"/><text fill="#FFFFFF" font-family="LM Roman 10,LM Roman 10_MSFontService,sans-serif" font-weight="700" font-size="30" transform="matrix(1 0 0 1 1853.7 541)">Pretrained<tspan font-size="30" x="0" y="36">CRIMAC/</tspan><tspan font-size="30" x="31.2355" y="72">U</tspan><tspan font-size="30" x="54.1521" y="72">-</tspan><tspan font-size="30" x="65.0376" y="72">Net</tspan></text><rect x="1189.5" y="488.5" width="312" height="156" stroke="#000000" stroke-width="4.58333" stroke-miterlimit="8"/><text fill="#FFFFFF" font-family="LM Roman 10,LM Roman 10_MSFontService,sans-serif" font-weight="700" font-size="30" transform="matrix(1 0 0 1 1269.99 559)">CRIMAC /<tspan font-size="30" x="-6.57715" y="36">preprocessor</tspan></text><rect x="2176.5" y="488.5" width="312" height="156" stroke="#000000" stroke-width="4.58333" stroke-miterlimit="8"/><text fill="#FFFFFF" font-family="LM Roman 10,LM Roman 10_MSFontService,sans-serif" font-weight="700" font-size="30" transform="matrix(1 0 0 1 2209.72 559)">CRIMAC/bottom<tspan font-size="30" x="59.5833" y="36">detection</tspan></text><rect x="1969.5" y="241.5" width="312" height="157" stroke="#000000" stroke-width="4.58333" stroke-miterlimit="8" fill="#00B050"/><text fill="#FFFFFF" font-family="LM Roman 10,LM Roman 10_MSFontService,sans-serif" font-weight="700" font-size="30" transform="matrix(1 0 0 1 2052.55 312)">Sv dataset  <tspan font-size="30" x="27.7979" y="36">(.zarr)</tspan></text><path d="M0.474553-1.04294 177.895 79.6859 176.946 81.7717-0.474553 1.04294ZM178.944 66.3152 198.28 90.2198 167.554 91.3459Z" transform="matrix(-1 0 0 1 2124.28 398)"/><path d="M2125.46 396.949 2311.74 478.024 2310.83 480.125 2124.54 399.051ZM2312.57 464.638 2332.3 488.22 2301.59 489.853Z"/><path d="M1927.15 644 1927.15 712.851 1924.85 712.851 1924.85 644ZM1939.75 708.268 1926 735.768 1912.25 708.268Z"/><path d="M2333.15 644 2333.15 712.851 2330.85 712.851 2330.85 644ZM2345.75 708.268 2332 735.768 2318.25 708.268Z"/><rect x="1189.5" y="241.5" width="312" height="156" stroke="#000000" stroke-width="4.58333" stroke-miterlimit="8" fill="#4472C4"/><text fill="#FFFFFF" font-family="LM Roman 10,LM Roman 10_MSFontService,sans-serif" font-weight="700" font-size="30" transform="matrix(1 0 0 1 1230.94 311)">Acoustic dataset<tspan font-size="30" x="71.6146" y="36">(.raw)</tspan></text><path d="M1346.15 397 1346.15 465.972 1343.85 465.972 1343.85 397ZM1358.75 461.389 1345 488.889 1331.25 461.389Z"/><rect x="1189.5" y="736.5" width="312" height="156" stroke="#000000" stroke-width="4.58333" stroke-miterlimit="8" fill="#00B050"/><text fill="#FFFFFF" font-family="LM Roman 10,LM Roman 10_MSFontService,sans-serif" font-weight="700" font-size="30" transform="matrix(1 0 0 1 1272.77 806)">Sv dataset<tspan font-size="30" x="27.7979" y="36">(.zarr)</tspan></text><path d="M1346.15 644 1346.15 712.851 1343.85 712.851 1343.85 644ZM1358.75 708.268 1345 735.768 1331.25 708.268Z"/><path d="M0-1.14583 2.29167-1.14583 2.29167 1.14583 0 1.14583ZM4.58333-1.14583 6.875-1.14583 6.875 1.14583 4.58333 1.14583ZM9.16667-1.14583 11.4583-1.14583 11.4583 1.14583 9.16667 1.14583ZM13.75-1.14583 16.0417-1.14583 16.0417 1.14583 13.75 1.14583ZM18.3333-1.14583 20.625-1.14583 20.625 1.14583 18.3333 1.14583ZM22.9167-1.14583 25.2083-1.14583 25.2083 1.14583 22.9167 1.14583ZM27.5-1.14583 29.7917-1.14583 29.7917 1.14583 27.5 1.14583ZM32.0833-1.14583 34.375-1.14583 34.375 1.14583 32.0833 1.14583ZM36.6667-1.14583 38.9583-1.14583 38.9583 1.14583 36.6667 1.14583ZM41.25-1.14583 43.5417-1.14583 43.5417 1.14583 41.25 1.14583ZM45.8333-1.14583 48.125-1.14583 48.125 1.14583 45.8333 1.14583ZM50.4167-1.14583 52.7083-1.14583 52.7083 1.14583 50.4167 1.14583ZM55-1.14583 57.2917-1.14583 57.2917 1.14583 55 1.14583ZM59.5833-1.14583 61.875-1.14583 61.875 1.14583 59.5833 1.14583ZM64.1667-1.14583 66.4583-1.14583 66.4583 1.14583 64.1667 1.14583ZM68.75-1.14583 71.0417-1.14583 71.0417 1.14583 68.75 1.14583ZM73.3333-1.14583 75.625-1.14583 75.625 1.14583 73.3333 1.14583ZM77.9167-1.14583 80.2083-1.14583 80.2083 1.14583 77.9167 1.14583ZM82.5-1.14583 84.7917-1.14583 84.7917 1.14583 82.5 1.14583ZM87.0833-1.14583 89.375-1.14583 89.375 1.14583 87.0833 1.14583ZM91.6667-1.14583 93.9583-1.14583 93.9583 1.14583 91.6667 1.14583ZM96.25-1.14583 98.5417-1.14583 98.5417 1.14583 96.25 1.14583ZM100.833-1.14583 103.125-1.14583 103.125 1.14583 100.833 1.14583ZM105.417-1.14583 107.708-1.14583 107.708 1.14583 105.417 1.14583ZM110-1.14583 112.292-1.14583 112.292 1.14583 110 1.14583ZM114.583-1.14583 116.875-1.14583 116.875 1.14583 114.583 1.14583ZM119.167-1.14583 121.458-1.14583 121.458 1.14583 119.167 1.14583ZM123.75-1.14583 126.042-1.14583 126.042 1.14583 123.75 1.14583ZM128.333-1.14583 130.625-1.14583 130.625 1.14583 128.333 1.14583ZM132.917-1.14583 135.208-1.14583 135.208 1.14583 132.917 1.14583ZM137.5-1.14583 139.792-1.14583 139.792 1.14583 137.5 1.14583ZM142.319 0.910385 142.319 3.20205 140.027 3.20205 140.027 0.910385ZM142.319 5.49372 142.319 7.78538 140.027 7.78538 140.027 5.49372ZM142.319 10.0771 142.319 12.3687 140.027 12.3687 140.027 10.0771ZM142.319 14.6604 142.319 16.9521 140.027 16.9521 140.027 14.6604ZM142.319 19.2437 142.319 21.5354 140.027 21.5354 140.027 19.2437ZM142.319 23.8271 142.319 26.1187 140.027 26.1187 140.027 23.8271ZM142.319 28.4104 142.319 30.7021 140.027 30.7021 140.027 28.4104ZM142.319 32.9937 142.319 35.2854 140.027 35.2854 140.027 32.9937ZM142.319 37.5771 142.319 39.8687 140.027 39.8687 140.027 37.5771ZM142.319 42.1604 142.319 44.4521 140.027 44.4521 140.027 42.1604ZM142.319 46.7437 142.319 49.0354 140.027 49.0354 140.027 46.7437ZM142.319 51.3271 142.319 53.6187 140.027 53.6187 140.027 51.3271ZM142.319 55.9104 142.319 58.2021 140.027 58.2021 140.027 55.9104ZM142.319 60.4937 142.319 62.7854 140.027 62.7854 140.027 60.4937ZM142.319 65.077 142.319 67.3687 140.027 67.3687 140.027 65.077ZM142.319 69.6604 142.319 71.952 140.027 71.952 140.027 69.6604ZM142.319 74.2437 142.319 76.5354 140.027 76.5354 140.027 74.2437ZM142.319 78.827 142.319 81.1187 140.027 81.1187 140.027 78.827ZM142.319 83.4104 142.319 85.702 140.027 85.702 140.027 83.4104ZM142.319 87.9937 142.319 90.2854 140.027 90.2854 140.027 87.9937ZM142.319 92.577 142.319 94.8687 140.027 94.8687 140.027 92.577ZM142.319 97.1604 142.319 99.452 140.027 99.452 140.027 97.1604ZM142.319 101.744 142.319 104.035 140.027 104.035 140.027 101.744ZM142.319 106.327 142.319 108.619 140.027 108.619 140.027 106.327ZM142.319 110.91 142.319 113.202 140.027 113.202 140.027 110.91ZM142.319 115.494 142.319 117.785 140.027 117.785 140.027 115.494ZM142.319 120.077 142.319 122.369 140.027 122.369 140.027 120.077ZM142.319 124.66 142.319 126.952 140.027 126.952 140.027 124.66ZM142.319 129.244 142.319 131.535 140.027 131.535 140.027 129.244ZM142.319 133.827 142.319 136.119 140.027 136.119 140.027 133.827ZM142.319 138.41 142.319 140.702 140.027 140.702 140.027 138.41ZM142.319 142.994 142.319 145.285 140.027 145.285 140.027 142.994ZM142.319 147.577 142.319 149.869 140.027 149.869 140.027 147.577ZM142.319 152.16 142.319 154.452 140.027 154.452 140.027 152.16ZM142.319 156.744 142.319 159.035 140.027 159.035 140.027 156.744ZM142.319 161.327 142.319 163.619 140.027 163.619 140.027 161.327ZM142.319 165.91 142.319 168.202 140.027 168.202 140.027 165.91ZM142.319 170.494 142.319 172.785 140.027 172.785 140.027 170.494ZM142.319 175.077 142.319 177.369 140.027 177.369 140.027 175.077ZM142.319 179.66 142.319 181.952 140.027 181.952 140.027 179.66ZM142.319 184.244 142.319 186.535 140.027 186.535 140.027 184.244ZM142.319 188.827 142.319 191.119 140.027 191.119 140.027 188.827ZM142.319 193.41 142.319 195.702 140.027 195.702 140.027 193.41ZM142.319 197.994 142.319 200.285 140.027 200.285 140.027 197.994ZM142.319 202.577 142.319 204.869 140.027 204.869 140.027 202.577ZM142.319 207.16 142.319 209.452 140.027 209.452 140.027 207.16ZM142.319 211.744 142.319 214.035 140.027 214.035 140.027 211.744ZM142.319 216.327 142.319 218.619 140.027 218.619 140.027 216.327ZM142.319 220.91 142.319 223.202 140.027 223.202 140.027 220.91ZM142.319 225.494 142.319 227.785 140.027 227.785 140.027 225.494ZM142.319 230.077 142.319 232.369 140.027 232.369 140.027 230.077ZM142.319 234.66 142.319 236.952 140.027 236.952 140.027 234.66ZM142.319 239.244 142.319 241.535 140.027 241.535 140.027 239.244ZM142.319 243.827 142.319 246.119 140.027 246.119 140.027 243.827ZM142.319 248.41 142.319 250.702 140.027 250.702 140.027 248.41ZM142.319 252.994 142.319 255.285 140.027 255.285 140.027 252.994ZM142.319 257.577 142.319 259.869 140.027 259.869 140.027 257.577ZM142.319 262.16 142.319 264.452 140.027 264.452 140.027 262.16ZM142.319 266.744 142.319 269.035 140.027 269.035 140.027 266.744ZM142.319 271.327 142.319 273.619 140.027 273.619 140.027 271.327ZM142.319 275.91 142.319 278.202 140.027 278.202 140.027 275.91ZM142.319 280.494 142.319 282.785 140.027 282.785 140.027 280.494ZM142.319 285.077 142.319 287.369 140.027 287.369 140.027 285.077ZM142.319 289.66 142.319 291.952 140.027 291.952 140.027 289.66ZM142.319 294.244 142.319 296.535 140.027 296.535 140.027 294.244ZM142.319 298.827 142.319 301.119 140.027 301.119 140.027 298.827ZM142.319 303.41 142.319 305.702 140.027 305.702 140.027 303.41ZM142.319 307.994 142.319 310.285 140.027 310.285 140.027 307.994ZM142.319 312.577 142.319 314.869 140.027 314.869 140.027 312.577ZM142.319 317.16 142.319 319.452 140.027 319.452 140.027 317.16ZM142.319 321.744 142.319 324.035 140.027 324.035 140.027 321.744ZM142.319 326.327 142.319 328.619 140.027 328.619 140.027 326.327ZM142.319 330.91 142.319 333.202 140.027 333.202 140.027 330.91ZM142.319 335.494 142.319 337.785 140.027 337.785 140.027 335.494ZM142.319 340.077 142.319 342.369 140.027 342.369 140.027 340.077ZM142.319 344.66 142.319 346.952 140.027 346.952 140.027 344.66ZM142.319 349.244 142.319 351.535 140.027 351.535 140.027 349.244ZM142.319 353.827 142.319 356.119 140.027 356.119 140.027 353.827ZM142.319 358.41 142.319 360.702 140.027 360.702 140.027 358.41ZM142.319 362.994 142.319 365.285 140.027 365.285 140.027 362.994ZM142.319 367.577 142.319 369.869 140.027 369.869 140.027 367.577ZM142.319 372.16 142.319 374.452 140.027 374.452 140.027 372.16ZM142.319 376.744 142.319 379.035 140.027 379.035 140.027 376.744ZM142.319 381.327 142.319 383.619 140.027 383.619 140.027 381.327ZM142.319 385.91 142.319 388.202 140.027 388.202 140.027 385.91ZM142.319 390.494 142.319 392.785 140.027 392.785 140.027 390.494ZM142.319 395.077 142.319 397.369 140.027 397.369 140.027 395.077ZM142.319 399.66 142.319 401.952 140.027 401.952 140.027 399.66ZM142.319 404.244 142.319 406.535 140.027 406.535 140.027 404.244ZM142.319 408.827 142.319 411.119 140.027 411.119 140.027 408.827ZM142.319 413.41 142.319 415.702 140.027 415.702 140.027 413.41ZM142.319 417.994 142.319 420.285 140.027 420.285 140.027 417.994ZM142.319 422.577 142.319 424.869 140.027 424.869 140.027 422.577ZM142.319 427.16 142.319 429.452 140.027 429.452 140.027 427.16ZM142.319 431.744 142.319 434.035 140.027 434.035 140.027 431.744ZM142.319 436.327 142.319 438.619 140.027 438.619 140.027 436.327ZM142.319 440.91 142.319 443.202 140.027 443.202 140.027 440.91ZM142.319 445.494 142.319 447.785 140.027 447.785 140.027 445.494ZM142.319 450.077 142.319 452.369 140.027 452.369 140.027 450.077ZM142.319 454.66 142.319 456.952 140.027 456.952 140.027 454.66ZM142.319 459.244 142.319 461.535 140.027 461.535 140.027 459.244ZM142.319 463.827 142.319 466.119 140.027 466.119 140.027 463.827ZM142.319 468.41 142.319 470.702 140.027 470.702 140.027 468.41ZM142.319 472.994 142.319 475.285 140.027 475.285 140.027 472.994ZM142.319 477.577 142.319 479.869 140.027 479.869 140.027 477.577ZM142.319 482.16 142.319 484.452 140.027 484.452 140.027 482.16ZM142.319 486.744 142.319 489.035 140.027 489.035 140.027 486.744ZM142.319 491.327 142.319 493.619 140.027 493.619 140.027 491.327ZM142.45 493.487 144.742 493.487 144.742 495.779 142.45 495.779ZM147.033 493.487 149.325 493.487 149.325 495.779 147.033 495.779ZM151.617 493.487 153.908 493.487 153.908 495.779 151.617 495.779ZM156.2 493.487 158.492 493.487 158.492 495.779 156.2 495.779ZM160.783 493.487 163.075 493.487 163.075 495.779 160.783 495.779ZM165.367 493.487 167.658 493.487 167.658 495.779 165.367 495.779ZM169.95 493.487 172.242 493.487 172.242 495.779 169.95 495.779ZM174.533 493.487 176.825 493.487 176.825 495.779 174.533 495.779ZM179.117 493.487 181.408 493.487 181.408 495.779 179.117 495.779ZM183.7 493.487 185.992 493.487 185.992 495.779 183.7 495.779ZM188.283 493.487 190.575 493.487 190.575 495.779 188.283 495.779ZM192.867 493.487 195.158 493.487 195.158 495.779 192.867 495.779ZM197.45 493.487 199.742 493.487 199.742 495.779 197.45 495.779ZM202.033 493.487 204.325 493.487 204.325 495.779 202.033 495.779ZM206.617 493.487 208.908 493.487 208.908 495.779 206.617 495.779ZM211.2 493.487 213.492 493.487 213.492 495.779 211.2 495.779ZM215.783 493.487 218.075 493.487 218.075 495.779 215.783 495.779ZM220.367 493.487 222.658 493.487 222.658 495.779 220.367 495.779ZM224.95 493.487 227.242 493.487 227.242 495.779 224.95 495.779ZM229.533 493.487 231.825 493.487 231.825 495.779 229.533 495.779ZM234.117 493.487 236.408 493.487 236.408 495.779 234.117 495.779ZM238.7 493.487 240.992 493.487 240.992 495.779 238.7 495.779ZM243.283 493.487 245.575 493.487 245.575 495.779 243.283 495.779ZM247.867 493.487 250.158 493.487 250.158 495.779 247.867 495.779ZM252.45 493.487 254.742 493.487 254.742 495.779 252.45 495.779ZM257.033 493.487 259.325 493.487 259.325 495.779 257.033 495.779ZM261.617 493.487 263.908 493.487 263.908 495.779 261.617 495.779ZM266.2 493.487 268.492 493.487 268.492 495.779 266.2 495.779ZM270.783 493.487 273.075 493.487 273.075 495.779 270.783 495.779ZM275.367 493.487 277.658 493.487 277.658 495.779 275.367 495.779ZM279.95 493.487 282.242 493.487 282.242 495.779 279.95 495.779ZM284.533 493.487 286.825 493.487 286.825 495.779 284.533 495.779ZM289.117 493.487 291.408 493.487 291.408 495.779 289.117 495.779ZM293.7 493.487 295.992 493.487 295.992 495.779 293.7 495.779ZM298.283 493.487 300.575 493.487 300.575 495.779 298.283 495.779ZM302.867 493.487 305.158 493.487 305.158 495.779 302.867 495.779ZM307.45 493.487 309.742 493.487 309.742 495.779 307.45 495.779ZM312.033 493.487 314.325 493.487 314.325 495.779 312.033 495.779ZM316.617 493.487 318.908 493.487 318.908 495.779 316.617 495.779ZM321.2 493.487 323.492 493.487 323.492 495.779 321.2 495.779ZM325.783 493.487 328.075 493.487 328.075 495.779 325.783 495.779ZM330.367 493.487 332.658 493.487 332.658 495.779 330.367 495.779ZM334.95 493.487 337.242 493.487 337.242 495.779 334.95 495.779ZM339.533 493.487 341.825 493.487 341.825 495.779 339.533 495.779ZM344.117 493.487 346.408 493.487 346.408 495.779 344.117 495.779ZM348.7 493.487 350.992 493.487 350.992 495.779 348.7 495.779ZM353.283 493.487 355.575 493.487 355.575 495.779 353.283 495.779ZM357.867 493.487 360.158 493.487 360.158 495.779 357.867 495.779ZM362.45 493.487 364.742 493.487 364.742 495.779 362.45 495.779ZM367.033 493.487 369.325 493.487 369.325 495.779 367.033 495.779ZM371.617 493.487 373.908 493.487 373.908 495.779 371.617 495.779ZM376.2 493.487 378.492 493.487 378.492 495.779 376.2 495.779ZM380.783 493.487 383.075 493.487 383.075 495.779 380.783 495.779ZM385.367 493.487 387.658 493.487 387.658 495.779 385.367 495.779ZM389.95 493.487 392.242 493.487 392.242 495.779 389.95 495.779ZM394.533 493.487 396.825 493.487 396.825 495.779 394.533 495.779ZM399.117 493.487 401.408 493.487 401.408 495.779 399.117 495.779ZM403.7 493.487 405.992 493.487 405.992 495.779 403.7 495.779ZM408.283 493.487 410.575 493.487 410.575 495.779 408.283 495.779ZM412.867 493.487 415.158 493.487 415.158 495.779 412.867 495.779ZM417.45 493.487 419.742 493.487 419.742 495.779 417.45 495.779ZM422.033 493.487 424.325 493.487 424.325 495.779 422.033 495.779ZM426.617 493.487 428.908 493.487 428.908 495.779 426.617 495.779ZM431.2 493.487 433.492 493.487 433.492 495.779 431.2 495.779ZM435.783 493.487 438.075 493.487 438.075 495.779 435.783 495.779ZM440.367 493.487 442.658 493.487 442.658 495.779 440.367 495.779ZM444.95 493.487 445.056 493.487 445.056 495.779 444.95 495.779ZM440.472 480.883 467.972 494.633 440.472 508.383Z" transform="matrix(1 0 0 -1 1501 813.633)"/></g></svg>