<svg width="1493" height="656" xmlns="http://www.w3.org/2000/svg" xmlns:xlink="http://www.w3.org/1999/xlink" overflow="hidden"><defs><clipPath id="clip0"><rect x="998" y="239" width="1493" height="656"/></clipPath></defs><g clip-path="url(#clip0)" transform="translate(-998 -239)"><rect x="1771.5" y="736.5" width="311" height="156" stroke="#000000" stroke-width="4.58333" stroke-miterlimit="8" fill="#FFD966"/><text font-family="LM Roman 10,LM Roman 10_MSFontService,sans-serif" font-weight="700" font-size="30" transform="matrix(1 0 0 1 1847.96 788)">Pixel based <tspan font-size="30" x="-34.0772" y="36">probabilities per </tspan><tspan font-size="30" x="-3.13965" y="72">class (.zarr)</tspan></text><rect x="2176.5" y="736.5" width="312" height="156" stroke="#000000" stroke-width="4.58333" stroke-miterlimit="8" fill="#FF0000"/><text font-family="LM Roman 10,LM Roman 10_MSFontService,sans-serif" font-weight="700" font-size="30" transform="matrix(1 0 0 1 2239.51 806)">Bottom mask<tspan font-size="30" x="48.125" y="36">(.zarr)</tspan></text><rect x="1771.5" y="488.5" width="311" height="156" stroke="#000000" stroke-width="4.58333" stroke-miterlimit="8"/><text fill="#FFFFFF" font-family="LM Roman 10,LM Roman 10_MSFontService,sans-serif" font-weight="700" font-size="30" transform="matrix(1 0 0 1 1853.7 541)">Pretrained<tspan font-size="30" x="0" y="36">CRIMAC</tspan><tspan font-size="30" x="130.052" y="36">/</tspan><tspan font-size="30" x="31.2355" y="72">U</tspan><tspan font-size="30" x="54.1521" y="72">-</tspan><tspan font-size="30" x="65.0376" y="72">Net</tspan></text><rect x="1189.5" y="488.5" width="312" height="156" stroke="#000000" stroke-width="4.58333" stroke-miterlimit="8"/><text fill="#FFFFFF" font-family="LM Roman 10,LM Roman 10_MSFontService,sans-serif" font-weight="700" font-size="30" transform="matrix(1 0 0 1 1269.99 559)">CRIMAC /<tspan font-size="30" x="-6.57715" y="36">preprocessor</tspan></text><rect x="2176.5" y="488.5" width="312" height="156" stroke="#000000" stroke-width="4.58333" stroke-miterlimit="8"/><text fill="#FFFFFF" font-family="LM Roman 10,LM Roman 10_MSFontService,sans-serif" font-weight="700" font-size="30" transform="matrix(1 0 0 1 2209.72 559)">CRIMAC/bottom<tspan font-size="30" x="59.5833" y="36">detection</tspan></text><rect x="1969.5" y="241.5" width="312" height="157" stroke="#000000" stroke-width="4.58333" stroke-miterlimit="8" fill="#00B050"/><text fill="#FFFFFF" font-family="LM Roman 10,LM Roman 10_MSFontService,sans-serif" font-weight="700" font-size="30" transform="matrix(1 0 0 1 2052.55 312)">Sv dataset  <tspan font-size="30" x="27.7979" y="36">(.zarr)</tspan></text><path d="M0.474553-1.04294 177.895 79.6859 176.946 81.7717-0.474553 1.04294ZM178.944 66.3152 198.28 90.2198 167.554 91.3459Z" transform="matrix(-1 0 0 1 2124.28 398)"/><path d="M2125.46 396.949 2311.74 478.024 2310.83 480.125 2124.54 399.051ZM2312.57 464.638 2332.3 488.22 2301.59 489.853Z"/><path d="M1927.15 644 1927.15 712.851 1924.85 712.851 1924.85 644ZM1939.75 708.268 1926 735.768 1912.25 708.268Z"/><path d="M2333.15 644 2333.15 712.851 2330.85 712.851 2330.85 644ZM2345.75 708.268 2332 735.768 2318.25 708.268Z"/><path d="M0.485488-1.0379 176.172 81.1413 175.201 83.2171-0.485488 1.0379ZM177.361 67.7825 196.445 91.889 165.709 92.6921Z" transform="matrix(-1 0 0 1 1541.44 397)"/><rect x="1000.5" y="241.5" width="312" height="156" stroke="#000000" stroke-width="4.58333" stroke-miterlimit="8" fill="#4472C4"/><text fill="#FFFFFF" font-family="LM Roman 10,LM Roman 10_MSFontService,sans-serif" font-weight="700" font-size="30" transform="matrix(1 0 0 1 1042.33 311)">Acoustic dataset<tspan font-size="30" x="71.6146" y="36">(.raw)</tspan></text><rect x="1385.5" y="241.5" width="312" height="156" stroke="#000000" stroke-width="4.58333" stroke-miterlimit="8" fill="#FFFFFF"/><text font-family="LM Roman 10,LM Roman 10_MSFontService,sans-serif" font-weight="700" font-size="30" transform="matrix(1 0 0 1 1479.52 293)">Operator <tspan font-size="30" x="-18.3333" y="36">annotations</tspan><tspan font-size="30" x="11.1834" y="72">(.work)</tspan></text><path d="M1156.5 395.97 1324.51 477.822 1323.51 479.882 1155.5 398.03ZM1325.91 464.484 1344.61 488.889 1313.87 489.206Z"/><rect x="1000.5" y="736.5" width="312" height="156" stroke="#000000" stroke-width="4.58333" stroke-miterlimit="8" fill="#00B050"/><text fill="#FFFFFF" font-family="LM Roman 10,LM Roman 10_MSFontService,sans-serif" font-weight="700" font-size="30" transform="matrix(1 0 0 1 1084.15 806)">Sv dataset<tspan font-size="30" x="27.7979" y="36">(.zarr)</tspan></text><rect x="1385.5" y="736.5" width="312" height="156" stroke="#000000" stroke-width="4.58333" stroke-miterlimit="8" fill="#FFFFFF"/><text font-family="LM Roman 10,LM Roman 10_MSFontService,sans-serif" font-weight="700" font-size="30" transform="matrix(1 0 0 1 1457.47 806)">Annotations<tspan font-size="30" x="14.025" y="36">(.parquet)</tspan></text><path d="M0.501306-1.03035 168.508 80.7116 167.506 82.7723-0.501306 1.03035ZM169.901 67.3725 188.614 91.7681 157.87 92.101Z" transform="matrix(-1 0 0 1 1344.61 644)"/><path d="M1345.49 642.962 1521.17 725.03 1520.2 727.107 1344.52 645.038ZM1522.35 711.671 1541.44 735.768 1510.71 736.586Z"/></g></svg>