<svg width="852" height="401" xmlns="http://www.w3.org/2000/svg" xmlns:xlink="http://www.w3.org/1999/xlink" overflow="hidden"><defs><clipPath id="clip0"><rect x="1013" y="363" width="852" height="401"/></clipPath></defs><g clip-path="url(#clip0)" transform="translate(-1013 -363)"><rect x="1356.5" y="370.5" width="92.0001" height="85.9999" stroke="#000000" stroke-width="4.58333" stroke-miterlimit="8" fill="#FFFF00"/><text fill="#FFFF00" font-family="LM Roman 10,LM Roman 10_MSFontService,sans-serif" font-weight="700" font-size="55" transform="matrix(1 0 0 1 1386.99 433)">0</text><rect x="1448.5" y="370.5" width="91.9998" height="85.9999" stroke="#000000" stroke-width="4.58333" stroke-miterlimit="8" fill="#FFFF00"/><text fill="#FFFF00" font-family="LM Roman 10,LM Roman 10_MSFontService,sans-serif" font-weight="700" font-size="55" transform="translate(1479.12 433)">0</text><rect x="1356.5" y="456.5" width="92.0001" height="85.9999" stroke="#000000" stroke-width="4.58333" stroke-miterlimit="8" fill="#FFFF00"/><text fill="#FFFF00" font-family="LM Roman 10,LM Roman 10_MSFontService,sans-serif" font-weight="700" font-size="55" transform="matrix(1 0 0 1 1386.99 519)">0</text><rect x="1448.5" y="456.5" width="91.9998" height="85.9999" stroke="#000000" stroke-width="4.58333" stroke-miterlimit="8" fill="#FFFF00"/><text fill="#FFFF00" font-family="LM Roman 10,LM Roman 10_MSFontService,sans-serif" font-weight="700" font-size="55" transform="matrix(1 0 0 1 1479.12 519)">0</text><rect x="1540.5" y="370.5" width="92.0001" height="85.9999" stroke="#000000" stroke-width="4.58333" stroke-miterlimit="8" fill="#FFFF00"/><text fill="#FFFF00" font-family="LM Roman 10,LM Roman 10_MSFontService,sans-serif" font-weight="700" font-size="55" transform="matrix(1 0 0 1 1571.26 433)">0</text><rect x="1540.5" y="456.5" width="92.0001" height="85.9999" stroke="#000000" stroke-width="4.58333" stroke-miterlimit="8" fill="#FFFF00"/><text fill="#FFFF00" font-family="LM Roman 10,LM Roman 10_MSFontService,sans-serif" font-weight="700" font-size="55" transform="matrix(1 0 0 1 1571.26 519)">0</text><rect x="1540.5" y="542.5" width="92.0001" height="85.9999" stroke="#000000" stroke-width="4.58333" stroke-miterlimit="8" fill="#FFFF00"/><rect x="1356.5" y="542.5" width="92.0001" height="85.9999" stroke="#000000" stroke-width="4.58333" stroke-miterlimit="8" fill="#FFFF00"/><text fill="#FFFF00" font-family="LM Roman 10,LM Roman 10_MSFontService,sans-serif" font-weight="700" font-size="55" transform="matrix(1 0 0 1 1386.99 605)">0</text><rect x="1448.5" y="542.5" width="91.9998" height="85.9999" stroke="#000000" stroke-width="4.58333" stroke-miterlimit="8" fill="#FFFF00"/><text fill="#FFFF00" font-family="LM Roman 10,LM Roman 10_MSFontService,sans-serif" font-weight="700" font-size="55" transform="matrix(1 0 0 1 1479.12 605)">0</text><rect x="1343.5" y="382.5" width="92.0001" height="85.9999" stroke="#000000" stroke-width="4.58333" stroke-miterlimit="8" fill="#0070C0"/><text fill="#0070C0" font-family="LM Roman 10,LM Roman 10_MSFontService,sans-serif" font-weight="700" font-size="55" transform="matrix(1 0 0 1 1374.34 445)">0</text><rect x="1435.5" y="382.5" width="92.0001" height="85.9999" stroke="#000000" stroke-width="4.58333" stroke-miterlimit="8" fill="#0070C0"/><text fill="#0070C0" font-family="LM Roman 10,LM Roman 10_MSFontService,sans-serif" font-weight="700" font-size="55" transform="translate(1466.47 445)">0</text><rect x="1343.5" y="468.5" width="92.0001" height="87" stroke="#000000" stroke-width="4.58333" stroke-miterlimit="8" fill="#0070C0"/><text fill="#0070C0" font-family="LM Roman 10,LM Roman 10_MSFontService,sans-serif" font-weight="700" font-size="55" transform="matrix(1 0 0 1 1374.34 532)">0</text><rect x="1435.5" y="468.5" width="92.0001" height="87" stroke="#000000" stroke-width="4.58333" stroke-miterlimit="8" fill="#0070C0"/><text fill="#0070C0" font-family="LM Roman 10,LM Roman 10_MSFontService,sans-serif" font-weight="700" font-size="55" transform="matrix(1 0 0 1 1466.47 532)">0</text><rect x="1527.5" y="382.5" width="91.9998" height="85.9999" stroke="#000000" stroke-width="4.58333" stroke-miterlimit="8" fill="#0070C0"/><text fill="#0070C0" font-family="LM Roman 10,LM Roman 10_MSFontService,sans-serif" font-weight="700" font-size="55" transform="matrix(1 0 0 1 1558.61 445)">0</text><rect x="1527.5" y="468.5" width="91.9998" height="87" stroke="#000000" stroke-width="4.58333" stroke-miterlimit="8" fill="#0070C0"/><text fill="#0070C0" font-family="LM Roman 10,LM Roman 10_MSFontService,sans-serif" font-weight="700" font-size="55" transform="matrix(1 0 0 1 1558.61 532)">0</text><rect x="1527.5" y="555.5" width="91.9998" height="85.9999" stroke="#000000" stroke-width="4.58333" stroke-miterlimit="8" fill="#0070C0"/><rect x="1343.5" y="555.5" width="92.0001" height="85.9999" stroke="#000000" stroke-width="4.58333" stroke-miterlimit="8" fill="#0070C0"/><text fill="#0070C0" font-family="LM Roman 10,LM Roman 10_MSFontService,sans-serif" font-weight="700" font-size="55" transform="matrix(1 0 0 1 1374.34 618)">0</text><rect x="1435.5" y="555.5" width="92.0001" height="85.9999" stroke="#000000" stroke-width="4.58333" stroke-miterlimit="8" fill="#0070C0"/><text fill="#0070C0" font-family="LM Roman 10,LM Roman 10_MSFontService,sans-serif" font-weight="700" font-size="55" transform="matrix(1 0 0 1 1466.47 618)">0</text><rect x="1328.5" y="397.5" width="92.9998" height="86.0003" stroke="#000000" stroke-width="4.58333" stroke-miterlimit="8" fill="#00B050"/><text fill="#00B050" font-family="LM Roman 10,LM Roman 10_MSFontService,sans-serif" font-weight="700" font-size="55" transform="matrix(1 0 0 1 1359.92 460)">0</text><rect x="1421.5" y="397.5" width="92.0001" height="86.0003" stroke="#000000" stroke-width="4.58333" stroke-miterlimit="8" fill="#00B050"/><text fill="#00B050" font-family="LM Roman 10,LM Roman 10_MSFontService,sans-serif" font-weight="700" font-size="55" transform="translate(1452.06 460)">0</text><rect x="1328.5" y="483.5" width="92.9998" height="85.9999" stroke="#000000" stroke-width="4.58333" stroke-miterlimit="8" fill="#00B050"/><text fill="#00B050" font-family="LM Roman 10,LM Roman 10_MSFontService,sans-serif" font-weight="700" font-size="55" transform="matrix(1 0 0 1 1359.92 546)">0</text><rect x="1421.5" y="483.5" width="92.0001" height="85.9999" stroke="#000000" stroke-width="4.58333" stroke-miterlimit="8" fill="#00B050"/><text fill="#00B050" font-family="LM Roman 10,LM Roman 10_MSFontService,sans-serif" font-weight="700" font-size="55" transform="matrix(1 0 0 1 1452.06 546)">0</text><rect x="1513.5" y="397.5" width="92.0001" height="86.0003" stroke="#000000" stroke-width="4.58333" stroke-miterlimit="8" fill="#00B050"/><text fill="#00B050" font-family="LM Roman 10,LM Roman 10_MSFontService,sans-serif" font-weight="700" font-size="55" transform="matrix(1 0 0 1 1544.19 460)">0</text><rect x="1513.5" y="483.5" width="92.0001" height="85.9999" stroke="#000000" stroke-width="4.58333" stroke-miterlimit="8" fill="#00B050"/><text fill="#00B050" font-family="LM Roman 10,LM Roman 10_MSFontService,sans-serif" font-weight="700" font-size="55" transform="matrix(1 0 0 1 1544.19 546)">0</text><rect x="1513.5" y="569.5" width="92.0001" height="85.9999" stroke="#000000" stroke-width="4.58333" stroke-miterlimit="8" fill="#00B050"/><text fill="#00B050" font-family="LM Roman 10,LM Roman 10_MSFontService,sans-serif" font-weight="700" font-size="55" transform="matrix(1 0 0 1 1544.19 632)">0</text><rect x="1328.5" y="569.5" width="92.9998" height="85.9999" stroke="#000000" stroke-width="4.58333" stroke-miterlimit="8" fill="#00B050"/><text fill="#00B050" font-family="LM Roman 10,LM Roman 10_MSFontService,sans-serif" font-weight="700" font-size="55" transform="matrix(1 0 0 1 1359.92 632)">0</text><rect x="1421.5" y="569.5" width="92.0001" height="85.9999" stroke="#000000" stroke-width="4.58333" stroke-miterlimit="8" fill="#00B050"/><text fill="#00B050" font-family="LM Roman 10,LM Roman 10_MSFontService,sans-serif" font-weight="700" font-size="55" transform="matrix(1 0 0 1 1452.06 632)">0</text><rect x="1498.5" y="496.5" width="92.0001" height="86.0003" stroke="#000000" stroke-width="4.58333" stroke-miterlimit="8" fill="#FF0000"/><text fill="#FF0000" font-family="LM Roman 10,LM Roman 10_MSFontService,sans-serif" font-weight="700" font-size="55" transform="translate(1529.77 559)">0</text><rect x="1498.5" y="582.5" width="92.0001" height="85.9999" stroke="#000000" stroke-width="4.58333" stroke-miterlimit="8" fill="#FF0000"/><text fill="#FF0000" font-family="LM Roman 10,LM Roman 10_MSFontService,sans-serif" font-weight="700" font-size="55" transform="matrix(1 0 0 1 1529.77 645)">0</text><rect x="1314.5" y="582.5" width="92.0001" height="85.9999" stroke="#000000" stroke-width="4.58333" stroke-miterlimit="8" fill="#FF0000"/><text fill="#FF0000" font-family="LM Roman 10,LM Roman 10_MSFontService,sans-serif" font-weight="700" font-size="55" transform="matrix(1 0 0 1 1345.51 645)">0</text><rect x="1406.5" y="582.5" width="91.9998" height="85.9999" stroke="#000000" stroke-width="4.58333" stroke-miterlimit="8" fill="#FF0000"/><text fill="#FF0000" font-family="LM Roman 10,LM Roman 10_MSFontService,sans-serif" font-weight="700" font-size="55" transform="matrix(1 0 0 1 1437.64 645)">0</text><rect x="1314.5" y="410.5" width="92.0001" height="85.9999" stroke="#000000" stroke-width="4.58333" stroke-miterlimit="8" fill="#FF0000"/><text fill="#FF0000" font-family="LM Roman 10,LM Roman 10_MSFontService,sans-serif" font-weight="700" font-size="55" transform="matrix(1 0 0 1 1345.51 473)">0</text><rect x="1406.5" y="410.5" width="91.9998" height="85.9999" stroke="#000000" stroke-width="4.58333" stroke-miterlimit="8" fill="#FF0000"/><text fill="#FF0000" font-family="LM Roman 10,LM Roman 10_MSFontService,sans-serif" font-weight="700" font-size="55" transform="matrix(1 0 0 1 1437.64 473)">0</text><rect x="1314.5" y="496.5" width="92.0001" height="86.0003" stroke="#000000" stroke-width="4.58333" stroke-miterlimit="8" fill="#FF0000"/><text fill="#FF0000" font-family="LM Roman 10,LM Roman 10_MSFontService,sans-serif" font-weight="700" font-size="55" transform="matrix(1 0 0 1 1345.51 559)">0</text><rect x="1406.5" y="496.5" width="91.9998" height="86.0003" stroke="#000000" stroke-width="4.58333" stroke-miterlimit="8" fill="#FF0000"/><text fill="#FF0000" font-family="LM Roman 10,LM Roman 10_MSFontService,sans-serif" font-weight="700" font-size="55" transform="matrix(1 0 0 1 1437.64 559)">0</text><rect x="1498.5" y="410.5" width="92.0001" height="85.9999" stroke="#000000" stroke-width="4.58333" stroke-miterlimit="8" fill="#FF0000"/><text fill="#FF0000" font-family="LM Roman 10,LM Roman 10_MSFontService,sans-serif" font-weight="700" font-size="55" transform="translate(1529.77 473)">0</text><path d="M2.77139-2.89876 74.368 65.5518 68.8252 71.3494-2.77139 2.89876ZM77.7856 55.3447 88.161 84.2871 58.7818 75.2219Z" transform="matrix(1 0 0 -1 1611 700.287)"/><path d="M1343 691.99 1547.58 691.99 1547.58 700.011 1343 700.011ZM1542.99 682.25 1570.49 696 1542.99 709.75Z"/><path d="M4.01042-7.21076e-06 4.01074 177.801-4.0101 177.801-4.01042 7.21076e-06ZM13.7503 173.218 0.000360892 200.718-13.7497 173.218Z" transform="matrix(1 0 0 -1 1289 632.718)"/><text font-family="LM Roman 10,LM Roman 10_MSFontService,sans-serif" font-weight="400" font-size="23" transform="matrix(1 0 0 1 1432.76 741)">width<tspan font-size="23" x="-231.489" y="-200">height</tspan><tspan font-weight="700" font-size="55" x="252.631" y="-47">depth</tspan></text><path d="M1632.5 498.927 1677.76 499.152 1677.75 500.298 1632.5 500.073ZM1677.76 499.725 1668.66 485.93 1696.09 499.816 1668.52 513.429Z"/><text font-family="LM Roman 10,LM Roman 10_MSFontService,sans-serif" font-weight="400" font-size="23" transform="matrix(1 0 0 1 1728.52 508)">channel<tspan font-weight="700" font-size="55" x="-682.367" y="200">r</tspan><tspan font-weight="700" font-size="55" x="-659.45" y="200">esolution</tspan></text></g></svg>