<?xml version="1.0" encoding="utf-8" standalone="no"?>
<!DOCTYPE svg PUBLIC "-//W3C//DTD SVG 1.1//EN"
  "http://www.w3.org/Graphics/SVG/1.1/DTD/svg11.dtd">
<svg xmlns:xlink="http://www.w3.org/1999/xlink" width="1296pt" height="432pt" viewBox="0 0 1296 432" xmlns="http://www.w3.org/2000/svg" version="1.1">
 <metadata>
  <rdf:RDF xmlns:dc="http://purl.org/dc/elements/1.1/" xmlns:cc="http://creativecommons.org/ns#" xmlns:rdf="http://www.w3.org/1999/02/22-rdf-syntax-ns#">
   <cc:Work>
    <dc:type rdf:resource="http://purl.org/dc/dcmitype/StillImage"/>
    <dc:date>2022-03-21T14:59:50.805806</dc:date>
    <dc:format>image/svg+xml</dc:format>
    <dc:creator>
     <cc:Agent>
      <dc:title>Matplotlib v3.5.0, https://matplotlib.org/</dc:title>
     </cc:Agent>
    </dc:creator>
   </cc:Work>
  </rdf:RDF>
 </metadata>
 <defs>
  <style type="text/css">*{stroke-linejoin: round; stroke-linecap: butt}</style>
 </defs>
 <g id="figure_1">
  <g id="patch_1">
   <path d="M 0 432 
L 1296 432 
L 1296 0 
L 0 0 
L 0 432 
z
" style="fill: none"/>
  </g>
  <g id="axes_1">
   <g id="patch_2">
    <path d="M 162 378 
L 457.411765 378 
L 457.411765 51.84 
L 162 51.84 
z
" style="fill: #ffffff"/>
   </g>
   <g id="PathCollection_1">
    <defs>
     <path id="mf292c900d1" d="M 0 2.236068 
C 0.593012 2.236068 1.161816 2.000462 1.581139 1.581139 
C 2.000462 1.161816 2.236068 0.593012 2.236068 0 
C 2.236068 -0.593012 2.000462 -1.161816 1.581139 -1.581139 
C 1.161816 -2.000462 0.593012 -2.236068 0 -2.236068 
C -0.593012 -2.236068 -1.161816 -2.000462 -1.581139 -1.581139 
C -2.000462 -1.161816 -2.236068 -0.593012 -2.236068 0 
C -2.236068 0.593012 -2.000462 1.161816 -1.581139 1.581139 
C -1.161816 2.000462 -0.593012 2.236068 0 2.236068 
z
" style="stroke: #0000ff"/>
    </defs>
    <g clip-path="url(#p4716a8f868)">
     <use xlink:href="#mf292c900d1" x="167.972752" y="193.06564" style="fill: #1f77b4; stroke: #0000ff"/>
     <use xlink:href="#mf292c900d1" x="182.984887" y="200.234677" style="fill: #1f77b4; stroke: #0000ff"/>
     <use xlink:href="#mf292c900d1" x="187.73902" y="145.358334" style="fill: #1f77b4; stroke: #0000ff"/>
     <use xlink:href="#mf292c900d1" x="196.939657" y="195.507747" style="fill: #1f77b4; stroke: #0000ff"/>
     <use xlink:href="#mf292c900d1" x="204.348248" y="163.1855" style="fill: #1f77b4; stroke: #0000ff"/>
     <use xlink:href="#mf292c900d1" x="275.273136" y="138.695266" style="fill: #1f77b4; stroke: #0000ff"/>
     <use xlink:href="#mf292c900d1" x="284.496015" y="114.29888" style="fill: #1f77b4; stroke: #0000ff"/>
     <use xlink:href="#mf292c900d1" x="287.152612" y="116.692791" style="fill: #1f77b4; stroke: #0000ff"/>
     <use xlink:href="#mf292c900d1" x="291.26841" y="140.49706" style="fill: #1f77b4; stroke: #0000ff"/>
     <use xlink:href="#mf292c900d1" x="298.326433" y="141.633924" style="fill: #1f77b4; stroke: #0000ff"/>
     <use xlink:href="#mf292c900d1" x="316.160134" y="177.971652" style="fill: #1f77b4; stroke: #0000ff"/>
     <use xlink:href="#mf292c900d1" x="318.241782" y="197.925663" style="fill: #1f77b4; stroke: #0000ff"/>
     <use xlink:href="#mf292c900d1" x="322.964903" y="176.325366" style="fill: #1f77b4; stroke: #0000ff"/>
     <use xlink:href="#mf292c900d1" x="324.125966" y="169.37767" style="fill: #1f77b4; stroke: #0000ff"/>
     <use xlink:href="#mf292c900d1" x="329.807046" y="158.310558" style="fill: #1f77b4; stroke: #0000ff"/>
     <use xlink:href="#mf292c900d1" x="340.063393" y="171.126305" style="fill: #1f77b4; stroke: #0000ff"/>
     <use xlink:href="#mf292c900d1" x="351.040198" y="210.986746" style="fill: #1f77b4; stroke: #0000ff"/>
     <use xlink:href="#mf292c900d1" x="352.80472" y="211.880878" style="fill: #1f77b4; stroke: #0000ff"/>
     <use xlink:href="#mf292c900d1" x="373.275353" y="250.502514" style="fill: #1f77b4; stroke: #0000ff"/>
     <use xlink:href="#mf292c900d1" x="391.876659" y="278.973698" style="fill: #1f77b4; stroke: #0000ff"/>
     <use xlink:href="#mf292c900d1" x="392.577501" y="284.427981" style="fill: #1f77b4; stroke: #0000ff"/>
     <use xlink:href="#mf292c900d1" x="395.884891" y="228.426599" style="fill: #1f77b4; stroke: #0000ff"/>
     <use xlink:href="#mf292c900d1" x="398.080842" y="270.89747" style="fill: #1f77b4; stroke: #0000ff"/>
     <use xlink:href="#mf292c900d1" x="407.965698" y="279.527419" style="fill: #1f77b4; stroke: #0000ff"/>
     <use xlink:href="#mf292c900d1" x="419.011824" y="302.065199" style="fill: #1f77b4; stroke: #0000ff"/>
     <use xlink:href="#mf292c900d1" x="425.440236" y="273.403967" style="fill: #1f77b4; stroke: #0000ff"/>
     <use xlink:href="#mf292c900d1" x="435.432136" y="317.818615" style="fill: #1f77b4; stroke: #0000ff"/>
     <use xlink:href="#mf292c900d1" x="441.066312" y="297.17324" style="fill: #1f77b4; stroke: #0000ff"/>
     <use xlink:href="#mf292c900d1" x="446.677317" y="309.870749" style="fill: #1f77b4; stroke: #0000ff"/>
     <use xlink:href="#mf292c900d1" x="451.095371" y="289.736834" style="fill: #1f77b4; stroke: #0000ff"/>
    </g>
   </g>
   <g id="matplotlib.axis_1">
    <g id="text_1">
     <!-- x -->
     <g transform="translate(306.746507 389.598437)scale(0.1 -0.1)">
      <defs>
       <path id="DejaVuSans-78" d="M 3513 3500 
L 2247 1797 
L 3578 0 
L 2900 0 
L 1881 1375 
L 863 0 
L 184 0 
L 1544 1831 
L 300 3500 
L 978 3500 
L 1906 2253 
L 2834 3500 
L 3513 3500 
z
" transform="scale(0.015625)"/>
      </defs>
      <use xlink:href="#DejaVuSans-78"/>
     </g>
    </g>
   </g>
   <g id="matplotlib.axis_2">
    <g id="text_2">
     <!-- y -->
     <g transform="translate(155.920312 217.879375)rotate(-90)scale(0.1 -0.1)">
      <defs>
       <path id="DejaVuSans-79" d="M 2059 -325 
Q 1816 -950 1584 -1140 
Q 1353 -1331 966 -1331 
L 506 -1331 
L 506 -850 
L 844 -850 
Q 1081 -850 1212 -737 
Q 1344 -625 1503 -206 
L 1606 56 
L 191 3500 
L 800 3500 
L 1894 763 
L 2988 3500 
L 3597 3500 
L 2059 -325 
z
" transform="scale(0.015625)"/>
      </defs>
      <use xlink:href="#DejaVuSans-79"/>
     </g>
    </g>
   </g>
   <g id="line2d_1">
    <path d="M 162 116.032752 
L 164.983957 117.727445 
L 167.967914 119.422137 
L 170.951872 121.11683 
L 173.935829 122.811522 
L 176.919786 124.506215 
L 179.903743 126.200908 
L 182.887701 127.8956 
L 185.871658 129.590293 
L 188.855615 131.284986 
L 191.839572 132.979678 
L 194.823529 134.674371 
L 197.807487 136.369063 
L 200.791444 138.063756 
L 203.775401 139.758449 
L 206.759358 141.453141 
L 209.743316 143.147834 
L 212.727273 144.842527 
L 215.71123 146.537219 
L 218.695187 148.231912 
L 221.679144 149.926604 
L 224.663102 151.621297 
L 227.647059 153.31599 
L 230.631016 155.010682 
L 233.614973 156.705375 
L 236.59893 158.400067 
L 239.582888 160.09476 
L 242.566845 161.789453 
L 245.550802 163.484145 
L 248.534759 165.178838 
L 251.518717 166.873531 
L 254.502674 168.568223 
L 257.486631 170.262916 
L 260.470588 171.957608 
L 263.454545 173.652301 
L 266.438503 175.346994 
L 269.42246 177.041686 
L 272.406417 178.736379 
L 275.390374 180.431072 
L 278.374332 182.125764 
L 281.358289 183.820457 
L 284.342246 185.515149 
L 287.326203 187.209842 
L 290.31016 188.904535 
L 293.294118 190.599227 
L 296.278075 192.29392 
L 299.262032 193.988612 
L 302.245989 195.683305 
L 305.229947 197.377998 
L 308.213904 199.07269 
L 311.197861 200.767383 
L 314.181818 202.462076 
L 317.165775 204.156768 
L 320.149733 205.851461 
L 323.13369 207.546153 
L 326.117647 209.240846 
L 329.101604 210.935539 
L 332.085561 212.630231 
L 335.069519 214.324924 
L 338.053476 216.019617 
L 341.037433 217.714309 
L 344.02139 219.409002 
L 347.005348 221.103694 
L 349.989305 222.798387 
L 352.973262 224.49308 
L 355.957219 226.187772 
L 358.941176 227.882465 
L 361.925134 229.577157 
L 364.909091 231.27185 
L 367.893048 232.966543 
L 370.877005 234.661235 
L 373.860963 236.355928 
L 376.84492 238.050621 
L 379.828877 239.745313 
L 382.812834 241.440006 
L 385.796791 243.134698 
L 388.780749 244.829391 
L 391.764706 246.524084 
L 394.748663 248.218776 
L 397.73262 249.913469 
L 400.716578 251.608161 
L 403.700535 253.302854 
L 406.684492 254.997547 
L 409.668449 256.692239 
L 412.652406 258.386932 
L 415.636364 260.081625 
L 418.620321 261.776317 
L 421.604278 263.47101 
L 424.588235 265.165702 
L 427.572193 266.860395 
L 430.55615 268.555088 
L 433.540107 270.24978 
L 436.524064 271.944473 
L 439.508021 273.639166 
L 442.491979 275.333858 
L 445.475936 277.028551 
L 448.459893 278.723243 
L 451.44385 280.417936 
L 454.427807 282.112629 
L 457.411765 283.807321 
" clip-path="url(#p4716a8f868)" style="fill: none; stroke: #1f77b4; stroke-width: 1.5; stroke-linecap: square"/>
   </g>
   <g id="line2d_2">
    <path d="M 162 214.92 
L 164.983957 211.040171 
L 167.967914 207.16913 
L 170.951872 203.315648 
L 173.935829 199.488454 
L 176.919786 195.696216 
L 179.903743 191.947527 
L 182.887701 188.250878 
L 185.871658 184.614643 
L 188.855615 181.04706 
L 191.839572 177.556209 
L 194.823529 174.15 
L 197.807487 170.836148 
L 200.791444 167.62216 
L 203.775401 164.515316 
L 206.759358 161.522656 
L 209.743316 158.650957 
L 212.727273 155.906727 
L 215.71123 153.29618 
L 218.695187 150.825231 
L 221.679144 148.499477 
L 224.663102 146.324187 
L 227.647059 144.304289 
L 230.631016 142.444358 
L 233.614973 140.748607 
L 236.59893 139.220879 
L 239.582888 137.864633 
L 242.566845 136.682943 
L 245.550802 135.678485 
L 248.534759 134.853534 
L 251.518717 134.20996 
L 254.502674 133.749219 
L 257.486631 133.472357 
L 260.470588 133.38 
L 263.454545 133.472357 
L 266.438503 133.749219 
L 269.42246 134.20996 
L 272.406417 134.853534 
L 275.390374 135.678485 
L 278.374332 136.682943 
L 281.358289 137.864633 
L 284.342246 139.220879 
L 287.326203 140.748607 
L 290.31016 142.444358 
L 293.294118 144.304289 
L 296.278075 146.324187 
L 299.262032 148.499477 
L 302.245989 150.825231 
L 305.229947 153.29618 
L 308.213904 155.906727 
L 311.197861 158.650957 
L 314.181818 161.522656 
L 317.165775 164.515316 
L 320.149733 167.62216 
L 323.13369 170.836148 
L 326.117647 174.15 
L 329.101604 177.556209 
L 332.085561 181.04706 
L 335.069519 184.614643 
L 338.053476 188.250878 
L 341.037433 191.947527 
L 344.02139 195.696216 
L 347.005348 199.488454 
L 349.989305 203.315648 
L 352.973262 207.16913 
L 355.957219 211.040171 
L 358.941176 214.92 
L 361.925134 218.799829 
L 364.909091 222.67087 
L 367.893048 226.524352 
L 370.877005 230.351546 
L 373.860963 234.143784 
L 376.84492 237.892473 
L 379.828877 241.589122 
L 382.812834 245.225357 
L 385.796791 248.79294 
L 388.780749 252.283791 
L 391.764706 255.69 
L 394.748663 259.003852 
L 397.73262 262.21784 
L 400.716578 265.324684 
L 403.700535 268.317344 
L 406.684492 271.189043 
L 409.668449 273.933273 
L 412.652406 276.54382 
L 415.636364 279.014769 
L 418.620321 281.340523 
L 421.604278 283.515813 
L 424.588235 285.535711 
L 427.572193 287.395642 
L 430.55615 289.091393 
L 433.540107 290.619121 
L 436.524064 291.975367 
L 439.508021 293.157057 
L 442.491979 294.161515 
L 445.475936 294.986466 
L 448.459893 295.63004 
L 451.44385 296.090781 
L 454.427807 296.367643 
L 457.411765 296.46 
" clip-path="url(#p4716a8f868)" style="fill: none; stroke: #ff7f0e; stroke-width: 1.5; stroke-linecap: square"/>
   </g>
   <g id="patch_3">
    <path d="M 162 378 
L 162 51.84 
" style="fill: none; stroke: #000000; stroke-width: 0.8; stroke-linejoin: miter; stroke-linecap: square"/>
   </g>
   <g id="patch_4">
    <path d="M 457.411765 378 
L 457.411765 51.84 
" style="fill: none; stroke: #000000; stroke-width: 0.8; stroke-linejoin: miter; stroke-linecap: square"/>
   </g>
   <g id="patch_5">
    <path d="M 162 378 
L 457.411765 378 
" style="fill: none; stroke: #000000; stroke-width: 0.8; stroke-linejoin: miter; stroke-linecap: square"/>
   </g>
   <g id="patch_6">
    <path d="M 162 51.84 
L 457.411765 51.84 
" style="fill: none; stroke: #000000; stroke-width: 0.8; stroke-linejoin: miter; stroke-linecap: square"/>
   </g>
   <g id="text_3">
    <!-- Underfit -->
    <g transform="translate(277.315882 45.84)scale(0.16 -0.16)">
     <defs>
      <path id="DejaVuSans-55" d="M 556 4666 
L 1191 4666 
L 1191 1831 
Q 1191 1081 1462 751 
Q 1734 422 2344 422 
Q 2950 422 3222 751 
Q 3494 1081 3494 1831 
L 3494 4666 
L 4128 4666 
L 4128 1753 
Q 4128 841 3676 375 
Q 3225 -91 2344 -91 
Q 1459 -91 1007 375 
Q 556 841 556 1753 
L 556 4666 
z
" transform="scale(0.015625)"/>
      <path id="DejaVuSans-6e" d="M 3513 2113 
L 3513 0 
L 2938 0 
L 2938 2094 
Q 2938 2591 2744 2837 
Q 2550 3084 2163 3084 
Q 1697 3084 1428 2787 
Q 1159 2491 1159 1978 
L 1159 0 
L 581 0 
L 581 3500 
L 1159 3500 
L 1159 2956 
Q 1366 3272 1645 3428 
Q 1925 3584 2291 3584 
Q 2894 3584 3203 3211 
Q 3513 2838 3513 2113 
z
" transform="scale(0.015625)"/>
      <path id="DejaVuSans-64" d="M 2906 2969 
L 2906 4863 
L 3481 4863 
L 3481 0 
L 2906 0 
L 2906 525 
Q 2725 213 2448 61 
Q 2172 -91 1784 -91 
Q 1150 -91 751 415 
Q 353 922 353 1747 
Q 353 2572 751 3078 
Q 1150 3584 1784 3584 
Q 2172 3584 2448 3432 
Q 2725 3281 2906 2969 
z
M 947 1747 
Q 947 1113 1208 752 
Q 1469 391 1925 391 
Q 2381 391 2643 752 
Q 2906 1113 2906 1747 
Q 2906 2381 2643 2742 
Q 2381 3103 1925 3103 
Q 1469 3103 1208 2742 
Q 947 2381 947 1747 
z
" transform="scale(0.015625)"/>
      <path id="DejaVuSans-65" d="M 3597 1894 
L 3597 1613 
L 953 1613 
Q 991 1019 1311 708 
Q 1631 397 2203 397 
Q 2534 397 2845 478 
Q 3156 559 3463 722 
L 3463 178 
Q 3153 47 2828 -22 
Q 2503 -91 2169 -91 
Q 1331 -91 842 396 
Q 353 884 353 1716 
Q 353 2575 817 3079 
Q 1281 3584 2069 3584 
Q 2775 3584 3186 3129 
Q 3597 2675 3597 1894 
z
M 3022 2063 
Q 3016 2534 2758 2815 
Q 2500 3097 2075 3097 
Q 1594 3097 1305 2825 
Q 1016 2553 972 2059 
L 3022 2063 
z
" transform="scale(0.015625)"/>
      <path id="DejaVuSans-72" d="M 2631 2963 
Q 2534 3019 2420 3045 
Q 2306 3072 2169 3072 
Q 1681 3072 1420 2755 
Q 1159 2438 1159 1844 
L 1159 0 
L 581 0 
L 581 3500 
L 1159 3500 
L 1159 2956 
Q 1341 3275 1631 3429 
Q 1922 3584 2338 3584 
Q 2397 3584 2469 3576 
Q 2541 3569 2628 3553 
L 2631 2963 
z
" transform="scale(0.015625)"/>
      <path id="DejaVuSans-66" d="M 2375 4863 
L 2375 4384 
L 1825 4384 
Q 1516 4384 1395 4259 
Q 1275 4134 1275 3809 
L 1275 3500 
L 2222 3500 
L 2222 3053 
L 1275 3053 
L 1275 0 
L 697 0 
L 697 3053 
L 147 3053 
L 147 3500 
L 697 3500 
L 697 3744 
Q 697 4328 969 4595 
Q 1241 4863 1831 4863 
L 2375 4863 
z
" transform="scale(0.015625)"/>
      <path id="DejaVuSans-69" d="M 603 3500 
L 1178 3500 
L 1178 0 
L 603 0 
L 603 3500 
z
M 603 4863 
L 1178 4863 
L 1178 4134 
L 603 4134 
L 603 4863 
z
" transform="scale(0.015625)"/>
      <path id="DejaVuSans-74" d="M 1172 4494 
L 1172 3500 
L 2356 3500 
L 2356 3053 
L 1172 3053 
L 1172 1153 
Q 1172 725 1289 603 
Q 1406 481 1766 481 
L 2356 481 
L 2356 0 
L 1766 0 
Q 1100 0 847 248 
Q 594 497 594 1153 
L 594 3053 
L 172 3053 
L 172 3500 
L 594 3500 
L 594 4494 
L 1172 4494 
z
" transform="scale(0.015625)"/>
     </defs>
     <use xlink:href="#DejaVuSans-55"/>
     <use xlink:href="#DejaVuSans-6e" x="73.193359"/>
     <use xlink:href="#DejaVuSans-64" x="136.572266"/>
     <use xlink:href="#DejaVuSans-65" x="200.048828"/>
     <use xlink:href="#DejaVuSans-72" x="261.572266"/>
     <use xlink:href="#DejaVuSans-66" x="302.685547"/>
     <use xlink:href="#DejaVuSans-69" x="337.890625"/>
     <use xlink:href="#DejaVuSans-74" x="365.673828"/>
    </g>
   </g>
   <g id="legend_1">
    <g id="patch_7">
     <path d="M 347.605515 103.874375 
L 450.411765 103.874375 
Q 452.411765 103.874375 452.411765 101.874375 
L 452.411765 58.84 
Q 452.411765 56.84 450.411765 56.84 
L 347.605515 56.84 
Q 345.605515 56.84 345.605515 58.84 
L 345.605515 101.874375 
Q 345.605515 103.874375 347.605515 103.874375 
z
" style="fill: #ffffff; opacity: 0.8; stroke: #cccccc; stroke-linejoin: miter"/>
    </g>
    <g id="line2d_3">
     <path d="M 349.605515 64.938437 
L 359.605515 64.938437 
L 369.605515 64.938437 
" style="fill: none; stroke: #1f77b4; stroke-width: 1.5; stroke-linecap: square"/>
    </g>
    <g id="text_4">
     <!-- Trained model -->
     <g transform="translate(377.605515 68.438437)scale(0.1 -0.1)">
      <defs>
       <path id="DejaVuSans-54" d="M -19 4666 
L 3928 4666 
L 3928 4134 
L 2272 4134 
L 2272 0 
L 1638 0 
L 1638 4134 
L -19 4134 
L -19 4666 
z
" transform="scale(0.015625)"/>
       <path id="DejaVuSans-61" d="M 2194 1759 
Q 1497 1759 1228 1600 
Q 959 1441 959 1056 
Q 959 750 1161 570 
Q 1363 391 1709 391 
Q 2188 391 2477 730 
Q 2766 1069 2766 1631 
L 2766 1759 
L 2194 1759 
z
M 3341 1997 
L 3341 0 
L 2766 0 
L 2766 531 
Q 2569 213 2275 61 
Q 1981 -91 1556 -91 
Q 1019 -91 701 211 
Q 384 513 384 1019 
Q 384 1609 779 1909 
Q 1175 2209 1959 2209 
L 2766 2209 
L 2766 2266 
Q 2766 2663 2505 2880 
Q 2244 3097 1772 3097 
Q 1472 3097 1187 3025 
Q 903 2953 641 2809 
L 641 3341 
Q 956 3463 1253 3523 
Q 1550 3584 1831 3584 
Q 2591 3584 2966 3190 
Q 3341 2797 3341 1997 
z
" transform="scale(0.015625)"/>
       <path id="DejaVuSans-20" transform="scale(0.015625)"/>
       <path id="DejaVuSans-6d" d="M 3328 2828 
Q 3544 3216 3844 3400 
Q 4144 3584 4550 3584 
Q 5097 3584 5394 3201 
Q 5691 2819 5691 2113 
L 5691 0 
L 5113 0 
L 5113 2094 
Q 5113 2597 4934 2840 
Q 4756 3084 4391 3084 
Q 3944 3084 3684 2787 
Q 3425 2491 3425 1978 
L 3425 0 
L 2847 0 
L 2847 2094 
Q 2847 2600 2669 2842 
Q 2491 3084 2119 3084 
Q 1678 3084 1418 2786 
Q 1159 2488 1159 1978 
L 1159 0 
L 581 0 
L 581 3500 
L 1159 3500 
L 1159 2956 
Q 1356 3278 1631 3431 
Q 1906 3584 2284 3584 
Q 2666 3584 2933 3390 
Q 3200 3197 3328 2828 
z
" transform="scale(0.015625)"/>
       <path id="DejaVuSans-6f" d="M 1959 3097 
Q 1497 3097 1228 2736 
Q 959 2375 959 1747 
Q 959 1119 1226 758 
Q 1494 397 1959 397 
Q 2419 397 2687 759 
Q 2956 1122 2956 1747 
Q 2956 2369 2687 2733 
Q 2419 3097 1959 3097 
z
M 1959 3584 
Q 2709 3584 3137 3096 
Q 3566 2609 3566 1747 
Q 3566 888 3137 398 
Q 2709 -91 1959 -91 
Q 1206 -91 779 398 
Q 353 888 353 1747 
Q 353 2609 779 3096 
Q 1206 3584 1959 3584 
z
" transform="scale(0.015625)"/>
       <path id="DejaVuSans-6c" d="M 603 4863 
L 1178 4863 
L 1178 0 
L 603 0 
L 603 4863 
z
" transform="scale(0.015625)"/>
      </defs>
      <use xlink:href="#DejaVuSans-54"/>
      <use xlink:href="#DejaVuSans-72" x="46.333984"/>
      <use xlink:href="#DejaVuSans-61" x="87.447266"/>
      <use xlink:href="#DejaVuSans-69" x="148.726562"/>
      <use xlink:href="#DejaVuSans-6e" x="176.509766"/>
      <use xlink:href="#DejaVuSans-65" x="239.888672"/>
      <use xlink:href="#DejaVuSans-64" x="301.412109"/>
      <use xlink:href="#DejaVuSans-20" x="364.888672"/>
      <use xlink:href="#DejaVuSans-6d" x="396.675781"/>
      <use xlink:href="#DejaVuSans-6f" x="494.087891"/>
      <use xlink:href="#DejaVuSans-64" x="555.269531"/>
      <use xlink:href="#DejaVuSans-65" x="618.746094"/>
      <use xlink:href="#DejaVuSans-6c" x="680.269531"/>
     </g>
    </g>
    <g id="line2d_4">
     <path d="M 349.605515 79.616562 
L 359.605515 79.616562 
L 369.605515 79.616562 
" style="fill: none; stroke: #ff7f0e; stroke-width: 1.5; stroke-linecap: square"/>
    </g>
    <g id="text_5">
     <!-- True function -->
     <g transform="translate(377.605515 83.116562)scale(0.1 -0.1)">
      <defs>
       <path id="DejaVuSans-75" d="M 544 1381 
L 544 3500 
L 1119 3500 
L 1119 1403 
Q 1119 906 1312 657 
Q 1506 409 1894 409 
Q 2359 409 2629 706 
Q 2900 1003 2900 1516 
L 2900 3500 
L 3475 3500 
L 3475 0 
L 2900 0 
L 2900 538 
Q 2691 219 2414 64 
Q 2138 -91 1772 -91 
Q 1169 -91 856 284 
Q 544 659 544 1381 
z
M 1991 3584 
L 1991 3584 
z
" transform="scale(0.015625)"/>
       <path id="DejaVuSans-63" d="M 3122 3366 
L 3122 2828 
Q 2878 2963 2633 3030 
Q 2388 3097 2138 3097 
Q 1578 3097 1268 2742 
Q 959 2388 959 1747 
Q 959 1106 1268 751 
Q 1578 397 2138 397 
Q 2388 397 2633 464 
Q 2878 531 3122 666 
L 3122 134 
Q 2881 22 2623 -34 
Q 2366 -91 2075 -91 
Q 1284 -91 818 406 
Q 353 903 353 1747 
Q 353 2603 823 3093 
Q 1294 3584 2113 3584 
Q 2378 3584 2631 3529 
Q 2884 3475 3122 3366 
z
" transform="scale(0.015625)"/>
      </defs>
      <use xlink:href="#DejaVuSans-54"/>
      <use xlink:href="#DejaVuSans-72" x="46.333984"/>
      <use xlink:href="#DejaVuSans-75" x="87.447266"/>
      <use xlink:href="#DejaVuSans-65" x="150.826172"/>
      <use xlink:href="#DejaVuSans-20" x="212.349609"/>
      <use xlink:href="#DejaVuSans-66" x="244.136719"/>
      <use xlink:href="#DejaVuSans-75" x="279.341797"/>
      <use xlink:href="#DejaVuSans-6e" x="342.720703"/>
      <use xlink:href="#DejaVuSans-63" x="406.099609"/>
      <use xlink:href="#DejaVuSans-74" x="461.080078"/>
      <use xlink:href="#DejaVuSans-69" x="500.289062"/>
      <use xlink:href="#DejaVuSans-6f" x="528.072266"/>
      <use xlink:href="#DejaVuSans-6e" x="589.253906"/>
     </g>
    </g>
    <g id="PathCollection_2">
     <g>
      <use xlink:href="#mf292c900d1" x="359.605515" y="95.169687" style="fill: #1f77b4; stroke: #0000ff"/>
     </g>
    </g>
    <g id="text_6">
     <!-- Training data -->
     <g transform="translate(377.605515 97.794687)scale(0.1 -0.1)">
      <defs>
       <path id="DejaVuSans-67" d="M 2906 1791 
Q 2906 2416 2648 2759 
Q 2391 3103 1925 3103 
Q 1463 3103 1205 2759 
Q 947 2416 947 1791 
Q 947 1169 1205 825 
Q 1463 481 1925 481 
Q 2391 481 2648 825 
Q 2906 1169 2906 1791 
z
M 3481 434 
Q 3481 -459 3084 -895 
Q 2688 -1331 1869 -1331 
Q 1566 -1331 1297 -1286 
Q 1028 -1241 775 -1147 
L 775 -588 
Q 1028 -725 1275 -790 
Q 1522 -856 1778 -856 
Q 2344 -856 2625 -561 
Q 2906 -266 2906 331 
L 2906 616 
Q 2728 306 2450 153 
Q 2172 0 1784 0 
Q 1141 0 747 490 
Q 353 981 353 1791 
Q 353 2603 747 3093 
Q 1141 3584 1784 3584 
Q 2172 3584 2450 3431 
Q 2728 3278 2906 2969 
L 2906 3500 
L 3481 3500 
L 3481 434 
z
" transform="scale(0.015625)"/>
      </defs>
      <use xlink:href="#DejaVuSans-54"/>
      <use xlink:href="#DejaVuSans-72" x="46.333984"/>
      <use xlink:href="#DejaVuSans-61" x="87.447266"/>
      <use xlink:href="#DejaVuSans-69" x="148.726562"/>
      <use xlink:href="#DejaVuSans-6e" x="176.509766"/>
      <use xlink:href="#DejaVuSans-69" x="239.888672"/>
      <use xlink:href="#DejaVuSans-6e" x="267.671875"/>
      <use xlink:href="#DejaVuSans-67" x="331.050781"/>
      <use xlink:href="#DejaVuSans-20" x="394.527344"/>
      <use xlink:href="#DejaVuSans-64" x="426.314453"/>
      <use xlink:href="#DejaVuSans-61" x="489.791016"/>
      <use xlink:href="#DejaVuSans-74" x="551.070312"/>
      <use xlink:href="#DejaVuSans-61" x="590.279297"/>
     </g>
    </g>
   </g>
  </g>
  <g id="axes_2">
   <g id="patch_8">
    <path d="M 516.494118 378 
L 811.905882 378 
L 811.905882 51.84 
L 516.494118 51.84 
z
" style="fill: #ffffff"/>
   </g>
   <g id="PathCollection_3">
    <g clip-path="url(#pc2fba368f3)">
     <use xlink:href="#mf292c900d1" x="522.46687" y="193.06564" style="fill: #1f77b4; stroke: #0000ff"/>
     <use xlink:href="#mf292c900d1" x="537.479005" y="200.234677" style="fill: #1f77b4; stroke: #0000ff"/>
     <use xlink:href="#mf292c900d1" x="542.233138" y="145.358334" style="fill: #1f77b4; stroke: #0000ff"/>
     <use xlink:href="#mf292c900d1" x="551.433775" y="195.507747" style="fill: #1f77b4; stroke: #0000ff"/>
     <use xlink:href="#mf292c900d1" x="558.842365" y="163.1855" style="fill: #1f77b4; stroke: #0000ff"/>
     <use xlink:href="#mf292c900d1" x="629.767253" y="138.695266" style="fill: #1f77b4; stroke: #0000ff"/>
     <use xlink:href="#mf292c900d1" x="638.990133" y="114.29888" style="fill: #1f77b4; stroke: #0000ff"/>
     <use xlink:href="#mf292c900d1" x="641.64673" y="116.692791" style="fill: #1f77b4; stroke: #0000ff"/>
     <use xlink:href="#mf292c900d1" x="645.762528" y="140.49706" style="fill: #1f77b4; stroke: #0000ff"/>
     <use xlink:href="#mf292c900d1" x="652.82055" y="141.633924" style="fill: #1f77b4; stroke: #0000ff"/>
     <use xlink:href="#mf292c900d1" x="670.654251" y="177.971652" style="fill: #1f77b4; stroke: #0000ff"/>
     <use xlink:href="#mf292c900d1" x="672.735899" y="197.925663" style="fill: #1f77b4; stroke: #0000ff"/>
     <use xlink:href="#mf292c900d1" x="677.45902" y="176.325366" style="fill: #1f77b4; stroke: #0000ff"/>
     <use xlink:href="#mf292c900d1" x="678.620083" y="169.37767" style="fill: #1f77b4; stroke: #0000ff"/>
     <use xlink:href="#mf292c900d1" x="684.301164" y="158.310558" style="fill: #1f77b4; stroke: #0000ff"/>
     <use xlink:href="#mf292c900d1" x="694.55751" y="171.126305" style="fill: #1f77b4; stroke: #0000ff"/>
     <use xlink:href="#mf292c900d1" x="705.534316" y="210.986746" style="fill: #1f77b4; stroke: #0000ff"/>
     <use xlink:href="#mf292c900d1" x="707.298837" y="211.880878" style="fill: #1f77b4; stroke: #0000ff"/>
     <use xlink:href="#mf292c900d1" x="727.76947" y="250.502514" style="fill: #1f77b4; stroke: #0000ff"/>
     <use xlink:href="#mf292c900d1" x="746.370777" y="278.973698" style="fill: #1f77b4; stroke: #0000ff"/>
     <use xlink:href="#mf292c900d1" x="747.071619" y="284.427981" style="fill: #1f77b4; stroke: #0000ff"/>
     <use xlink:href="#mf292c900d1" x="750.379008" y="228.426599" style="fill: #1f77b4; stroke: #0000ff"/>
     <use xlink:href="#mf292c900d1" x="752.574959" y="270.89747" style="fill: #1f77b4; stroke: #0000ff"/>
     <use xlink:href="#mf292c900d1" x="762.459816" y="279.527419" style="fill: #1f77b4; stroke: #0000ff"/>
     <use xlink:href="#mf292c900d1" x="773.505942" y="302.065199" style="fill: #1f77b4; stroke: #0000ff"/>
     <use xlink:href="#mf292c900d1" x="779.934354" y="273.403967" style="fill: #1f77b4; stroke: #0000ff"/>
     <use xlink:href="#mf292c900d1" x="789.926254" y="317.818615" style="fill: #1f77b4; stroke: #0000ff"/>
     <use xlink:href="#mf292c900d1" x="795.560429" y="297.17324" style="fill: #1f77b4; stroke: #0000ff"/>
     <use xlink:href="#mf292c900d1" x="801.171434" y="309.870749" style="fill: #1f77b4; stroke: #0000ff"/>
     <use xlink:href="#mf292c900d1" x="805.589489" y="289.736834" style="fill: #1f77b4; stroke: #0000ff"/>
    </g>
   </g>
   <g id="matplotlib.axis_3">
    <g id="text_7">
     <!-- x -->
     <g transform="translate(661.240625 389.598437)scale(0.1 -0.1)">
      <use xlink:href="#DejaVuSans-78"/>
     </g>
    </g>
   </g>
   <g id="matplotlib.axis_4">
    <g id="text_8">
     <!-- y -->
     <g transform="translate(510.41443 217.879375)rotate(-90)scale(0.1 -0.1)">
      <use xlink:href="#DejaVuSans-79"/>
     </g>
    </g>
   </g>
   <g id="line2d_5">
    <path d="M 516.494118 204.39214 
L 519.478075 201.49137 
L 522.462032 198.52057 
L 525.445989 195.493583 
L 528.429947 192.423867 
L 531.413904 189.324494 
L 534.397861 186.208144 
L 537.381818 183.087114 
L 540.365775 179.973313 
L 543.349733 176.87826 
L 546.33369 173.813089 
L 549.317647 170.788547 
L 552.301604 167.814991 
L 555.285561 164.902393 
L 558.269519 162.060337 
L 561.253476 159.29802 
L 564.237433 156.62425 
L 567.22139 154.047449 
L 570.205348 151.575653 
L 573.189305 149.216507 
L 576.173262 146.977271 
L 579.157219 144.864818 
L 582.141176 142.885633 
L 585.125134 141.045813 
L 588.109091 139.351068 
L 591.093048 137.806722 
L 594.077005 136.417709 
L 597.060963 135.188578 
L 600.04492 134.12349 
L 603.028877 133.226217 
L 606.012834 132.500146 
L 608.996791 131.948275 
L 611.980749 131.573215 
L 614.964706 131.377191 
L 617.948663 131.362039 
L 620.93262 131.529208 
L 623.916578 131.879759 
L 626.900535 132.414367 
L 629.884492 133.133319 
L 632.868449 134.036515 
L 635.852406 135.123467 
L 638.836364 136.393299 
L 641.820321 137.84475 
L 644.804278 139.476169 
L 647.788235 141.285519 
L 650.772193 143.270376 
L 653.75615 145.427927 
L 656.740107 147.754974 
L 659.724064 150.247929 
L 662.708021 152.902818 
L 665.691979 155.71528 
L 668.675936 158.680566 
L 671.659893 161.793541 
L 674.64385 165.048679 
L 677.627807 168.440071 
L 680.611765 171.961418 
L 683.595722 175.606035 
L 686.579679 179.366847 
L 689.563636 183.236396 
L 692.547594 187.206833 
L 695.531551 191.269922 
L 698.515508 195.417042 
L 701.499465 199.639183 
L 704.483422 203.926947 
L 707.46738 208.270549 
L 710.451337 212.659818 
L 713.435294 217.084194 
L 716.419251 221.53273 
L 719.403209 225.994093 
L 722.387166 230.45656 
L 725.371123 234.908023 
L 728.35508 239.335986 
L 731.339037 243.727565 
L 734.322995 248.069489 
L 737.306952 252.348099 
L 740.290909 256.549351 
L 743.274866 260.65881 
L 746.258824 264.661656 
L 749.242781 268.542683 
L 752.226738 272.286293 
L 755.210695 275.876505 
L 758.194652 279.296949 
L 761.17861 282.530867 
L 764.162567 285.561115 
L 767.146524 288.37016 
L 770.130481 290.940084 
L 773.114439 293.252579 
L 776.098396 295.288952 
L 779.082353 297.03012 
L 782.06631 298.456615 
L 785.050267 299.54858 
L 788.034225 300.285773 
L 791.018182 300.64756 
L 794.002139 300.612926 
L 796.986096 300.160463 
L 799.970053 299.268378 
L 802.954011 297.914491 
L 805.937968 296.076235 
L 808.921925 293.730653 
L 811.905882 290.854403 
" clip-path="url(#pc2fba368f3)" style="fill: none; stroke: #1f77b4; stroke-width: 1.5; stroke-linecap: square"/>
   </g>
   <g id="line2d_6">
    <path d="M 516.494118 214.92 
L 519.478075 211.040171 
L 522.462032 207.16913 
L 525.445989 203.315648 
L 528.429947 199.488454 
L 531.413904 195.696216 
L 534.397861 191.947527 
L 537.381818 188.250878 
L 540.365775 184.614643 
L 543.349733 181.04706 
L 546.33369 177.556209 
L 549.317647 174.15 
L 552.301604 170.836148 
L 555.285561 167.62216 
L 558.269519 164.515316 
L 561.253476 161.522656 
L 564.237433 158.650957 
L 567.22139 155.906727 
L 570.205348 153.29618 
L 573.189305 150.825231 
L 576.173262 148.499477 
L 579.157219 146.324187 
L 582.141176 144.304289 
L 585.125134 142.444358 
L 588.109091 140.748607 
L 591.093048 139.220879 
L 594.077005 137.864633 
L 597.060963 136.682943 
L 600.04492 135.678485 
L 603.028877 134.853534 
L 606.012834 134.20996 
L 608.996791 133.749219 
L 611.980749 133.472357 
L 614.964706 133.38 
L 617.948663 133.472357 
L 620.93262 133.749219 
L 623.916578 134.20996 
L 626.900535 134.853534 
L 629.884492 135.678485 
L 632.868449 136.682943 
L 635.852406 137.864633 
L 638.836364 139.220879 
L 641.820321 140.748607 
L 644.804278 142.444358 
L 647.788235 144.304289 
L 650.772193 146.324187 
L 653.75615 148.499477 
L 656.740107 150.825231 
L 659.724064 153.29618 
L 662.708021 155.906727 
L 665.691979 158.650957 
L 668.675936 161.522656 
L 671.659893 164.515316 
L 674.64385 167.62216 
L 677.627807 170.836148 
L 680.611765 174.15 
L 683.595722 177.556209 
L 686.579679 181.04706 
L 689.563636 184.614643 
L 692.547594 188.250878 
L 695.531551 191.947527 
L 698.515508 195.696216 
L 701.499465 199.488454 
L 704.483422 203.315648 
L 707.46738 207.16913 
L 710.451337 211.040171 
L 713.435294 214.92 
L 716.419251 218.799829 
L 719.403209 222.67087 
L 722.387166 226.524352 
L 725.371123 230.351546 
L 728.35508 234.143784 
L 731.339037 237.892473 
L 734.322995 241.589122 
L 737.306952 245.225357 
L 740.290909 248.79294 
L 743.274866 252.283791 
L 746.258824 255.69 
L 749.242781 259.003852 
L 752.226738 262.21784 
L 755.210695 265.324684 
L 758.194652 268.317344 
L 761.17861 271.189043 
L 764.162567 273.933273 
L 767.146524 276.54382 
L 770.130481 279.014769 
L 773.114439 281.340523 
L 776.098396 283.515813 
L 779.082353 285.535711 
L 782.06631 287.395642 
L 785.050267 289.091393 
L 788.034225 290.619121 
L 791.018182 291.975367 
L 794.002139 293.157057 
L 796.986096 294.161515 
L 799.970053 294.986466 
L 802.954011 295.63004 
L 805.937968 296.090781 
L 808.921925 296.367643 
L 811.905882 296.46 
" clip-path="url(#pc2fba368f3)" style="fill: none; stroke: #ff7f0e; stroke-width: 1.5; stroke-linecap: square"/>
   </g>
   <g id="patch_9">
    <path d="M 516.494118 378 
L 516.494118 51.84 
" style="fill: none; stroke: #000000; stroke-width: 0.8; stroke-linejoin: miter; stroke-linecap: square"/>
   </g>
   <g id="patch_10">
    <path d="M 811.905882 378 
L 811.905882 51.84 
" style="fill: none; stroke: #000000; stroke-width: 0.8; stroke-linejoin: miter; stroke-linecap: square"/>
   </g>
   <g id="patch_11">
    <path d="M 516.494118 378 
L 811.905882 378 
" style="fill: none; stroke: #000000; stroke-width: 0.8; stroke-linejoin: miter; stroke-linecap: square"/>
   </g>
   <g id="patch_12">
    <path d="M 516.494118 51.84 
L 811.905882 51.84 
" style="fill: none; stroke: #000000; stroke-width: 0.8; stroke-linejoin: miter; stroke-linecap: square"/>
   </g>
   <g id="text_9">
    <!-- Just right -->
    <g transform="translate(628.1275 45.84)scale(0.16 -0.16)">
     <defs>
      <path id="DejaVuSans-4a" d="M 628 4666 
L 1259 4666 
L 1259 325 
Q 1259 -519 939 -900 
Q 619 -1281 -91 -1281 
L -331 -1281 
L -331 -750 
L -134 -750 
Q 284 -750 456 -515 
Q 628 -281 628 325 
L 628 4666 
z
" transform="scale(0.015625)"/>
      <path id="DejaVuSans-73" d="M 2834 3397 
L 2834 2853 
Q 2591 2978 2328 3040 
Q 2066 3103 1784 3103 
Q 1356 3103 1142 2972 
Q 928 2841 928 2578 
Q 928 2378 1081 2264 
Q 1234 2150 1697 2047 
L 1894 2003 
Q 2506 1872 2764 1633 
Q 3022 1394 3022 966 
Q 3022 478 2636 193 
Q 2250 -91 1575 -91 
Q 1294 -91 989 -36 
Q 684 19 347 128 
L 347 722 
Q 666 556 975 473 
Q 1284 391 1588 391 
Q 1994 391 2212 530 
Q 2431 669 2431 922 
Q 2431 1156 2273 1281 
Q 2116 1406 1581 1522 
L 1381 1569 
Q 847 1681 609 1914 
Q 372 2147 372 2553 
Q 372 3047 722 3315 
Q 1072 3584 1716 3584 
Q 2034 3584 2315 3537 
Q 2597 3491 2834 3397 
z
" transform="scale(0.015625)"/>
      <path id="DejaVuSans-68" d="M 3513 2113 
L 3513 0 
L 2938 0 
L 2938 2094 
Q 2938 2591 2744 2837 
Q 2550 3084 2163 3084 
Q 1697 3084 1428 2787 
Q 1159 2491 1159 1978 
L 1159 0 
L 581 0 
L 581 4863 
L 1159 4863 
L 1159 2956 
Q 1366 3272 1645 3428 
Q 1925 3584 2291 3584 
Q 2894 3584 3203 3211 
Q 3513 2838 3513 2113 
z
" transform="scale(0.015625)"/>
     </defs>
     <use xlink:href="#DejaVuSans-4a"/>
     <use xlink:href="#DejaVuSans-75" x="29.492188"/>
     <use xlink:href="#DejaVuSans-73" x="92.871094"/>
     <use xlink:href="#DejaVuSans-74" x="144.970703"/>
     <use xlink:href="#DejaVuSans-20" x="184.179688"/>
     <use xlink:href="#DejaVuSans-72" x="215.966797"/>
     <use xlink:href="#DejaVuSans-69" x="257.080078"/>
     <use xlink:href="#DejaVuSans-67" x="284.863281"/>
     <use xlink:href="#DejaVuSans-68" x="348.339844"/>
     <use xlink:href="#DejaVuSans-74" x="411.71875"/>
    </g>
   </g>
   <g id="legend_2">
    <g id="patch_13">
     <path d="M 702.099632 103.874375 
L 804.905882 103.874375 
Q 806.905882 103.874375 806.905882 101.874375 
L 806.905882 58.84 
Q 806.905882 56.84 804.905882 56.84 
L 702.099632 56.84 
Q 700.099632 56.84 700.099632 58.84 
L 700.099632 101.874375 
Q 700.099632 103.874375 702.099632 103.874375 
z
" style="fill: #ffffff; opacity: 0.8; stroke: #cccccc; stroke-linejoin: miter"/>
    </g>
    <g id="line2d_7">
     <path d="M 704.099632 64.938437 
L 714.099632 64.938437 
L 724.099632 64.938437 
" style="fill: none; stroke: #1f77b4; stroke-width: 1.5; stroke-linecap: square"/>
    </g>
    <g id="text_10">
     <!-- Trained model -->
     <g transform="translate(732.099632 68.438437)scale(0.1 -0.1)">
      <use xlink:href="#DejaVuSans-54"/>
      <use xlink:href="#DejaVuSans-72" x="46.333984"/>
      <use xlink:href="#DejaVuSans-61" x="87.447266"/>
      <use xlink:href="#DejaVuSans-69" x="148.726562"/>
      <use xlink:href="#DejaVuSans-6e" x="176.509766"/>
      <use xlink:href="#DejaVuSans-65" x="239.888672"/>
      <use xlink:href="#DejaVuSans-64" x="301.412109"/>
      <use xlink:href="#DejaVuSans-20" x="364.888672"/>
      <use xlink:href="#DejaVuSans-6d" x="396.675781"/>
      <use xlink:href="#DejaVuSans-6f" x="494.087891"/>
      <use xlink:href="#DejaVuSans-64" x="555.269531"/>
      <use xlink:href="#DejaVuSans-65" x="618.746094"/>
      <use xlink:href="#DejaVuSans-6c" x="680.269531"/>
     </g>
    </g>
    <g id="line2d_8">
     <path d="M 704.099632 79.616562 
L 714.099632 79.616562 
L 724.099632 79.616562 
" style="fill: none; stroke: #ff7f0e; stroke-width: 1.5; stroke-linecap: square"/>
    </g>
    <g id="text_11">
     <!-- True function -->
     <g transform="translate(732.099632 83.116562)scale(0.1 -0.1)">
      <use xlink:href="#DejaVuSans-54"/>
      <use xlink:href="#DejaVuSans-72" x="46.333984"/>
      <use xlink:href="#DejaVuSans-75" x="87.447266"/>
      <use xlink:href="#DejaVuSans-65" x="150.826172"/>
      <use xlink:href="#DejaVuSans-20" x="212.349609"/>
      <use xlink:href="#DejaVuSans-66" x="244.136719"/>
      <use xlink:href="#DejaVuSans-75" x="279.341797"/>
      <use xlink:href="#DejaVuSans-6e" x="342.720703"/>
      <use xlink:href="#DejaVuSans-63" x="406.099609"/>
      <use xlink:href="#DejaVuSans-74" x="461.080078"/>
      <use xlink:href="#DejaVuSans-69" x="500.289062"/>
      <use xlink:href="#DejaVuSans-6f" x="528.072266"/>
      <use xlink:href="#DejaVuSans-6e" x="589.253906"/>
     </g>
    </g>
    <g id="PathCollection_4">
     <g>
      <use xlink:href="#mf292c900d1" x="714.099632" y="95.169687" style="fill: #1f77b4; stroke: #0000ff"/>
     </g>
    </g>
    <g id="text_12">
     <!-- Training data -->
     <g transform="translate(732.099632 97.794687)scale(0.1 -0.1)">
      <use xlink:href="#DejaVuSans-54"/>
      <use xlink:href="#DejaVuSans-72" x="46.333984"/>
      <use xlink:href="#DejaVuSans-61" x="87.447266"/>
      <use xlink:href="#DejaVuSans-69" x="148.726562"/>
      <use xlink:href="#DejaVuSans-6e" x="176.509766"/>
      <use xlink:href="#DejaVuSans-69" x="239.888672"/>
      <use xlink:href="#DejaVuSans-6e" x="267.671875"/>
      <use xlink:href="#DejaVuSans-67" x="331.050781"/>
      <use xlink:href="#DejaVuSans-20" x="394.527344"/>
      <use xlink:href="#DejaVuSans-64" x="426.314453"/>
      <use xlink:href="#DejaVuSans-61" x="489.791016"/>
      <use xlink:href="#DejaVuSans-74" x="551.070312"/>
      <use xlink:href="#DejaVuSans-61" x="590.279297"/>
     </g>
    </g>
   </g>
  </g>
  <g id="axes_3">
   <g id="patch_14">
    <path d="M 870.988235 378 
L 1166.4 378 
L 1166.4 51.84 
L 870.988235 51.84 
z
" style="fill: #ffffff"/>
   </g>
   <g id="PathCollection_5">
    <g clip-path="url(#p701f6db184)">
     <use xlink:href="#mf292c900d1" x="876.960988" y="193.06564" style="fill: #1f77b4; stroke: #0000ff"/>
     <use xlink:href="#mf292c900d1" x="891.973123" y="200.234677" style="fill: #1f77b4; stroke: #0000ff"/>
     <use xlink:href="#mf292c900d1" x="896.727255" y="145.358334" style="fill: #1f77b4; stroke: #0000ff"/>
     <use xlink:href="#mf292c900d1" x="905.927892" y="195.507747" style="fill: #1f77b4; stroke: #0000ff"/>
     <use xlink:href="#mf292c900d1" x="913.336483" y="163.1855" style="fill: #1f77b4; stroke: #0000ff"/>
     <use xlink:href="#mf292c900d1" x="984.261371" y="138.695266" style="fill: #1f77b4; stroke: #0000ff"/>
     <use xlink:href="#mf292c900d1" x="993.484251" y="114.29888" style="fill: #1f77b4; stroke: #0000ff"/>
     <use xlink:href="#mf292c900d1" x="996.140847" y="116.692791" style="fill: #1f77b4; stroke: #0000ff"/>
     <use xlink:href="#mf292c900d1" x="1000.256646" y="140.49706" style="fill: #1f77b4; stroke: #0000ff"/>
     <use xlink:href="#mf292c900d1" x="1007.314668" y="141.633924" style="fill: #1f77b4; stroke: #0000ff"/>
     <use xlink:href="#mf292c900d1" x="1025.148369" y="177.971652" style="fill: #1f77b4; stroke: #0000ff"/>
     <use xlink:href="#mf292c900d1" x="1027.230017" y="197.925663" style="fill: #1f77b4; stroke: #0000ff"/>
     <use xlink:href="#mf292c900d1" x="1031.953138" y="176.325366" style="fill: #1f77b4; stroke: #0000ff"/>
     <use xlink:href="#mf292c900d1" x="1033.114201" y="169.37767" style="fill: #1f77b4; stroke: #0000ff"/>
     <use xlink:href="#mf292c900d1" x="1038.795282" y="158.310558" style="fill: #1f77b4; stroke: #0000ff"/>
     <use xlink:href="#mf292c900d1" x="1049.051628" y="171.126305" style="fill: #1f77b4; stroke: #0000ff"/>
     <use xlink:href="#mf292c900d1" x="1060.028433" y="210.986746" style="fill: #1f77b4; stroke: #0000ff"/>
     <use xlink:href="#mf292c900d1" x="1061.792955" y="211.880878" style="fill: #1f77b4; stroke: #0000ff"/>
     <use xlink:href="#mf292c900d1" x="1082.263588" y="250.502514" style="fill: #1f77b4; stroke: #0000ff"/>
     <use xlink:href="#mf292c900d1" x="1100.864894" y="278.973698" style="fill: #1f77b4; stroke: #0000ff"/>
     <use xlink:href="#mf292c900d1" x="1101.565737" y="284.427981" style="fill: #1f77b4; stroke: #0000ff"/>
     <use xlink:href="#mf292c900d1" x="1104.873126" y="228.426599" style="fill: #1f77b4; stroke: #0000ff"/>
     <use xlink:href="#mf292c900d1" x="1107.069077" y="270.89747" style="fill: #1f77b4; stroke: #0000ff"/>
     <use xlink:href="#mf292c900d1" x="1116.953933" y="279.527419" style="fill: #1f77b4; stroke: #0000ff"/>
     <use xlink:href="#mf292c900d1" x="1128.000059" y="302.065199" style="fill: #1f77b4; stroke: #0000ff"/>
     <use xlink:href="#mf292c900d1" x="1134.428471" y="273.403967" style="fill: #1f77b4; stroke: #0000ff"/>
     <use xlink:href="#mf292c900d1" x="1144.420372" y="317.818615" style="fill: #1f77b4; stroke: #0000ff"/>
     <use xlink:href="#mf292c900d1" x="1150.054547" y="297.17324" style="fill: #1f77b4; stroke: #0000ff"/>
     <use xlink:href="#mf292c900d1" x="1155.665552" y="309.870749" style="fill: #1f77b4; stroke: #0000ff"/>
     <use xlink:href="#mf292c900d1" x="1160.083607" y="289.736834" style="fill: #1f77b4; stroke: #0000ff"/>
    </g>
   </g>
   <g id="matplotlib.axis_5">
    <g id="text_13">
     <!-- x -->
     <g transform="translate(1015.734743 389.598437)scale(0.1 -0.1)">
      <use xlink:href="#DejaVuSans-78"/>
     </g>
    </g>
   </g>
   <g id="matplotlib.axis_6">
    <g id="text_14">
     <!-- y -->
     <g transform="translate(864.908548 217.879375)rotate(-90)scale(0.1 -0.1)">
      <use xlink:href="#DejaVuSans-79"/>
     </g>
    </g>
   </g>
   <g id="line2d_9">
    <path d="M 876.649077 -1 
L 876.95615 191.368534 
L 878.269751 433 
M 887.237029 433 
L 888.891979 326.313302 
L 891.875936 203.041239 
L 894.859893 151.052839 
L 897.84385 148.085246 
L 900.827807 167.48042 
L 903.811765 187.893607 
L 906.795722 196.631228 
L 909.779679 189.391483 
L 912.763636 168.268296 
L 915.747594 139.204217 
L 918.731551 109.590743 
L 921.715508 86.373862 
L 924.699465 74.794406 
L 927.683422 77.749047 
L 930.66738 95.676072 
L 933.651337 126.832387 
L 936.635294 167.820467 
L 939.619251 214.235315 
L 942.603209 261.323633 
L 945.587166 304.574462 
L 948.571123 340.188175 
L 951.55508 365.396149 
L 954.539037 378.625023 
L 957.522995 379.516276 
L 960.506952 368.823763 
L 963.490909 348.219033 
L 966.474866 320.037267 
L 969.458824 286.996232 
L 972.442781 251.917527 
L 975.426738 217.474401 
L 978.410695 185.984339 
L 981.394652 159.258073 
L 984.37861 138.510276 
L 987.362567 124.331397 
L 990.346524 116.715215 
L 993.330481 115.132887 
L 996.314439 118.641786 
L 999.298396 126.016077 
L 1002.282353 135.885843 
L 1005.26631 146.872427 
L 1008.250267 157.709359 
L 1011.234225 167.340494 
L 1014.218182 174.989675 
L 1017.202139 180.199056 
L 1020.186096 182.835949 
L 1023.170053 183.070601 
L 1026.154011 181.329343 
L 1029.137968 178.22924 
L 1032.121925 174.501271 
L 1035.105882 170.909502 
L 1038.08984 168.17353 
L 1041.073797 166.90062 
L 1044.057754 167.532962 
L 1047.041711 170.31355 
L 1050.025668 175.272759 
L 1053.009626 182.235682 
L 1055.993583 190.848537 
L 1058.97754 200.620689 
L 1061.961497 210.977932 
L 1064.945455 221.3215 
L 1067.929412 231.086902 
L 1070.913369 239.797181 
L 1073.897326 247.105026 
L 1076.881283 252.82055 
L 1079.865241 256.92138 
L 1082.849198 259.544596 
L 1085.833155 260.962268 
L 1088.817112 261.541994 
L 1091.80107 261.697946 
L 1094.785027 261.838259 
L 1097.768984 262.314132 
L 1100.752941 263.377063 
L 1103.736898 265.15167 
L 1106.720856 267.626033 
L 1109.704813 270.662002 
L 1112.68877 274.027644 
L 1115.672727 277.444436 
L 1118.656684 280.646169 
L 1121.640642 283.437289 
L 1124.624599 285.742748 
L 1127.608556 287.635367 
L 1130.592513 289.332904 
L 1133.576471 291.153607 
L 1136.560428 293.432647 
L 1139.544385 296.40364 
L 1142.528342 300.063242 
L 1145.512299 304.041591 
L 1148.496257 307.517482 
L 1151.480214 309.23024 
L 1154.464171 307.62315 
L 1157.448128 301.146319 
L 1160.432086 288.743092 
L 1163.416043 270.432443 
L 1166.4 247.834844 
" clip-path="url(#p701f6db184)" style="fill: none; stroke: #1f77b4; stroke-width: 1.5; stroke-linecap: square"/>
   </g>
   <g id="line2d_10">
    <path d="M 870.988235 214.92 
L 873.972193 211.040171 
L 876.95615 207.16913 
L 879.940107 203.315648 
L 882.924064 199.488454 
L 885.908021 195.696216 
L 888.891979 191.947527 
L 891.875936 188.250878 
L 894.859893 184.614643 
L 897.84385 181.04706 
L 900.827807 177.556209 
L 903.811765 174.15 
L 906.795722 170.836148 
L 909.779679 167.62216 
L 912.763636 164.515316 
L 915.747594 161.522656 
L 918.731551 158.650957 
L 921.715508 155.906727 
L 924.699465 153.29618 
L 927.683422 150.825231 
L 930.66738 148.499477 
L 933.651337 146.324187 
L 936.635294 144.304289 
L 939.619251 142.444358 
L 942.603209 140.748607 
L 945.587166 139.220879 
L 948.571123 137.864633 
L 951.55508 136.682943 
L 954.539037 135.678485 
L 957.522995 134.853534 
L 960.506952 134.20996 
L 963.490909 133.749219 
L 966.474866 133.472357 
L 969.458824 133.38 
L 972.442781 133.472357 
L 975.426738 133.749219 
L 978.410695 134.20996 
L 981.394652 134.853534 
L 984.37861 135.678485 
L 987.362567 136.682943 
L 990.346524 137.864633 
L 993.330481 139.220879 
L 996.314439 140.748607 
L 999.298396 142.444358 
L 1002.282353 144.304289 
L 1005.26631 146.324187 
L 1008.250267 148.499477 
L 1011.234225 150.825231 
L 1014.218182 153.29618 
L 1017.202139 155.906727 
L 1020.186096 158.650957 
L 1023.170053 161.522656 
L 1026.154011 164.515316 
L 1029.137968 167.62216 
L 1032.121925 170.836148 
L 1035.105882 174.15 
L 1038.08984 177.556209 
L 1041.073797 181.04706 
L 1044.057754 184.614643 
L 1047.041711 188.250878 
L 1050.025668 191.947527 
L 1053.009626 195.696216 
L 1055.993583 199.488454 
L 1058.97754 203.315648 
L 1061.961497 207.16913 
L 1064.945455 211.040171 
L 1067.929412 214.92 
L 1070.913369 218.799829 
L 1073.897326 222.67087 
L 1076.881283 226.524352 
L 1079.865241 230.351546 
L 1082.849198 234.143784 
L 1085.833155 237.892473 
L 1088.817112 241.589122 
L 1091.80107 245.225357 
L 1094.785027 248.79294 
L 1097.768984 252.283791 
L 1100.752941 255.69 
L 1103.736898 259.003852 
L 1106.720856 262.21784 
L 1109.704813 265.324684 
L 1112.68877 268.317344 
L 1115.672727 271.189043 
L 1118.656684 273.933273 
L 1121.640642 276.54382 
L 1124.624599 279.014769 
L 1127.608556 281.340523 
L 1130.592513 283.515813 
L 1133.576471 285.535711 
L 1136.560428 287.395642 
L 1139.544385 289.091393 
L 1142.528342 290.619121 
L 1145.512299 291.975367 
L 1148.496257 293.157057 
L 1151.480214 294.161515 
L 1154.464171 294.986466 
L 1157.448128 295.63004 
L 1160.432086 296.090781 
L 1163.416043 296.367643 
L 1166.4 296.46 
" clip-path="url(#p701f6db184)" style="fill: none; stroke: #ff7f0e; stroke-width: 1.5; stroke-linecap: square"/>
   </g>
   <g id="patch_15">
    <path d="M 870.988235 378 
L 870.988235 51.84 
" style="fill: none; stroke: #000000; stroke-width: 0.8; stroke-linejoin: miter; stroke-linecap: square"/>
   </g>
   <g id="patch_16">
    <path d="M 1166.4 378 
L 1166.4 51.84 
" style="fill: none; stroke: #000000; stroke-width: 0.8; stroke-linejoin: miter; stroke-linecap: square"/>
   </g>
   <g id="patch_17">
    <path d="M 870.988235 378 
L 1166.4 378 
" style="fill: none; stroke: #000000; stroke-width: 0.8; stroke-linejoin: miter; stroke-linecap: square"/>
   </g>
   <g id="patch_18">
    <path d="M 870.988235 51.84 
L 1166.4 51.84 
" style="fill: none; stroke: #000000; stroke-width: 0.8; stroke-linejoin: miter; stroke-linecap: square"/>
   </g>
   <g id="text_15">
    <!-- Overfit -->
    <g transform="translate(991.275368 45.84)scale(0.16 -0.16)">
     <defs>
      <path id="DejaVuSans-4f" d="M 2522 4238 
Q 1834 4238 1429 3725 
Q 1025 3213 1025 2328 
Q 1025 1447 1429 934 
Q 1834 422 2522 422 
Q 3209 422 3611 934 
Q 4013 1447 4013 2328 
Q 4013 3213 3611 3725 
Q 3209 4238 2522 4238 
z
M 2522 4750 
Q 3503 4750 4090 4092 
Q 4678 3434 4678 2328 
Q 4678 1225 4090 567 
Q 3503 -91 2522 -91 
Q 1538 -91 948 565 
Q 359 1222 359 2328 
Q 359 3434 948 4092 
Q 1538 4750 2522 4750 
z
" transform="scale(0.015625)"/>
      <path id="DejaVuSans-76" d="M 191 3500 
L 800 3500 
L 1894 563 
L 2988 3500 
L 3597 3500 
L 2284 0 
L 1503 0 
L 191 3500 
z
" transform="scale(0.015625)"/>
     </defs>
     <use xlink:href="#DejaVuSans-4f"/>
     <use xlink:href="#DejaVuSans-76" x="78.710938"/>
     <use xlink:href="#DejaVuSans-65" x="137.890625"/>
     <use xlink:href="#DejaVuSans-72" x="199.414062"/>
     <use xlink:href="#DejaVuSans-66" x="240.527344"/>
     <use xlink:href="#DejaVuSans-69" x="275.732422"/>
     <use xlink:href="#DejaVuSans-74" x="303.515625"/>
    </g>
   </g>
   <g id="legend_3">
    <g id="patch_19">
     <path d="M 1056.59375 103.874375 
L 1159.4 103.874375 
Q 1161.4 103.874375 1161.4 101.874375 
L 1161.4 58.84 
Q 1161.4 56.84 1159.4 56.84 
L 1056.59375 56.84 
Q 1054.59375 56.84 1054.59375 58.84 
L 1054.59375 101.874375 
Q 1054.59375 103.874375 1056.59375 103.874375 
z
" style="fill: #ffffff; opacity: 0.8; stroke: #cccccc; stroke-linejoin: miter"/>
    </g>
    <g id="line2d_11">
     <path d="M 1058.59375 64.938437 
L 1068.59375 64.938437 
L 1078.59375 64.938437 
" style="fill: none; stroke: #1f77b4; stroke-width: 1.5; stroke-linecap: square"/>
    </g>
    <g id="text_16">
     <!-- Trained model -->
     <g transform="translate(1086.59375 68.438437)scale(0.1 -0.1)">
      <use xlink:href="#DejaVuSans-54"/>
      <use xlink:href="#DejaVuSans-72" x="46.333984"/>
      <use xlink:href="#DejaVuSans-61" x="87.447266"/>
      <use xlink:href="#DejaVuSans-69" x="148.726562"/>
      <use xlink:href="#DejaVuSans-6e" x="176.509766"/>
      <use xlink:href="#DejaVuSans-65" x="239.888672"/>
      <use xlink:href="#DejaVuSans-64" x="301.412109"/>
      <use xlink:href="#DejaVuSans-20" x="364.888672"/>
      <use xlink:href="#DejaVuSans-6d" x="396.675781"/>
      <use xlink:href="#DejaVuSans-6f" x="494.087891"/>
      <use xlink:href="#DejaVuSans-64" x="555.269531"/>
      <use xlink:href="#DejaVuSans-65" x="618.746094"/>
      <use xlink:href="#DejaVuSans-6c" x="680.269531"/>
     </g>
    </g>
    <g id="line2d_12">
     <path d="M 1058.59375 79.616562 
L 1068.59375 79.616562 
L 1078.59375 79.616562 
" style="fill: none; stroke: #ff7f0e; stroke-width: 1.5; stroke-linecap: square"/>
    </g>
    <g id="text_17">
     <!-- True function -->
     <g transform="translate(1086.59375 83.116562)scale(0.1 -0.1)">
      <use xlink:href="#DejaVuSans-54"/>
      <use xlink:href="#DejaVuSans-72" x="46.333984"/>
      <use xlink:href="#DejaVuSans-75" x="87.447266"/>
      <use xlink:href="#DejaVuSans-65" x="150.826172"/>
      <use xlink:href="#DejaVuSans-20" x="212.349609"/>
      <use xlink:href="#DejaVuSans-66" x="244.136719"/>
      <use xlink:href="#DejaVuSans-75" x="279.341797"/>
      <use xlink:href="#DejaVuSans-6e" x="342.720703"/>
      <use xlink:href="#DejaVuSans-63" x="406.099609"/>
      <use xlink:href="#DejaVuSans-74" x="461.080078"/>
      <use xlink:href="#DejaVuSans-69" x="500.289062"/>
      <use xlink:href="#DejaVuSans-6f" x="528.072266"/>
      <use xlink:href="#DejaVuSans-6e" x="589.253906"/>
     </g>
    </g>
    <g id="PathCollection_6">
     <g>
      <use xlink:href="#mf292c900d1" x="1068.59375" y="95.169687" style="fill: #1f77b4; stroke: #0000ff"/>
     </g>
    </g>
    <g id="text_18">
     <!-- Training data -->
     <g transform="translate(1086.59375 97.794687)scale(0.1 -0.1)">
      <use xlink:href="#DejaVuSans-54"/>
      <use xlink:href="#DejaVuSans-72" x="46.333984"/>
      <use xlink:href="#DejaVuSans-61" x="87.447266"/>
      <use xlink:href="#DejaVuSans-69" x="148.726562"/>
      <use xlink:href="#DejaVuSans-6e" x="176.509766"/>
      <use xlink:href="#DejaVuSans-69" x="239.888672"/>
      <use xlink:href="#DejaVuSans-6e" x="267.671875"/>
      <use xlink:href="#DejaVuSans-67" x="331.050781"/>
      <use xlink:href="#DejaVuSans-20" x="394.527344"/>
      <use xlink:href="#DejaVuSans-64" x="426.314453"/>
      <use xlink:href="#DejaVuSans-61" x="489.791016"/>
      <use xlink:href="#DejaVuSans-74" x="551.070312"/>
      <use xlink:href="#DejaVuSans-61" x="590.279297"/>
     </g>
    </g>
   </g>
  </g>
 </g>
 <defs>
  <clipPath id="p4716a8f868">
   <rect x="162" y="51.84" width="295.411765" height="326.16"/>
  </clipPath>
  <clipPath id="pc2fba368f3">
   <rect x="516.494118" y="51.84" width="295.411765" height="326.16"/>
  </clipPath>
  <clipPath id="p701f6db184">
   <rect x="870.988235" y="51.84" width="295.411765" height="326.16"/>
  </clipPath>
 </defs>
</svg>
