<?xml version="1.0" encoding="utf-8" standalone="no"?>
<!DOCTYPE svg PUBLIC "-//W3C//DTD SVG 1.1//EN"
  "http://www.w3.org/Graphics/SVG/1.1/DTD/svg11.dtd">
<svg xmlns:xlink="http://www.w3.org/1999/xlink" width="720pt" height="720pt" viewBox="0 0 720 720" xmlns="http://www.w3.org/2000/svg" version="1.1">
 <metadata>
  <rdf:RDF xmlns:dc="http://purl.org/dc/elements/1.1/" xmlns:cc="http://creativecommons.org/ns#" xmlns:rdf="http://www.w3.org/1999/02/22-rdf-syntax-ns#">
   <cc:Work>
    <dc:type rdf:resource="http://purl.org/dc/dcmitype/StillImage"/>
    <dc:date>2022-02-24T12:02:00.776743</dc:date>
    <dc:format>image/svg+xml</dc:format>
    <dc:creator>
     <cc:Agent>
      <dc:title>Matplotlib v3.5.0, https://matplotlib.org/</dc:title>
     </cc:Agent>
    </dc:creator>
   </cc:Work>
  </rdf:RDF>
 </metadata>
 <defs>
  <style type="text/css">*{stroke-linejoin: round; stroke-linecap: butt}</style>
 </defs>
 <g id="figure_1">
  <g id="patch_1">
   <path d="M 0 720 
L 720 720 
L 720 0 
L 0 0 
L 0 720 
z
" style="fill: none"/>
  </g>
  <g id="axes_1">
   <g id="patch_2">
    <path d="M 90 630 
L 648 630 
L 648 86.4 
L 90 86.4 
z
" style="fill: #ffffff"/>
   </g>
   <g id="matplotlib.axis_1">
    <g id="xtick_1">
     <g id="line2d_1">
      <defs>
       <path id="m4f556e8f73" d="M 0 0 
L 0 3.5 
" style="stroke: #000000; stroke-width: 0.8"/>
      </defs>
      <g>
       <use xlink:href="#m4f556e8f73" x="115.363636" y="630" style="stroke: #000000; stroke-width: 0.8"/>
      </g>
     </g>
     <g id="text_1">
      <!-- 0 -->
      <g transform="translate(112.182386 644.598438)scale(0.1 -0.1)">
       <defs>
        <path id="DejaVuSans-30" d="M 2034 4250 
Q 1547 4250 1301 3770 
Q 1056 3291 1056 2328 
Q 1056 1369 1301 889 
Q 1547 409 2034 409 
Q 2525 409 2770 889 
Q 3016 1369 3016 2328 
Q 3016 3291 2770 3770 
Q 2525 4250 2034 4250 
z
M 2034 4750 
Q 2819 4750 3233 4129 
Q 3647 3509 3647 2328 
Q 3647 1150 3233 529 
Q 2819 -91 2034 -91 
Q 1250 -91 836 529 
Q 422 1150 422 2328 
Q 422 3509 836 4129 
Q 1250 4750 2034 4750 
z
" transform="scale(0.015625)"/>
       </defs>
       <use xlink:href="#DejaVuSans-30"/>
      </g>
     </g>
    </g>
    <g id="xtick_2">
     <g id="line2d_2">
      <g>
       <use xlink:href="#m4f556e8f73" x="197.181818" y="630" style="stroke: #000000; stroke-width: 0.8"/>
      </g>
     </g>
     <g id="text_2">
      <!-- 5 -->
      <g transform="translate(194.000568 644.598438)scale(0.1 -0.1)">
       <defs>
        <path id="DejaVuSans-35" d="M 691 4666 
L 3169 4666 
L 3169 4134 
L 1269 4134 
L 1269 2991 
Q 1406 3038 1543 3061 
Q 1681 3084 1819 3084 
Q 2600 3084 3056 2656 
Q 3513 2228 3513 1497 
Q 3513 744 3044 326 
Q 2575 -91 1722 -91 
Q 1428 -91 1123 -41 
Q 819 9 494 109 
L 494 744 
Q 775 591 1075 516 
Q 1375 441 1709 441 
Q 2250 441 2565 725 
Q 2881 1009 2881 1497 
Q 2881 1984 2565 2268 
Q 2250 2553 1709 2553 
Q 1456 2553 1204 2497 
Q 953 2441 691 2322 
L 691 4666 
z
" transform="scale(0.015625)"/>
       </defs>
       <use xlink:href="#DejaVuSans-35"/>
      </g>
     </g>
    </g>
    <g id="xtick_3">
     <g id="line2d_3">
      <g>
       <use xlink:href="#m4f556e8f73" x="279" y="630" style="stroke: #000000; stroke-width: 0.8"/>
      </g>
     </g>
     <g id="text_3">
      <!-- 10 -->
      <g transform="translate(272.6375 644.598438)scale(0.1 -0.1)">
       <defs>
        <path id="DejaVuSans-31" d="M 794 531 
L 1825 531 
L 1825 4091 
L 703 3866 
L 703 4441 
L 1819 4666 
L 2450 4666 
L 2450 531 
L 3481 531 
L 3481 0 
L 794 0 
L 794 531 
z
" transform="scale(0.015625)"/>
       </defs>
       <use xlink:href="#DejaVuSans-31"/>
       <use xlink:href="#DejaVuSans-30" x="63.623047"/>
      </g>
     </g>
    </g>
    <g id="xtick_4">
     <g id="line2d_4">
      <g>
       <use xlink:href="#m4f556e8f73" x="360.818182" y="630" style="stroke: #000000; stroke-width: 0.8"/>
      </g>
     </g>
     <g id="text_4">
      <!-- 15 -->
      <g transform="translate(354.455682 644.598438)scale(0.1 -0.1)">
       <use xlink:href="#DejaVuSans-31"/>
       <use xlink:href="#DejaVuSans-35" x="63.623047"/>
      </g>
     </g>
    </g>
    <g id="xtick_5">
     <g id="line2d_5">
      <g>
       <use xlink:href="#m4f556e8f73" x="442.636364" y="630" style="stroke: #000000; stroke-width: 0.8"/>
      </g>
     </g>
     <g id="text_5">
      <!-- 20 -->
      <g transform="translate(436.273864 644.598438)scale(0.1 -0.1)">
       <defs>
        <path id="DejaVuSans-32" d="M 1228 531 
L 3431 531 
L 3431 0 
L 469 0 
L 469 531 
Q 828 903 1448 1529 
Q 2069 2156 2228 2338 
Q 2531 2678 2651 2914 
Q 2772 3150 2772 3378 
Q 2772 3750 2511 3984 
Q 2250 4219 1831 4219 
Q 1534 4219 1204 4116 
Q 875 4013 500 3803 
L 500 4441 
Q 881 4594 1212 4672 
Q 1544 4750 1819 4750 
Q 2544 4750 2975 4387 
Q 3406 4025 3406 3419 
Q 3406 3131 3298 2873 
Q 3191 2616 2906 2266 
Q 2828 2175 2409 1742 
Q 1991 1309 1228 531 
z
" transform="scale(0.015625)"/>
       </defs>
       <use xlink:href="#DejaVuSans-32"/>
       <use xlink:href="#DejaVuSans-30" x="63.623047"/>
      </g>
     </g>
    </g>
    <g id="xtick_6">
     <g id="line2d_6">
      <g>
       <use xlink:href="#m4f556e8f73" x="524.454545" y="630" style="stroke: #000000; stroke-width: 0.8"/>
      </g>
     </g>
     <g id="text_6">
      <!-- 25 -->
      <g transform="translate(518.092045 644.598438)scale(0.1 -0.1)">
       <use xlink:href="#DejaVuSans-32"/>
       <use xlink:href="#DejaVuSans-35" x="63.623047"/>
      </g>
     </g>
    </g>
    <g id="xtick_7">
     <g id="line2d_7">
      <g>
       <use xlink:href="#m4f556e8f73" x="606.272727" y="630" style="stroke: #000000; stroke-width: 0.8"/>
      </g>
     </g>
     <g id="text_7">
      <!-- 30 -->
      <g transform="translate(599.910227 644.598438)scale(0.1 -0.1)">
       <defs>
        <path id="DejaVuSans-33" d="M 2597 2516 
Q 3050 2419 3304 2112 
Q 3559 1806 3559 1356 
Q 3559 666 3084 287 
Q 2609 -91 1734 -91 
Q 1441 -91 1130 -33 
Q 819 25 488 141 
L 488 750 
Q 750 597 1062 519 
Q 1375 441 1716 441 
Q 2309 441 2620 675 
Q 2931 909 2931 1356 
Q 2931 1769 2642 2001 
Q 2353 2234 1838 2234 
L 1294 2234 
L 1294 2753 
L 1863 2753 
Q 2328 2753 2575 2939 
Q 2822 3125 2822 3475 
Q 2822 3834 2567 4026 
Q 2313 4219 1838 4219 
Q 1578 4219 1281 4162 
Q 984 4106 628 3988 
L 628 4550 
Q 988 4650 1302 4700 
Q 1616 4750 1894 4750 
Q 2613 4750 3031 4423 
Q 3450 4097 3450 3541 
Q 3450 3153 3228 2886 
Q 3006 2619 2597 2516 
z
" transform="scale(0.015625)"/>
       </defs>
       <use xlink:href="#DejaVuSans-33"/>
       <use xlink:href="#DejaVuSans-30" x="63.623047"/>
      </g>
     </g>
    </g>
   </g>
   <g id="matplotlib.axis_2">
    <g id="ytick_1">
     <g id="line2d_8">
      <defs>
       <path id="mf2a2b407eb" d="M 0 0 
L -3.5 0 
" style="stroke: #000000; stroke-width: 0.8"/>
      </defs>
      <g>
       <use xlink:href="#mf2a2b407eb" x="90" y="608.593924" style="stroke: #000000; stroke-width: 0.8"/>
      </g>
     </g>
     <g id="text_8">
      <!-- 0.2 -->
      <g transform="translate(67.096875 612.393143)scale(0.1 -0.1)">
       <defs>
        <path id="DejaVuSans-2e" d="M 684 794 
L 1344 794 
L 1344 0 
L 684 0 
L 684 794 
z
" transform="scale(0.015625)"/>
       </defs>
       <use xlink:href="#DejaVuSans-30"/>
       <use xlink:href="#DejaVuSans-2e" x="63.623047"/>
       <use xlink:href="#DejaVuSans-32" x="95.410156"/>
      </g>
     </g>
    </g>
    <g id="ytick_2">
     <g id="line2d_9">
      <g>
       <use xlink:href="#mf2a2b407eb" x="90" y="502.728067" style="stroke: #000000; stroke-width: 0.8"/>
      </g>
     </g>
     <g id="text_9">
      <!-- 0.3 -->
      <g transform="translate(67.096875 506.527286)scale(0.1 -0.1)">
       <use xlink:href="#DejaVuSans-30"/>
       <use xlink:href="#DejaVuSans-2e" x="63.623047"/>
       <use xlink:href="#DejaVuSans-33" x="95.410156"/>
      </g>
     </g>
    </g>
    <g id="ytick_3">
     <g id="line2d_10">
      <g>
       <use xlink:href="#mf2a2b407eb" x="90" y="396.862211" style="stroke: #000000; stroke-width: 0.8"/>
      </g>
     </g>
     <g id="text_10">
      <!-- 0.4 -->
      <g transform="translate(67.096875 400.66143)scale(0.1 -0.1)">
       <defs>
        <path id="DejaVuSans-34" d="M 2419 4116 
L 825 1625 
L 2419 1625 
L 2419 4116 
z
M 2253 4666 
L 3047 4666 
L 3047 1625 
L 3713 1625 
L 3713 1100 
L 3047 1100 
L 3047 0 
L 2419 0 
L 2419 1100 
L 313 1100 
L 313 1709 
L 2253 4666 
z
" transform="scale(0.015625)"/>
       </defs>
       <use xlink:href="#DejaVuSans-30"/>
       <use xlink:href="#DejaVuSans-2e" x="63.623047"/>
       <use xlink:href="#DejaVuSans-34" x="95.410156"/>
      </g>
     </g>
    </g>
    <g id="ytick_4">
     <g id="line2d_11">
      <g>
       <use xlink:href="#mf2a2b407eb" x="90" y="290.996354" style="stroke: #000000; stroke-width: 0.8"/>
      </g>
     </g>
     <g id="text_11">
      <!-- 0.5 -->
      <g transform="translate(67.096875 294.795573)scale(0.1 -0.1)">
       <use xlink:href="#DejaVuSans-30"/>
       <use xlink:href="#DejaVuSans-2e" x="63.623047"/>
       <use xlink:href="#DejaVuSans-35" x="95.410156"/>
      </g>
     </g>
    </g>
    <g id="ytick_5">
     <g id="line2d_12">
      <g>
       <use xlink:href="#mf2a2b407eb" x="90" y="185.130498" style="stroke: #000000; stroke-width: 0.8"/>
      </g>
     </g>
     <g id="text_12">
      <!-- 0.6 -->
      <g transform="translate(67.096875 188.929717)scale(0.1 -0.1)">
       <defs>
        <path id="DejaVuSans-36" d="M 2113 2584 
Q 1688 2584 1439 2293 
Q 1191 2003 1191 1497 
Q 1191 994 1439 701 
Q 1688 409 2113 409 
Q 2538 409 2786 701 
Q 3034 994 3034 1497 
Q 3034 2003 2786 2293 
Q 2538 2584 2113 2584 
z
M 3366 4563 
L 3366 3988 
Q 3128 4100 2886 4159 
Q 2644 4219 2406 4219 
Q 1781 4219 1451 3797 
Q 1122 3375 1075 2522 
Q 1259 2794 1537 2939 
Q 1816 3084 2150 3084 
Q 2853 3084 3261 2657 
Q 3669 2231 3669 1497 
Q 3669 778 3244 343 
Q 2819 -91 2113 -91 
Q 1303 -91 875 529 
Q 447 1150 447 2328 
Q 447 3434 972 4092 
Q 1497 4750 2381 4750 
Q 2619 4750 2861 4703 
Q 3103 4656 3366 4563 
z
" transform="scale(0.015625)"/>
       </defs>
       <use xlink:href="#DejaVuSans-30"/>
       <use xlink:href="#DejaVuSans-2e" x="63.623047"/>
       <use xlink:href="#DejaVuSans-36" x="95.410156"/>
      </g>
     </g>
    </g>
    <g id="text_13">
     <!-- F1 score -->
     <g transform="translate(61.017187 379.278906)rotate(-90)scale(0.1 -0.1)">
      <defs>
       <path id="DejaVuSans-46" d="M 628 4666 
L 3309 4666 
L 3309 4134 
L 1259 4134 
L 1259 2759 
L 3109 2759 
L 3109 2228 
L 1259 2228 
L 1259 0 
L 628 0 
L 628 4666 
z
" transform="scale(0.015625)"/>
       <path id="DejaVuSans-20" transform="scale(0.015625)"/>
       <path id="DejaVuSans-73" d="M 2834 3397 
L 2834 2853 
Q 2591 2978 2328 3040 
Q 2066 3103 1784 3103 
Q 1356 3103 1142 2972 
Q 928 2841 928 2578 
Q 928 2378 1081 2264 
Q 1234 2150 1697 2047 
L 1894 2003 
Q 2506 1872 2764 1633 
Q 3022 1394 3022 966 
Q 3022 478 2636 193 
Q 2250 -91 1575 -91 
Q 1294 -91 989 -36 
Q 684 19 347 128 
L 347 722 
Q 666 556 975 473 
Q 1284 391 1588 391 
Q 1994 391 2212 530 
Q 2431 669 2431 922 
Q 2431 1156 2273 1281 
Q 2116 1406 1581 1522 
L 1381 1569 
Q 847 1681 609 1914 
Q 372 2147 372 2553 
Q 372 3047 722 3315 
Q 1072 3584 1716 3584 
Q 2034 3584 2315 3537 
Q 2597 3491 2834 3397 
z
" transform="scale(0.015625)"/>
       <path id="DejaVuSans-63" d="M 3122 3366 
L 3122 2828 
Q 2878 2963 2633 3030 
Q 2388 3097 2138 3097 
Q 1578 3097 1268 2742 
Q 959 2388 959 1747 
Q 959 1106 1268 751 
Q 1578 397 2138 397 
Q 2388 397 2633 464 
Q 2878 531 3122 666 
L 3122 134 
Q 2881 22 2623 -34 
Q 2366 -91 2075 -91 
Q 1284 -91 818 406 
Q 353 903 353 1747 
Q 353 2603 823 3093 
Q 1294 3584 2113 3584 
Q 2378 3584 2631 3529 
Q 2884 3475 3122 3366 
z
" transform="scale(0.015625)"/>
       <path id="DejaVuSans-6f" d="M 1959 3097 
Q 1497 3097 1228 2736 
Q 959 2375 959 1747 
Q 959 1119 1226 758 
Q 1494 397 1959 397 
Q 2419 397 2687 759 
Q 2956 1122 2956 1747 
Q 2956 2369 2687 2733 
Q 2419 3097 1959 3097 
z
M 1959 3584 
Q 2709 3584 3137 3096 
Q 3566 2609 3566 1747 
Q 3566 888 3137 398 
Q 2709 -91 1959 -91 
Q 1206 -91 779 398 
Q 353 888 353 1747 
Q 353 2609 779 3096 
Q 1206 3584 1959 3584 
z
" transform="scale(0.015625)"/>
       <path id="DejaVuSans-72" d="M 2631 2963 
Q 2534 3019 2420 3045 
Q 2306 3072 2169 3072 
Q 1681 3072 1420 2755 
Q 1159 2438 1159 1844 
L 1159 0 
L 581 0 
L 581 3500 
L 1159 3500 
L 1159 2956 
Q 1341 3275 1631 3429 
Q 1922 3584 2338 3584 
Q 2397 3584 2469 3576 
Q 2541 3569 2628 3553 
L 2631 2963 
z
" transform="scale(0.015625)"/>
       <path id="DejaVuSans-65" d="M 3597 1894 
L 3597 1613 
L 953 1613 
Q 991 1019 1311 708 
Q 1631 397 2203 397 
Q 2534 397 2845 478 
Q 3156 559 3463 722 
L 3463 178 
Q 3153 47 2828 -22 
Q 2503 -91 2169 -91 
Q 1331 -91 842 396 
Q 353 884 353 1716 
Q 353 2575 817 3079 
Q 1281 3584 2069 3584 
Q 2775 3584 3186 3129 
Q 3597 2675 3597 1894 
z
M 3022 2063 
Q 3016 2534 2758 2815 
Q 2500 3097 2075 3097 
Q 1594 3097 1305 2825 
Q 1016 2553 972 2059 
L 3022 2063 
z
" transform="scale(0.015625)"/>
      </defs>
      <use xlink:href="#DejaVuSans-46"/>
      <use xlink:href="#DejaVuSans-31" x="57.519531"/>
      <use xlink:href="#DejaVuSans-20" x="121.142578"/>
      <use xlink:href="#DejaVuSans-73" x="152.929688"/>
      <use xlink:href="#DejaVuSans-63" x="205.029297"/>
      <use xlink:href="#DejaVuSans-6f" x="260.009766"/>
      <use xlink:href="#DejaVuSans-72" x="321.191406"/>
      <use xlink:href="#DejaVuSans-65" x="360.054688"/>
     </g>
    </g>
   </g>
   <path d="M 115.363636 568.618976 
L 131.727273 499.679131 
L 148.090909 486.72115 
L 164.454545 460.297032 
L 180.818182 459.619491 
L 197.181818 428.283197 
L 213.545455 396.692825 
L 229.909091 390.764337 
L 246.272727 386.10624 
L 262.636364 380.516523 
L 279 372.894181 
L 295.363636 359.682122 
L 311.727273 359.682122 
L 328.090909 356.717878 
L 344.454545 356.717878 
L 360.818182 330.463146 
L 377.181818 328.007058 
L 393.545455 325.296892 
L 409.909091 320.130638 
L 426.272727 299.042159 
L 442.636364 224.851367 
L 459 222.056509 
L 475.363636 219.515728 
L 491.727273 200.96803 
L 508.090909 158.198224 
L 524.454545 142.61477 
L 540.818182 137.194438 
L 557.181818 134.907735 
L 573.545455 134.73835 
L 589.909091 134.568965 
L 606.272727 124.32115 
L 622.636364 111.109091 
" clip-path="url(#p2235495319)" style="fill: none; stroke: #000000; stroke-width: 6; stroke-linecap: square"/>
   <path d="M 115.363636 568.618976 
L 131.727273 499.679131 
L 148.090909 486.72115 
L 164.454545 460.297032 
L 180.818182 459.619491 
L 197.181818 428.283197 
L 213.545455 396.692825 
L 229.909091 390.764337 
L 246.272727 386.10624 
L 262.636364 380.516523 
L 279 372.894181 
L 295.363636 359.682122 
L 311.727273 359.682122 
L 328.090909 356.717878 
L 344.454545 356.717878 
L 360.818182 330.463146 
L 377.181818 328.007058 
L 393.545455 325.296892 
L 409.909091 320.130638 
L 426.272727 299.042159 
L 442.636364 224.851367 
L 459 222.056509 
L 475.363636 219.515728 
L 491.727273 200.96803 
L 508.090909 158.198224 
L 524.454545 142.61477 
L 540.818182 137.194438 
L 557.181818 134.907735 
L 573.545455 134.73835 
L 589.909091 134.568965 
L 606.272727 124.32115 
L 622.636364 111.109091 
" clip-path="url(#p2235495319)" style="fill: none; stroke: #1f77b4; stroke-width: 3; stroke-linecap: square"/>
   <path d="M 117.363636 570.618976 
L 133.727273 501.679131 
L 150.090909 488.72115 
L 166.454545 462.297032 
L 182.818182 461.619491 
L 199.181818 430.283197 
L 215.545455 398.692825 
L 231.909091 392.764337 
L 248.272727 388.10624 
L 264.636364 382.516523 
L 281 374.894181 
L 297.363636 361.682122 
L 313.727273 361.682122 
L 330.090909 358.717878 
L 346.454545 358.717878 
L 362.818182 332.463146 
L 379.181818 330.007058 
L 395.545455 327.296892 
L 411.909091 322.130638 
L 428.272727 301.042159 
L 444.636364 226.851367 
L 461 224.056509 
L 477.363636 221.515728 
L 493.727273 202.96803 
L 510.090909 160.198224 
L 526.454545 144.61477 
L 542.818182 139.194438 
L 559.181818 136.907735 
L 575.545455 136.73835 
L 591.909091 136.568965 
L 608.272727 126.32115 
L 624.636364 113.109091 
" clip-path="url(#p2235495319)" style="fill: none; opacity: 0.3; stroke: #000000; stroke-width: 3; stroke-linecap: square"/>
   <path d="M 115.363636 605.290909 
L 131.727273 486.72115 
L 148.090909 459.619491 
L 164.454545 431.078056 
L 180.818182 420.322085 
L 197.181818 393.474503 
L 213.545455 390.764337 
L 229.909091 383.226688 
L 246.272727 380.516523 
L 262.636364 362.731059 
L 279 293.537135 
L 295.363636 288.116803 
L 311.727273 282.865857 
L 328.090909 280.325076 
L 344.454545 261.5233 
L 360.818182 253.900958 
L 377.181818 243.144987 
L 393.545455 232.558401 
L 409.909091 227.392148 
L 426.272727 224.851367 
L 442.636364 222.056509 
L 459 219.515728 
L 475.363636 214.264781 
L 491.727273 200.96803 
L 508.090909 158.198224 
L 524.454545 142.61477 
L 540.818182 137.194438 
L 557.181818 134.907735 
L 573.545455 134.73835 
L 589.909091 134.568965 
L 606.272727 124.32115 
L 622.636364 111.109091 
" clip-path="url(#p2235495319)" style="fill: none; stroke: #000000; stroke-width: 6; stroke-linecap: square"/>
   <path d="M 115.363636 605.290909 
L 131.727273 486.72115 
L 148.090909 459.619491 
L 164.454545 431.078056 
L 180.818182 420.322085 
L 197.181818 393.474503 
L 213.545455 390.764337 
L 229.909091 383.226688 
L 246.272727 380.516523 
L 262.636364 362.731059 
L 279 293.537135 
L 295.363636 288.116803 
L 311.727273 282.865857 
L 328.090909 280.325076 
L 344.454545 261.5233 
L 360.818182 253.900958 
L 377.181818 243.144987 
L 393.545455 232.558401 
L 409.909091 227.392148 
L 426.272727 224.851367 
L 442.636364 222.056509 
L 459 219.515728 
L 475.363636 214.264781 
L 491.727273 200.96803 
L 508.090909 158.198224 
L 524.454545 142.61477 
L 540.818182 137.194438 
L 557.181818 134.907735 
L 573.545455 134.73835 
L 589.909091 134.568965 
L 606.272727 124.32115 
L 622.636364 111.109091 
" clip-path="url(#p2235495319)" style="fill: none; stroke: #ff7f0e; stroke-width: 3; stroke-linecap: square"/>
   <path d="M 117.363636 607.290909 
L 133.727273 488.72115 
L 150.090909 461.619491 
L 166.454545 433.078056 
L 182.818182 422.322085 
L 199.181818 395.474503 
L 215.545455 392.764337 
L 231.909091 385.226688 
L 248.272727 382.516523 
L 264.636364 364.731059 
L 281 295.537135 
L 297.363636 290.116803 
L 313.727273 284.865857 
L 330.090909 282.325076 
L 346.454545 263.5233 
L 362.818182 255.900958 
L 379.181818 245.144987 
L 395.545455 234.558401 
L 411.909091 229.392148 
L 428.272727 226.851367 
L 444.636364 224.056509 
L 461 221.515728 
L 477.363636 216.264781 
L 493.727273 202.96803 
L 510.090909 160.198224 
L 526.454545 144.61477 
L 542.818182 139.194438 
L 559.181818 136.907735 
L 575.545455 136.73835 
L 591.909091 136.568965 
L 608.272727 126.32115 
L 624.636364 113.109091 
" clip-path="url(#p2235495319)" style="fill: none; opacity: 0.3; stroke: #000000; stroke-width: 3; stroke-linecap: square"/>
   <path d="M 115.363636 515.686048 
L 131.727273 499.679131 
L 148.090909 459.619491 
L 164.454545 431.078056 
L 180.818182 428.283197 
L 197.181818 396.608133 
L 213.545455 391.78065 
L 229.909091 386.10624 
L 246.272727 383.226688 
L 262.636364 380.516523 
L 279 375.350269 
L 295.363636 372.894181 
L 311.727273 367.389156 
L 328.090909 356.717878 
L 344.454545 346.38537 
L 360.818182 330.463146 
L 377.181818 328.007058 
L 393.545455 325.296892 
L 409.909091 304.462491 
L 426.272727 299.042159 
L 442.636364 293.537135 
L 459 282.865857 
L 475.363636 261.5233 
L 491.727273 243.144987 
L 508.090909 232.558401 
L 524.454545 224.851367 
L 540.818182 219.515728 
L 557.181818 214.264781 
L 573.545455 134.73835 
L 589.909091 134.568965 
L 606.272727 124.32115 
L 622.636364 111.109091 
" clip-path="url(#p2235495319)" style="fill: none; stroke: #000000; stroke-width: 6; stroke-linecap: square"/>
   <path d="M 115.363636 515.686048 
L 131.727273 499.679131 
L 148.090909 459.619491 
L 164.454545 431.078056 
L 180.818182 428.283197 
L 197.181818 396.608133 
L 213.545455 391.78065 
L 229.909091 386.10624 
L 246.272727 383.226688 
L 262.636364 380.516523 
L 279 375.350269 
L 295.363636 372.894181 
L 311.727273 367.389156 
L 328.090909 356.717878 
L 344.454545 346.38537 
L 360.818182 330.463146 
L 377.181818 328.007058 
L 393.545455 325.296892 
L 409.909091 304.462491 
L 426.272727 299.042159 
L 442.636364 293.537135 
L 459 282.865857 
L 475.363636 261.5233 
L 491.727273 243.144987 
L 508.090909 232.558401 
L 524.454545 224.851367 
L 540.818182 219.515728 
L 557.181818 214.264781 
L 573.545455 134.73835 
L 589.909091 134.568965 
L 606.272727 124.32115 
L 622.636364 111.109091 
" clip-path="url(#p2235495319)" style="fill: none; stroke: #2ca02c; stroke-width: 3; stroke-linecap: square"/>
   <path d="M 117.363636 517.686048 
L 133.727273 501.679131 
L 150.090909 461.619491 
L 166.454545 433.078056 
L 182.818182 430.283197 
L 199.181818 398.608133 
L 215.545455 393.78065 
L 231.909091 388.10624 
L 248.272727 385.226688 
L 264.636364 382.516523 
L 281 377.350269 
L 297.363636 374.894181 
L 313.727273 369.389156 
L 330.090909 358.717878 
L 346.454545 348.38537 
L 362.818182 332.463146 
L 379.181818 330.007058 
L 395.545455 327.296892 
L 411.909091 306.462491 
L 428.272727 301.042159 
L 444.636364 295.537135 
L 461 284.865857 
L 477.363636 263.5233 
L 493.727273 245.144987 
L 510.090909 234.558401 
L 526.454545 226.851367 
L 542.818182 221.515728 
L 559.181818 216.264781 
L 575.545455 136.73835 
L 591.909091 136.568965 
L 608.272727 126.32115 
L 624.636364 113.109091 
" clip-path="url(#p2235495319)" style="fill: none; opacity: 0.3; stroke: #000000; stroke-width: 3; stroke-linecap: square"/>
   <path d="M 115.363636 534.487824 
L 131.727273 460.297032 
L 148.090909 428.283197 
L 164.454545 425.996495 
L 180.818182 420.322085 
L 197.181818 412.445665 
L 213.545455 396.692825 
L 229.909091 391.78065 
L 246.272727 390.764337 
L 262.636364 383.226688 
L 279 380.516523 
L 295.363636 375.350269 
L 311.727273 372.894181 
L 328.090909 369.929937 
L 344.454545 367.389156 
L 360.818182 356.717878 
L 377.181818 330.463146 
L 393.545455 320.130638 
L 409.909091 304.462491 
L 426.272727 299.042159 
L 442.636364 293.537135 
L 459 288.116803 
L 475.363636 280.325076 
L 491.727273 243.144987 
L 508.090909 232.558401 
L 524.454545 227.392148 
L 540.818182 224.851367 
L 557.181818 200.96803 
L 573.545455 137.194438 
L 589.909091 134.907735 
L 606.272727 134.73835 
L 622.636364 111.109091 
" clip-path="url(#p2235495319)" style="fill: none; stroke: #000000; stroke-width: 6; stroke-linecap: square"/>
   <path d="M 115.363636 534.487824 
L 131.727273 460.297032 
L 148.090909 428.283197 
L 164.454545 425.996495 
L 180.818182 420.322085 
L 197.181818 412.445665 
L 213.545455 396.692825 
L 229.909091 391.78065 
L 246.272727 390.764337 
L 262.636364 383.226688 
L 279 380.516523 
L 295.363636 375.350269 
L 311.727273 372.894181 
L 328.090909 369.929937 
L 344.454545 367.389156 
L 360.818182 356.717878 
L 377.181818 330.463146 
L 393.545455 320.130638 
L 409.909091 304.462491 
L 426.272727 299.042159 
L 442.636364 293.537135 
L 459 288.116803 
L 475.363636 280.325076 
L 491.727273 243.144987 
L 508.090909 232.558401 
L 524.454545 227.392148 
L 540.818182 224.851367 
L 557.181818 200.96803 
L 573.545455 137.194438 
L 589.909091 134.907735 
L 606.272727 134.73835 
L 622.636364 111.109091 
" clip-path="url(#p2235495319)" style="fill: none; stroke: #d62728; stroke-width: 3; stroke-linecap: square"/>
   <path d="M 117.363636 536.487824 
L 133.727273 462.297032 
L 150.090909 430.283197 
L 166.454545 427.996495 
L 182.818182 422.322085 
L 199.181818 414.445665 
L 215.545455 398.692825 
L 231.909091 393.78065 
L 248.272727 392.764337 
L 264.636364 385.226688 
L 281 382.516523 
L 297.363636 377.350269 
L 313.727273 374.894181 
L 330.090909 371.929937 
L 346.454545 369.389156 
L 362.818182 358.717878 
L 379.181818 332.463146 
L 395.545455 322.130638 
L 411.909091 306.462491 
L 428.272727 301.042159 
L 444.636364 295.537135 
L 461 290.116803 
L 477.363636 282.325076 
L 493.727273 245.144987 
L 510.090909 234.558401 
L 526.454545 229.392148 
L 542.818182 226.851367 
L 559.181818 202.96803 
L 575.545455 139.194438 
L 591.909091 136.907735 
L 608.272727 136.73835 
L 624.636364 113.109091 
" clip-path="url(#p2235495319)" style="fill: none; opacity: 0.3; stroke: #000000; stroke-width: 3; stroke-linecap: square"/>
   <path d="M 115.363636 455.046086 
L 131.727273 425.996495 
L 148.090909 404.315167 
L 164.454545 369.929937 
L 180.818182 367.389156 
L 197.181818 362.731059 
L 213.545455 359.682122 
L 229.909091 356.717878 
L 246.272727 356.717878 
L 262.636364 346.38537 
L 279 330.463146 
L 295.363636 328.007058 
L 311.727273 325.296892 
L 328.090909 325.296892 
L 344.454545 320.130638 
L 360.818182 304.462491 
L 377.181818 299.042159 
L 393.545455 288.116803 
L 409.909091 261.5233 
L 426.272727 253.900958 
L 442.636364 243.144987 
L 459 232.558401 
L 475.363636 227.392148 
L 491.727273 214.264781 
L 508.090909 158.198224 
L 524.454545 142.61477 
L 540.818182 137.194438 
L 557.181818 134.907735 
L 573.545455 134.73835 
L 589.909091 134.568965 
L 606.272727 124.32115 
L 622.636364 111.109091 
" clip-path="url(#p2235495319)" style="fill: none; stroke: #000000; stroke-width: 6; stroke-linecap: square"/>
   <path d="M 115.363636 455.046086 
L 131.727273 425.996495 
L 148.090909 404.315167 
L 164.454545 369.929937 
L 180.818182 367.389156 
L 197.181818 362.731059 
L 213.545455 359.682122 
L 229.909091 356.717878 
L 246.272727 356.717878 
L 262.636364 346.38537 
L 279 330.463146 
L 295.363636 328.007058 
L 311.727273 325.296892 
L 328.090909 325.296892 
L 344.454545 320.130638 
L 360.818182 304.462491 
L 377.181818 299.042159 
L 393.545455 288.116803 
L 409.909091 261.5233 
L 426.272727 253.900958 
L 442.636364 243.144987 
L 459 232.558401 
L 475.363636 227.392148 
L 491.727273 214.264781 
L 508.090909 158.198224 
L 524.454545 142.61477 
L 540.818182 137.194438 
L 557.181818 134.907735 
L 573.545455 134.73835 
L 589.909091 134.568965 
L 606.272727 124.32115 
L 622.636364 111.109091 
" clip-path="url(#p2235495319)" style="fill: none; stroke: #9467bd; stroke-width: 3; stroke-linecap: square"/>
   <path d="M 117.363636 457.046086 
L 133.727273 427.996495 
L 150.090909 406.315167 
L 166.454545 371.929937 
L 182.818182 369.389156 
L 199.181818 364.731059 
L 215.545455 361.682122 
L 231.909091 358.717878 
L 248.272727 358.717878 
L 264.636364 348.38537 
L 281 332.463146 
L 297.363636 330.007058 
L 313.727273 327.296892 
L 330.090909 327.296892 
L 346.454545 322.130638 
L 362.818182 306.462491 
L 379.181818 301.042159 
L 395.545455 290.116803 
L 411.909091 263.5233 
L 428.272727 255.900958 
L 444.636364 245.144987 
L 461 234.558401 
L 477.363636 229.392148 
L 493.727273 216.264781 
L 510.090909 160.198224 
L 526.454545 144.61477 
L 542.818182 139.194438 
L 559.181818 136.907735 
L 575.545455 136.73835 
L 591.909091 136.568965 
L 608.272727 126.32115 
L 624.636364 113.109091 
" clip-path="url(#p2235495319)" style="fill: none; opacity: 0.3; stroke: #000000; stroke-width: 3; stroke-linecap: square"/>
   <path d="M 115.363636 578.358635 
L 131.727273 412.445665 
L 148.090909 404.315167 
L 164.454545 396.692825 
L 180.818182 396.608133 
L 197.181818 393.474503 
L 213.545455 386.10624 
L 229.909091 375.350269 
L 246.272727 372.894181 
L 262.636364 369.929937 
L 279 359.682122 
L 295.363636 328.007058 
L 311.727273 325.296892 
L 328.090909 325.296892 
L 344.454545 320.130638 
L 360.818182 304.462491 
L 377.181818 299.042159 
L 393.545455 293.537135 
L 409.909091 282.865857 
L 426.272727 280.325076 
L 442.636364 253.900958 
L 459 232.558401 
L 475.363636 227.392148 
L 491.727273 224.851367 
L 508.090909 222.056509 
L 524.454545 219.515728 
L 540.818182 214.264781 
L 557.181818 200.96803 
L 573.545455 142.61477 
L 589.909091 134.907735 
L 606.272727 124.32115 
L 622.636364 111.109091 
" clip-path="url(#p2235495319)" style="fill: none; stroke: #000000; stroke-width: 6; stroke-linecap: square"/>
   <path d="M 115.363636 578.358635 
L 131.727273 412.445665 
L 148.090909 404.315167 
L 164.454545 396.692825 
L 180.818182 396.608133 
L 197.181818 393.474503 
L 213.545455 386.10624 
L 229.909091 375.350269 
L 246.272727 372.894181 
L 262.636364 369.929937 
L 279 359.682122 
L 295.363636 328.007058 
L 311.727273 325.296892 
L 328.090909 325.296892 
L 344.454545 320.130638 
L 360.818182 304.462491 
L 377.181818 299.042159 
L 393.545455 293.537135 
L 409.909091 282.865857 
L 426.272727 280.325076 
L 442.636364 253.900958 
L 459 232.558401 
L 475.363636 227.392148 
L 491.727273 224.851367 
L 508.090909 222.056509 
L 524.454545 219.515728 
L 540.818182 214.264781 
L 557.181818 200.96803 
L 573.545455 142.61477 
L 589.909091 134.907735 
L 606.272727 124.32115 
L 622.636364 111.109091 
" clip-path="url(#p2235495319)" style="fill: none; stroke: #8c564b; stroke-width: 3; stroke-linecap: square"/>
   <path d="M 117.363636 580.358635 
L 133.727273 414.445665 
L 150.090909 406.315167 
L 166.454545 398.692825 
L 182.818182 398.608133 
L 199.181818 395.474503 
L 215.545455 388.10624 
L 231.909091 377.350269 
L 248.272727 374.894181 
L 264.636364 371.929937 
L 281 361.682122 
L 297.363636 330.007058 
L 313.727273 327.296892 
L 330.090909 327.296892 
L 346.454545 322.130638 
L 362.818182 306.462491 
L 379.181818 301.042159 
L 395.545455 295.537135 
L 411.909091 284.865857 
L 428.272727 282.325076 
L 444.636364 255.900958 
L 461 234.558401 
L 477.363636 229.392148 
L 493.727273 226.851367 
L 510.090909 224.056509 
L 526.454545 221.515728 
L 542.818182 216.264781 
L 559.181818 202.96803 
L 575.545455 144.61477 
L 591.909091 136.907735 
L 608.272727 126.32115 
L 624.636364 113.109091 
" clip-path="url(#p2235495319)" style="fill: none; opacity: 0.3; stroke: #000000; stroke-width: 3; stroke-linecap: square"/>
   <g id="patch_3">
    <path d="M 90 630 
L 90 86.4 
" style="fill: none; stroke: #000000; stroke-width: 0.8; stroke-linejoin: miter; stroke-linecap: square"/>
   </g>
   <g id="patch_4">
    <path d="M 648 630 
L 648 86.4 
" style="fill: none; stroke: #000000; stroke-width: 0.8; stroke-linejoin: miter; stroke-linecap: square"/>
   </g>
   <g id="patch_5">
    <path d="M 90 630 
L 648 630 
" style="fill: none; stroke: #000000; stroke-width: 0.8; stroke-linejoin: miter; stroke-linecap: square"/>
   </g>
   <g id="patch_6">
    <path d="M 90 86.4 
L 648 86.4 
" style="fill: none; stroke: #000000; stroke-width: 0.8; stroke-linejoin: miter; stroke-linecap: square"/>
   </g>
   <g id="legend_1">
    <g id="patch_7">
     <path d="M 97 182.46875 
L 166.646875 182.46875 
Q 168.646875 182.46875 168.646875 180.46875 
L 168.646875 93.4 
Q 168.646875 91.4 166.646875 91.4 
L 97 91.4 
Q 95 91.4 95 93.4 
L 95 180.46875 
Q 95 182.46875 97 182.46875 
z
" style="fill: #ffffff; opacity: 0.8; stroke: #cccccc; stroke-linejoin: miter"/>
    </g>
    <path d="M 99 99.498438 
L 109 99.498438 
L 119 99.498438 
" style="fill: none; stroke: #000000; stroke-width: 6; stroke-linecap: square"/>
    <path d="M 99 99.498438 
L 109 99.498438 
L 119 99.498438 
" style="fill: none; stroke: #1f77b4; stroke-width: 3; stroke-linecap: square"/>
    <path d="M 101 101.498438 
L 111 101.498438 
L 121 101.498438 
" style="fill: none; opacity: 0.3; stroke: #000000; stroke-width: 3; stroke-linecap: square"/>
    <g id="text_14">
     <!-- 38kHz -->
     <g transform="translate(127 102.998438)scale(0.1 -0.1)">
      <defs>
       <path id="DejaVuSans-38" d="M 2034 2216 
Q 1584 2216 1326 1975 
Q 1069 1734 1069 1313 
Q 1069 891 1326 650 
Q 1584 409 2034 409 
Q 2484 409 2743 651 
Q 3003 894 3003 1313 
Q 3003 1734 2745 1975 
Q 2488 2216 2034 2216 
z
M 1403 2484 
Q 997 2584 770 2862 
Q 544 3141 544 3541 
Q 544 4100 942 4425 
Q 1341 4750 2034 4750 
Q 2731 4750 3128 4425 
Q 3525 4100 3525 3541 
Q 3525 3141 3298 2862 
Q 3072 2584 2669 2484 
Q 3125 2378 3379 2068 
Q 3634 1759 3634 1313 
Q 3634 634 3220 271 
Q 2806 -91 2034 -91 
Q 1263 -91 848 271 
Q 434 634 434 1313 
Q 434 1759 690 2068 
Q 947 2378 1403 2484 
z
M 1172 3481 
Q 1172 3119 1398 2916 
Q 1625 2713 2034 2713 
Q 2441 2713 2670 2916 
Q 2900 3119 2900 3481 
Q 2900 3844 2670 4047 
Q 2441 4250 2034 4250 
Q 1625 4250 1398 4047 
Q 1172 3844 1172 3481 
z
" transform="scale(0.015625)"/>
       <path id="DejaVuSans-6b" d="M 581 4863 
L 1159 4863 
L 1159 1991 
L 2875 3500 
L 3609 3500 
L 1753 1863 
L 3688 0 
L 2938 0 
L 1159 1709 
L 1159 0 
L 581 0 
L 581 4863 
z
" transform="scale(0.015625)"/>
       <path id="DejaVuSans-48" d="M 628 4666 
L 1259 4666 
L 1259 2753 
L 3553 2753 
L 3553 4666 
L 4184 4666 
L 4184 0 
L 3553 0 
L 3553 2222 
L 1259 2222 
L 1259 0 
L 628 0 
L 628 4666 
z
" transform="scale(0.015625)"/>
       <path id="DejaVuSans-7a" d="M 353 3500 
L 3084 3500 
L 3084 2975 
L 922 459 
L 3084 459 
L 3084 0 
L 275 0 
L 275 525 
L 2438 3041 
L 353 3041 
L 353 3500 
z
" transform="scale(0.015625)"/>
      </defs>
      <use xlink:href="#DejaVuSans-33"/>
      <use xlink:href="#DejaVuSans-38" x="63.623047"/>
      <use xlink:href="#DejaVuSans-6b" x="127.246094"/>
      <use xlink:href="#DejaVuSans-48" x="185.15625"/>
      <use xlink:href="#DejaVuSans-7a" x="260.351562"/>
     </g>
    </g>
    <path d="M 99 114.176563 
L 109 114.176563 
L 119 114.176563 
" style="fill: none; stroke: #000000; stroke-width: 6; stroke-linecap: square"/>
    <path d="M 99 114.176563 
L 109 114.176563 
L 119 114.176563 
" style="fill: none; stroke: #ff7f0e; stroke-width: 3; stroke-linecap: square"/>
    <path d="M 101 116.176563 
L 111 116.176563 
L 121 116.176563 
" style="fill: none; opacity: 0.3; stroke: #000000; stroke-width: 3; stroke-linecap: square"/>
    <g id="text_15">
     <!-- 18kHz -->
     <g transform="translate(127 117.676563)scale(0.1 -0.1)">
      <use xlink:href="#DejaVuSans-31"/>
      <use xlink:href="#DejaVuSans-38" x="63.623047"/>
      <use xlink:href="#DejaVuSans-6b" x="127.246094"/>
      <use xlink:href="#DejaVuSans-48" x="185.15625"/>
      <use xlink:href="#DejaVuSans-7a" x="260.351562"/>
     </g>
    </g>
    <path d="M 99 128.854688 
L 109 128.854688 
L 119 128.854688 
" style="fill: none; stroke: #000000; stroke-width: 6; stroke-linecap: square"/>
    <path d="M 99 128.854688 
L 109 128.854688 
L 119 128.854688 
" style="fill: none; stroke: #2ca02c; stroke-width: 3; stroke-linecap: square"/>
    <path d="M 101 130.854688 
L 111 130.854688 
L 121 130.854688 
" style="fill: none; opacity: 0.3; stroke: #000000; stroke-width: 3; stroke-linecap: square"/>
    <g id="text_16">
     <!-- 70kHz -->
     <g transform="translate(127 132.354688)scale(0.1 -0.1)">
      <defs>
       <path id="DejaVuSans-37" d="M 525 4666 
L 3525 4666 
L 3525 4397 
L 1831 0 
L 1172 0 
L 2766 4134 
L 525 4134 
L 525 4666 
z
" transform="scale(0.015625)"/>
      </defs>
      <use xlink:href="#DejaVuSans-37"/>
      <use xlink:href="#DejaVuSans-30" x="63.623047"/>
      <use xlink:href="#DejaVuSans-6b" x="127.246094"/>
      <use xlink:href="#DejaVuSans-48" x="185.15625"/>
      <use xlink:href="#DejaVuSans-7a" x="260.351562"/>
     </g>
    </g>
    <path d="M 99 143.532812 
L 109 143.532812 
L 119 143.532812 
" style="fill: none; stroke: #000000; stroke-width: 6; stroke-linecap: square"/>
    <path d="M 99 143.532812 
L 109 143.532812 
L 119 143.532812 
" style="fill: none; stroke: #d62728; stroke-width: 3; stroke-linecap: square"/>
    <path d="M 101 145.532812 
L 111 145.532812 
L 121 145.532812 
" style="fill: none; opacity: 0.3; stroke: #000000; stroke-width: 3; stroke-linecap: square"/>
    <g id="text_17">
     <!-- 120kHz -->
     <g transform="translate(127 147.032812)scale(0.1 -0.1)">
      <use xlink:href="#DejaVuSans-31"/>
      <use xlink:href="#DejaVuSans-32" x="63.623047"/>
      <use xlink:href="#DejaVuSans-30" x="127.246094"/>
      <use xlink:href="#DejaVuSans-6b" x="190.869141"/>
      <use xlink:href="#DejaVuSans-48" x="248.779297"/>
      <use xlink:href="#DejaVuSans-7a" x="323.974609"/>
     </g>
    </g>
    <path d="M 99 158.210938 
L 109 158.210938 
L 119 158.210938 
" style="fill: none; stroke: #000000; stroke-width: 6; stroke-linecap: square"/>
    <path d="M 99 158.210938 
L 109 158.210938 
L 119 158.210938 
" style="fill: none; stroke: #9467bd; stroke-width: 3; stroke-linecap: square"/>
    <path d="M 101 160.210938 
L 111 160.210938 
L 121 160.210938 
" style="fill: none; opacity: 0.3; stroke: #000000; stroke-width: 3; stroke-linecap: square"/>
    <g id="text_18">
     <!-- 200kHz -->
     <g transform="translate(127 161.710938)scale(0.1 -0.1)">
      <use xlink:href="#DejaVuSans-32"/>
      <use xlink:href="#DejaVuSans-30" x="63.623047"/>
      <use xlink:href="#DejaVuSans-30" x="127.246094"/>
      <use xlink:href="#DejaVuSans-6b" x="190.869141"/>
      <use xlink:href="#DejaVuSans-48" x="248.779297"/>
      <use xlink:href="#DejaVuSans-7a" x="323.974609"/>
     </g>
    </g>
    <path d="M 99 172.889063 
L 109 172.889063 
L 119 172.889063 
" style="fill: none; stroke: #000000; stroke-width: 6; stroke-linecap: square"/>
    <path d="M 99 172.889063 
L 109 172.889063 
L 119 172.889063 
" style="fill: none; stroke: #8c564b; stroke-width: 3; stroke-linecap: square"/>
    <path d="M 101 174.889063 
L 111 174.889063 
L 121 174.889063 
" style="fill: none; opacity: 0.3; stroke: #000000; stroke-width: 3; stroke-linecap: square"/>
    <g id="text_19">
     <!-- 333kHz -->
     <g transform="translate(127 176.389063)scale(0.1 -0.1)">
      <use xlink:href="#DejaVuSans-33"/>
      <use xlink:href="#DejaVuSans-33" x="63.623047"/>
      <use xlink:href="#DejaVuSans-33" x="127.246094"/>
      <use xlink:href="#DejaVuSans-6b" x="190.869141"/>
      <use xlink:href="#DejaVuSans-48" x="248.779297"/>
      <use xlink:href="#DejaVuSans-7a" x="323.974609"/>
     </g>
    </g>
   </g>
  </g>
 </g>
 <defs>
  <clipPath id="p2235495319">
   <rect x="90" y="86.4" width="558" height="543.6"/>
  </clipPath>
 </defs>
</svg>
