<svg width="320" height="673" xmlns="http://www.w3.org/2000/svg" xmlns:xlink="http://www.w3.org/1999/xlink" overflow="hidden"><defs><clipPath id="clip0"><rect x="1736" y="-20" width="320" height="673"/></clipPath></defs><g clip-path="url(#clip0)" transform="translate(-1736 20)"><rect x="1738.5" y="237.5" width="315" height="158" stroke="#000000" stroke-width="4.58333" stroke-miterlimit="8"/><text fill="#FFFFFF" font-family="LM Roman 10,LM Roman 10_MSFontService,sans-serif" font-weight="700" font-size="30" transform="matrix(1 0 0 1 1820.53 308)">CRIMAC /<tspan font-size="30" x="-6.57703" y="36">preprocessor</tspan></text><rect x="1741.5" y="-17.5" width="312" height="157" stroke="#000000" stroke-width="4.58333" stroke-miterlimit="8" fill="#4472C4"/><text fill="#FFFFFF" font-family="LM Roman 10,LM Roman 10_MSFontService,sans-serif" font-weight="700" font-size="30" transform="matrix(1 0 0 1 1783.04 53)">Acoustic dataset <tspan font-size="30" x="71.6146" y="36">(.raw)</tspan></text><path d="M1.14569-0.0182021 2.33962 75.1312 0.0482427 75.1676-1.14569 0.0182021ZM14.8694 70.3482 1.55797 98.0631-12.6271 70.785Z" transform="matrix(-1 0 0 1 1896.56 139)"/><rect x="1738.5" y="493.5" width="312" height="157" stroke="#000000" stroke-width="4.58333" stroke-miterlimit="8" fill="#00B050"/><text fill="#FFFFFF" font-family="LM Roman 10,LM Roman 10_MSFontService,sans-serif" font-weight="700" font-size="30" transform="matrix(1 0 0 1 1821.75 564)">Sv dataset  <tspan font-size="30" x="27.798" y="36">(.zarr)</tspan></text><path d="M1.14569-0.0182063 2.3399 75.1312 0.0485194 75.1676-1.14569 0.0182063ZM14.8696 70.3481 1.55833 98.0631-12.6269 70.7851Z" transform="matrix(-1 0 0 1 1895.56 395)"/></g></svg>