<svg width="1717" height="767" xmlns="http://www.w3.org/2000/svg" xmlns:xlink="http://www.w3.org/1999/xlink" overflow="hidden"><defs><clipPath id="clip0"><rect x="1084" y="281" width="1717" height="767"/></clipPath></defs><g clip-path="url(#clip0)" transform="translate(-1084 -281)"><rect x="1405.5" y="400.5" width="130" height="130" stroke="#BFBFBF" stroke-width="4.58333" stroke-miterlimit="8" stroke-dasharray="4.58333 4.58333" fill="#FFFFFF"/><text font-family="LM Roman 10,LM Roman 10_MSFontService,sans-serif" font-weight="700" font-size="55" transform="matrix(1 0 0 1 1440.66 485)">30</text><rect x="1275.5" y="400.5" width="130" height="130" stroke="#BFBFBF" stroke-width="4.58333" stroke-miterlimit="8" stroke-dasharray="4.58333 4.58333" fill="#D694D1"/><text font-family="LM Roman 10,LM Roman 10_MSFontService,sans-serif" font-weight="700" font-size="55" transform="translate(1310.74 485)">30</text><rect x="1145.5" y="400.5" width="130" height="130" stroke="#BFBFBF" stroke-width="4.58333" stroke-miterlimit="8" stroke-dasharray="4.58333 4.58333" fill="#7AF5A7"/><text font-family="LM Roman 10,LM Roman 10_MSFontService,sans-serif" font-weight="700" font-size="55" transform="matrix(1 0 0 1 1180.82 485)">30</text><rect x="1086.5" y="525.5" width="130" height="130" stroke="#BFBFBF" stroke-width="4.58333" stroke-miterlimit="8" stroke-dasharray="4.58333 4.58333" fill="#FFFFFF"/><text font-family="LM Roman 10,LM Roman 10_MSFontService,sans-serif" font-weight="700" font-size="55" transform="matrix(1 0 0 1 1136.48 610)">0</text><rect x="1086.5" y="655.5" width="130" height="130" stroke="#BFBFBF" stroke-width="4.58333" stroke-miterlimit="8" stroke-dasharray="4.58333 4.58333" fill="#FFFFFF"/><text font-family="LM Roman 10,LM Roman 10_MSFontService,sans-serif" font-weight="700" font-size="55" transform="translate(1136.48 740)">0</text><rect x="1346.5" y="397.5" width="130" height="130" stroke="#BFBFBF" stroke-width="4.58333" stroke-miterlimit="8" stroke-dasharray="4.58333 4.58333" fill="#FFFFFF"/><text font-family="LM Roman 10,LM Roman 10_MSFontService,sans-serif" font-weight="700" font-size="55" transform="translate(1396.32 482)">0</text><rect x="1216.5" y="397.5" width="130" height="130" stroke="#BFBFBF" stroke-width="4.58333" stroke-miterlimit="8" stroke-dasharray="4.58333 4.58333" fill="#FFFFFF"/><text font-family="LM Roman 10,LM Roman 10_MSFontService,sans-serif" font-weight="700" font-size="55" transform="matrix(1 0 0 1 1266.4 482)">0</text><rect x="1086.5" y="397.5" width="130" height="130" stroke="#BFBFBF" stroke-width="4.58333" stroke-miterlimit="8" stroke-dasharray="4.58333 4.58333" fill="#FFFFFF"/><text font-family="LM Roman 10,LM Roman 10_MSFontService,sans-serif" font-weight="700" font-size="55" transform="translate(1136.48 482)">0</text><rect x="1475.5" y="397.5" width="130" height="130" stroke="#BFBFBF" stroke-width="4.58333" stroke-miterlimit="8" stroke-dasharray="4.58333 4.58333" fill="#FFFFFF"/><text font-family="LM Roman 10,LM Roman 10_MSFontService,sans-serif" font-weight="700" font-size="55" transform="matrix(1 0 0 1 1525.2 482)">0</text><rect x="1086.5" y="785.5" width="130" height="130" stroke="#BFBFBF" stroke-width="4.58333" stroke-miterlimit="8" stroke-dasharray="4.58333 4.58333" fill="#FFFFFF"/><text font-family="LM Roman 10,LM Roman 10_MSFontService,sans-serif" font-weight="700" font-size="55" transform="translate(1136.48 870)">0</text><rect x="1604.5" y="397.5" width="130" height="130" stroke="#BFBFBF" stroke-width="4.58333" stroke-miterlimit="8" stroke-dasharray="4.58333 4.58333" fill="#FFFFFF"/><text font-family="LM Roman 10,LM Roman 10_MSFontService,sans-serif" font-weight="700" font-size="55" transform="matrix(1 0 0 1 1654.07 482)">0</text><rect x="1604.5" y="527.5" width="130" height="130" stroke="#BFBFBF" stroke-width="4.58333" stroke-miterlimit="8" stroke-dasharray="4.58333 4.58333" fill="#FFFFFF"/><text font-family="LM Roman 10,LM Roman 10_MSFontService,sans-serif" font-weight="700" font-size="55" transform="matrix(1 0 0 1 1654.07 612)">0</text><rect x="1604.5" y="655.5" width="130" height="130" stroke="#BFBFBF" stroke-width="4.58333" stroke-miterlimit="8" stroke-dasharray="4.58333 4.58333" fill="#FFFFFF"/><text font-family="LM Roman 10,LM Roman 10_MSFontService,sans-serif" font-weight="700" font-size="55" transform="translate(1654.07 740)">0</text><rect x="1604.5" y="785.5" width="130" height="130" stroke="#BFBFBF" stroke-width="4.58333" stroke-miterlimit="8" stroke-dasharray="4.58333 4.58333" fill="#FFFFFF"/><text font-family="LM Roman 10,LM Roman 10_MSFontService,sans-serif" font-weight="700" font-size="55" transform="translate(1658.66 870)">-</text><rect x="1604.5" y="785.5" width="130" height="130" stroke="#BFBFBF" stroke-width="4.58333" stroke-miterlimit="8" stroke-dasharray="4.58333 4.58333" fill="#FFFFFF"/><text font-family="LM Roman 10,LM Roman 10_MSFontService,sans-serif" font-weight="700" font-size="55" transform="matrix(1 0 0 1 1654.07 870)">0</text><rect x="1346.5" y="909.5" width="130" height="130" stroke="#BFBFBF" stroke-width="4.58333" stroke-miterlimit="8" stroke-dasharray="4.58333 4.58333" fill="#FFFFFF"/><text font-family="LM Roman 10,LM Roman 10_MSFontService,sans-serif" font-weight="700" font-size="55" transform="translate(1400.9 994)">-</text><rect x="1217.5" y="909.5" width="130" height="130" stroke="#BFBFBF" stroke-width="4.58333" stroke-miterlimit="8" stroke-dasharray="4.58333 4.58333" fill="#FFFFFF"/><text font-family="LM Roman 10,LM Roman 10_MSFontService,sans-serif" font-weight="700" font-size="55" transform="matrix(1 0 0 1 1272.03 994)">-</text><rect x="1475.5" y="909.5" width="130" height="130" stroke="#BFBFBF" stroke-width="4.58333" stroke-miterlimit="8" stroke-dasharray="4.58333 4.58333" fill="#FFFFFF"/><text font-family="LM Roman 10,LM Roman 10_MSFontService,sans-serif" font-weight="700" font-size="55" transform="translate(1529.78 994)">-</text><rect x="1086.5" y="915.5" width="130" height="130" stroke="#BFBFBF" stroke-width="4.58333" stroke-miterlimit="8" stroke-dasharray="4.58333 4.58333" fill="#FFFFFF"/><text font-family="LM Roman 10,LM Roman 10_MSFontService,sans-serif" font-weight="700" font-size="55" transform="matrix(1 0 0 1 1136.48 1000)">0</text><rect x="1216.5" y="915.5" width="130" height="130" stroke="#BFBFBF" stroke-width="4.58333" stroke-miterlimit="8" stroke-dasharray="4.58333 4.58333" fill="#FFFFFF"/><text font-family="LM Roman 10,LM Roman 10_MSFontService,sans-serif" font-weight="700" font-size="55" transform="matrix(1 0 0 1 1266.4 1000)">0</text><rect x="1346.5" y="915.5" width="130" height="130" stroke="#BFBFBF" stroke-width="4.58333" stroke-miterlimit="8" stroke-dasharray="4.58333 4.58333" fill="#FFFFFF"/><text font-family="LM Roman 10,LM Roman 10_MSFontService,sans-serif" font-weight="700" font-size="55" transform="translate(1396.32 1000)">0</text><rect x="1475.5" y="915.5" width="130" height="130" stroke="#BFBFBF" stroke-width="4.58333" stroke-miterlimit="8" stroke-dasharray="4.58333 4.58333" fill="#FFFFFF"/><text font-family="LM Roman 10,LM Roman 10_MSFontService,sans-serif" font-weight="700" font-size="55" transform="translate(1525.2 1000)">0</text><rect x="1604.5" y="915.5" width="130" height="130" stroke="#BFBFBF" stroke-width="4.58333" stroke-miterlimit="8" stroke-dasharray="4.58333 4.58333" fill="#FFFFFF"/><text font-family="LM Roman 10,LM Roman 10_MSFontService,sans-serif" font-weight="700" font-size="55" transform="matrix(1 0 0 1 1654.07 1000)">0</text><rect x="1875.5" y="525.5" width="130" height="130" stroke="#000000" stroke-width="9.16667" stroke-miterlimit="8" fill="#FFFFFF"/><text font-family="LM Roman 10,LM Roman 10_MSFontService,sans-serif" font-weight="700" font-size="46" transform="translate(1928.13 606)">0</text><rect x="2005.5" y="525.5" width="130" height="130" stroke="#000000" stroke-width="9.16667" stroke-miterlimit="8" fill="#FFFFFF"/><text font-family="LM Roman 10,LM Roman 10_MSFontService,sans-serif" font-weight="700" font-size="46" transform="matrix(1 0 0 1 2058.05 606)">1</text><rect x="1875.5" y="655.5" width="130" height="130" stroke="#000000" stroke-width="9.16667" stroke-miterlimit="8" fill="#FFFFFF"/><text font-family="LM Roman 10,LM Roman 10_MSFontService,sans-serif" font-weight="700" font-size="46" transform="translate(1928.13 736)">0</text><rect x="2005.5" y="655.5" width="130" height="130" stroke="#000000" stroke-width="9.16667" stroke-miterlimit="8" fill="#FFFFFF"/><text font-family="LM Roman 10,LM Roman 10_MSFontService,sans-serif" font-weight="700" font-size="46" transform="matrix(1 0 0 1 2058.05 736)">1</text><rect x="2135.5" y="525.5" width="130" height="130" stroke="#000000" stroke-width="9.16667" stroke-miterlimit="8" fill="#FFFFFF"/><text font-family="LM Roman 10,LM Roman 10_MSFontService,sans-serif" font-weight="700" font-size="46" transform="matrix(1 0 0 1 2187.97 606)">0</text><rect x="2135.5" y="655.5" width="130" height="130" stroke="#000000" stroke-width="9.16667" stroke-miterlimit="8" fill="#FFFFFF"/><text font-family="LM Roman 10,LM Roman 10_MSFontService,sans-serif" font-weight="700" font-size="46" transform="translate(2187.97 736)">0</text><rect x="2135.5" y="785.5" width="130" height="130" stroke="#000000" stroke-width="9.16667" stroke-miterlimit="8" fill="#FFFFFF"/><text font-family="LM Roman 10,LM Roman 10_MSFontService,sans-serif" font-weight="700" font-size="46" transform="translate(2187.97 866)">0</text><rect x="1875.5" y="785.5" width="130" height="130" stroke="#000000" stroke-width="9.16667" stroke-miterlimit="8" fill="#FFFFFF"/><text font-family="LM Roman 10,LM Roman 10_MSFontService,sans-serif" font-weight="700" font-size="46" transform="matrix(1 0 0 1 1928.13 866)">0</text><rect x="2005.5" y="785.5" width="130" height="130" stroke="#000000" stroke-width="9.16667" stroke-miterlimit="8" fill="#FFFFFF"/><text font-family="LM Roman 10,LM Roman 10_MSFontService,sans-serif" font-weight="700" font-size="46" transform="translate(2058.05 866)">1</text><path d="M1805.5 738.5 1805.5 727.5 1783.5 727.5 1783.5 705.5 1805.5 705.5 1805.5 694.5 1827.5 716.5Z" stroke="#2F528F" stroke-width="9.16667" stroke-miterlimit="8" fill="#4472C4" fill-rule="evenodd"/><text font-family="LM Roman 10,LM Roman 10_MSFontService,sans-serif" font-weight="400" font-size="64" transform="matrix(1 0 0 1 1340.32 361)">Input</text><text font-family="LM Roman 10,LM Roman 10_MSFontService,sans-serif" font-weight="400" font-size="64" transform="translate(2001.84 361)">Kernel</text><text font-family="LM Roman 10,LM Roman 10_MSFontService,sans-serif" font-weight="400" font-size="64" transform="matrix(1 0 0 1 2503.53 364)">Output</text><rect x="2467.5" y="655.5" width="129" height="130" stroke="#000000" stroke-width="9.16667" stroke-miterlimit="8" fill="#FFFFFF"/><text font-family="LM Roman 10,LM Roman 10_MSFontService,sans-serif" font-weight="700" font-size="55" transform="matrix(1 0 0 1 2502.25 740)">30</text><rect x="2467.5" y="785.5" width="129" height="130" stroke="#000000" stroke-width="9.16667" stroke-miterlimit="8" fill="#FFFFFF"/><text font-family="LM Roman 10,LM Roman 10_MSFontService,sans-serif" font-weight="700" font-size="55" transform="translate(2516.86 870)">0</text><rect x="2596.5" y="527.5" width="130" height="130" stroke="#000000" stroke-width="9.16667" stroke-miterlimit="8" fill="#FFFFFF"/><text font-family="LM Roman 10,LM Roman 10_MSFontService,sans-serif" font-weight="700" font-size="55" transform="translate(2632.17 612)">30</text><rect x="2596.5" y="657.5" width="130" height="130" stroke="#000000" stroke-width="9.16667" stroke-miterlimit="8" fill="#FFFFFF"/><text font-family="LM Roman 10,LM Roman 10_MSFontService,sans-serif" font-weight="700" font-size="55" transform="matrix(1 0 0 1 2632.17 742)">30</text><rect x="2596.5" y="785.5" width="130" height="130" stroke="#000000" stroke-width="9.16667" stroke-miterlimit="8" fill="#EBA473"/><text font-family="LM Roman 10,LM Roman 10_MSFontService,sans-serif" font-weight="700" font-size="55" transform="translate(2646.78 870)">0</text><rect x="2467.5" y="527.5" width="129" height="130" stroke="#000000" stroke-width="9.16667" stroke-miterlimit="8" fill="#D694D1"/><text font-family="LM Roman 10,LM Roman 10_MSFontService,sans-serif" font-weight="700" font-size="55" transform="matrix(1 0 0 1 2502.25 612)">30</text><rect x="2408.5" y="652.5" width="129" height="130" stroke="#000000" stroke-width="9.16667" stroke-miterlimit="8" fill="#FFFFFF"/><text font-family="LM Roman 10,LM Roman 10_MSFontService,sans-serif" font-weight="700" font-size="55" transform="translate(2457.91 737)">3</text><rect x="2408.5" y="782.5" width="129" height="130" stroke="#000000" stroke-width="9.16667" stroke-miterlimit="8" fill="#FFFFFF"/><text font-family="LM Roman 10,LM Roman 10_MSFontService,sans-serif" font-weight="700" font-size="55" transform="matrix(1 0 0 1 2457.91 867)">2</text><rect x="2537.5" y="525.5" width="130" height="129" stroke="#000000" stroke-width="9.16667" stroke-miterlimit="8" fill="#FFFFFF"/><text font-family="LM Roman 10,LM Roman 10_MSFontService,sans-serif" font-weight="700" font-size="55" transform="matrix(1 0 0 1 2587.83 610)">2</text><rect x="2537.5" y="654.5" width="130" height="130" stroke="#000000" stroke-width="9.16667" stroke-miterlimit="8" fill="#FFFFFF"/><text font-family="LM Roman 10,LM Roman 10_MSFontService,sans-serif" font-weight="700" font-size="55" transform="translate(2587.83 739)">3</text><rect x="2537.5" y="782.5" width="130" height="130" stroke="#000000" stroke-width="9.16667" stroke-miterlimit="8" fill="#FFFFFF"/><text font-family="LM Roman 10,LM Roman 10_MSFontService,sans-serif" font-weight="700" font-size="55" transform="translate(2587.83 867)">2</text><rect x="2408.5" y="525.5" width="129" height="129" stroke="#000000" stroke-width="9.16667" stroke-miterlimit="8" fill="#FFFFFF"/><text font-family="LM Roman 10,LM Roman 10_MSFontService,sans-serif" font-weight="700" font-size="55" transform="matrix(1 0 0 1 2457.91 610)">2</text><rect x="2666.5" y="525.5" width="130" height="129" stroke="#000000" stroke-width="9.16667" stroke-miterlimit="8" fill="#FFFFFF"/><text font-family="LM Roman 10,LM Roman 10_MSFontService,sans-serif" font-weight="700" font-size="55" transform="translate(2716.71 610)">2</text><rect x="2666.5" y="654.5" width="130" height="130" stroke="#000000" stroke-width="9.16667" stroke-miterlimit="8" fill="#FFFFFF"/><text font-family="LM Roman 10,LM Roman 10_MSFontService,sans-serif" font-weight="700" font-size="55" transform="matrix(1 0 0 1 2716.71 739)">3</text><rect x="2666.5" y="782.5" width="130" height="130" stroke="#000000" stroke-width="9.16667" stroke-miterlimit="8" fill="#FFFFFF"/><text font-family="LM Roman 10,LM Roman 10_MSFontService,sans-serif" font-weight="700" font-size="55" transform="translate(2716.71 867)">2</text><rect x="1275.5" y="528.5" width="130" height="130" stroke="#000000" stroke-width="9.16667" stroke-miterlimit="8" fill="#FFFFFF"/><text font-family="LM Roman 10,LM Roman 10_MSFontService,sans-serif" font-weight="700" font-size="55" transform="matrix(1 0 0 1 1310.74 613)">30</text><rect x="1275.5" y="658.5" width="130" height="130" stroke="#000000" stroke-width="9.16667" stroke-miterlimit="8" fill="#FFFFFF"/><text font-family="LM Roman 10,LM Roman 10_MSFontService,sans-serif" font-weight="700" font-size="55" transform="matrix(1 0 0 1 1325.35 743)">0</text><rect x="1405.5" y="530.5" width="130" height="130" stroke="#000000" stroke-width="9.16667" stroke-miterlimit="8" fill="#FFFFFF"/><text font-family="LM Roman 10,LM Roman 10_MSFontService,sans-serif" font-weight="700" font-size="55" transform="translate(1440.66 615)">30</text><rect x="1405.5" y="658.5" width="130" height="130" stroke="#000000" stroke-width="9.16667" stroke-miterlimit="8" fill="#FFFFFF"/><text font-family="LM Roman 10,LM Roman 10_MSFontService,sans-serif" font-weight="700" font-size="55" transform="translate(1455.27 743)">0</text><rect x="1216.5" y="527.5" width="130" height="128" stroke="#000000" stroke-width="9.16667" stroke-miterlimit="8" fill="#FFFFFF"/><text font-family="LM Roman 10,LM Roman 10_MSFontService,sans-serif" font-weight="700" font-size="55" transform="matrix(1 0 0 1 1266.4 611)">1</text><rect x="1216.5" y="655.5" width="130" height="130" stroke="#000000" stroke-width="9.16667" stroke-miterlimit="8" fill="#FFFFFF"/><text font-family="LM Roman 10,LM Roman 10_MSFontService,sans-serif" font-weight="700" font-size="55" transform="translate(1266.4 740)">1</text><rect x="1346.5" y="527.5" width="130" height="130" stroke="#000000" stroke-width="9.16667" stroke-miterlimit="8" fill="#FFFFFF"/><text font-family="LM Roman 10,LM Roman 10_MSFontService,sans-serif" font-weight="700" font-size="55" transform="matrix(1 0 0 1 1396.32 612)">1</text><rect x="1346.5" y="655.5" width="130" height="130" stroke="#000000" stroke-width="9.16667" stroke-miterlimit="8" fill="#FFFFFF"/><text font-family="LM Roman 10,LM Roman 10_MSFontService,sans-serif" font-weight="700" font-size="55" transform="translate(1396.32 740)">1</text><rect x="1346.5" y="785.5" width="130" height="130" stroke="#000000" stroke-width="9.16667" stroke-miterlimit="8" fill="#FFFFFF"/><text font-family="LM Roman 10,LM Roman 10_MSFontService,sans-serif" font-weight="700" font-size="55" transform="matrix(1 0 0 1 1400.9 870)">-</text><rect x="1217.5" y="785.5" width="130" height="130" stroke="#000000" stroke-width="9.16667" stroke-miterlimit="8" fill="#FFFFFF"/><text font-family="LM Roman 10,LM Roman 10_MSFontService,sans-serif" font-weight="700" font-size="55" transform="matrix(1 0 0 1 1272.03 870)">-</text><rect x="1475.5" y="527.5" width="130" height="130" stroke="#000000" stroke-width="9.16667" stroke-miterlimit="8" fill="#FFFFFF"/><text font-family="LM Roman 10,LM Roman 10_MSFontService,sans-serif" font-weight="700" font-size="55" transform="translate(1525.2 612)">1</text><rect x="1475.5" y="655.5" width="130" height="130" stroke="#000000" stroke-width="9.16667" stroke-miterlimit="8" fill="#FFFFFF"/><text font-family="LM Roman 10,LM Roman 10_MSFontService,sans-serif" font-weight="700" font-size="55" transform="translate(1525.2 740)">1</text><rect x="1475.5" y="785.5" width="130" height="130" stroke="#000000" stroke-width="9.16667" stroke-miterlimit="8" fill="#FFFFFF"/><text font-family="LM Roman 10,LM Roman 10_MSFontService,sans-serif" font-weight="700" font-size="55" transform="matrix(1 0 0 1 1529.78 870)">-</text><rect x="1216.5" y="785.5" width="130" height="130" stroke="#000000" stroke-width="9.16667" stroke-miterlimit="8" fill="#FFFFFF"/><text font-family="LM Roman 10,LM Roman 10_MSFontService,sans-serif" font-weight="700" font-size="55" transform="translate(1266.4 870)">1</text><rect x="1346.5" y="785.5" width="130" height="130" stroke="#000000" stroke-width="9.16667" stroke-miterlimit="8" fill="#FFFFFF"/><text font-family="LM Roman 10,LM Roman 10_MSFontService,sans-serif" font-weight="700" font-size="55" transform="matrix(1 0 0 1 1396.32 870)">1</text><rect x="1475.5" y="785.5" width="130" height="130" stroke="#000000" stroke-width="9.16667" stroke-miterlimit="8" fill="#FFFFFF"/><text font-family="LM Roman 10,LM Roman 10_MSFontService,sans-serif" font-weight="700" font-size="55" transform="translate(1525.2 870)">1</text><path d="M2335 732.5 2335 721.75 2312.5 721.75 2312.5 700.25 2335 700.25 2335 689.5 2356.5 711Z" stroke="#2F528F" stroke-width="9.16667" stroke-miterlimit="8" fill="#4472C4" fill-rule="evenodd"/></g></svg>