<svg width="2455" height="1820" xmlns="http://www.w3.org/2000/svg" xmlns:xlink="http://www.w3.org/1999/xlink" xml:space="preserve" overflow="hidden"><defs><clipPath id="clip0"><rect x="572" y="137" width="2455" height="1820"/></clipPath></defs><g clip-path="url(#clip0)" transform="translate(-572 -137)"><rect x="1242.5" y="913.5" width="260" height="260" stroke="#000000" stroke-width="4.58333" stroke-miterlimit="8" fill="#7AF5A7"/><text font-family="LM Roman 10,LM Roman 10_MSFontService,sans-serif" font-weight="700" font-size="55" transform="matrix(1 0 0 1 1357.36 1063)">1</text><rect x="619.5" y="1093.5" width="39.0002" height="40.9999" stroke="#000000" stroke-width="4.58333" stroke-miterlimit="8" fill="#7AF5A7"/><rect x="617.5" y="955.5" width="45.0001" height="48.9998" stroke="#FFFFFF" stroke-width="4.58333" stroke-miterlimit="8" fill="#7AF5A7"/><rect x="574.5" y="915.5" width="130" height="130" stroke="#000000" stroke-width="4.58333" stroke-miterlimit="8" fill="#7AF5A7"/><text font-family="LM Roman 10,LM Roman 10_MSFontService,sans-serif" font-weight="700" font-size="55" transform="translate(624.591 1000)">4</text><rect x="574.5" y="1045.5" width="130" height="129" stroke="#000000" stroke-width="4.58333" stroke-miterlimit="8" fill="#FFFFFF"/><text font-family="LM Roman 10,LM Roman 10_MSFontService,sans-serif" font-weight="700" font-size="55" transform="matrix(1 0 0 1 624.591 1129)">5</text><rect x="704.5" y="915.5" width="130" height="130" stroke="#000000" stroke-width="4.58333" stroke-miterlimit="8" fill="#FFFFFF"/><text font-family="LM Roman 10,LM Roman 10_MSFontService,sans-serif" font-weight="700" font-size="55" transform="matrix(1 0 0 1 754.512 1000)">1</text><rect x="704.5" y="1045.5" width="130" height="129" stroke="#000000" stroke-width="4.58333" stroke-miterlimit="8" fill="#FFFFFF"/><text font-family="LM Roman 10,LM Roman 10_MSFontService,sans-serif" font-weight="700" font-size="55" transform="matrix(1 0 0 1 754.512 1129)">1</text><rect x="1242.5" y="913.5" width="130" height="130" stroke="#000000" stroke-width="4.58333" stroke-miterlimit="8" fill="#FFFFFF"/><text font-family="LM Roman 10,LM Roman 10_MSFontService,sans-serif" font-weight="700" font-size="55" transform="matrix(1 0 0 1 1292.4 998)">1</text><rect x="1372.5" y="913.5" width="130" height="130" stroke="#000000" stroke-width="4.58333" stroke-miterlimit="8" fill="#FFFFFF"/><text font-family="LM Roman 10,LM Roman 10_MSFontService,sans-serif" font-weight="700" font-size="55" transform="matrix(1 0 0 1 1422.32 998)">0</text><rect x="1372.5" y="1043.5" width="130" height="130" stroke="#000000" stroke-width="4.58333" stroke-miterlimit="8" fill="#FFFFFF"/><text font-family="LM Roman 10,LM Roman 10_MSFontService,sans-serif" font-weight="700" font-size="55" transform="matrix(1 0 0 1 1422.32 1128)">1</text><rect x="1242.5" y="1043.5" width="130" height="130" stroke="#000000" stroke-width="4.58333" stroke-miterlimit="8" fill="#FFFFFF"/><text font-family="LM Roman 10,LM Roman 10_MSFontService,sans-serif" font-weight="700" font-size="55" transform="matrix(1 0 0 1 1292.4 1128)">0</text><rect x="1918.5" y="318.5" width="39.0002" height="39.9999" stroke="#000000" stroke-width="4.58333" stroke-miterlimit="8" fill="#7AF5A7"/><rect x="1916.5" y="180.5" width="45" height="48.0001" stroke="#FFFFFF" stroke-width="4.58333" stroke-miterlimit="8" fill="#7AF5A7"/><rect x="1915.5" y="440.5" width="45" height="48.0001" stroke="#FFFFFF" stroke-width="4.58333" stroke-miterlimit="8" fill="#FFFFFF"/><rect x="2175.5" y="440.5" width="45" height="48.0001" stroke="#FFFFFF" stroke-width="4.58333" stroke-miterlimit="8" fill="#FFFFFF"/><rect x="2175.5" y="310.5" width="45" height="48.0001" stroke="#FFFFFF" stroke-width="4.58333" stroke-miterlimit="8" fill="#FFFFFF"/><rect x="1873.5" y="139.5" width="130" height="130" stroke="#000000" stroke-width="4.58333" stroke-miterlimit="8" fill="#7AF5A7"/><text font-family="LM Roman 10,LM Roman 10_MSFontService,sans-serif" font-weight="700" font-size="55" transform="translate(1923.69 224)">4</text><rect x="1873.5" y="269.5" width="130" height="130" stroke="#000000" stroke-width="4.58333" stroke-miterlimit="8" fill="#7AF5A7"/><text font-family="LM Roman 10,LM Roman 10_MSFontService,sans-serif" font-weight="700" font-size="55" transform="matrix(1 0 0 1 1923.69 354)">0</text><rect x="2003.5" y="139.5" width="130" height="130" stroke="#000000" stroke-width="4.58333" stroke-miterlimit="8" fill="#7AF5A7"/><text font-family="LM Roman 10,LM Roman 10_MSFontService,sans-serif" font-weight="700" font-size="55" transform="matrix(1 0 0 1 2053.61 224)">0</text><rect x="2133.5" y="139.5" width="130" height="130" stroke="#000000" stroke-width="4.58333" stroke-miterlimit="8" fill="#FFFFFF"/><rect x="2133.5" y="269.5" width="130" height="130" stroke="#000000" stroke-width="4.58333" stroke-miterlimit="8" fill="#FFFFFF"/><rect x="2003.5" y="399.5" width="130" height="130" stroke="#000000" stroke-width="4.58333" stroke-miterlimit="8" fill="#FFFFFF"/><rect x="2133.5" y="399.5" width="130" height="130" stroke="#000000" stroke-width="4.58333" stroke-miterlimit="8" fill="#FFFFFF"/><rect x="1873.5" y="399.5" width="130" height="130" stroke="#000000" stroke-width="4.58333" stroke-miterlimit="8" fill="#FFFFFF"/><rect x="2679.5" y="1028.5" width="38.9998" height="40.9999" stroke="#000000" stroke-width="4.58333" stroke-miterlimit="8" fill="#FFFFFF"/><rect x="2678.5" y="891.5" width="45" height="48.0001" stroke="#FFFFFF" stroke-width="4.58333" stroke-miterlimit="8" fill="#FFFFFF"/><rect x="2676.5" y="1150.5" width="45" height="48.9998" stroke="#FFFFFF" stroke-width="4.58333" stroke-miterlimit="8" fill="#FFFFFF"/><rect x="2936.5" y="1150.5" width="44.9998" height="48.9998" stroke="#FFFFFF" stroke-width="4.58333" stroke-miterlimit="8" fill="#FFFFFF"/><rect x="2936.5" y="1020.5" width="44.9998" height="48.9998" stroke="#FFFFFF" stroke-width="4.58333" stroke-miterlimit="8" fill="#FFFFFF"/><rect x="2635.5" y="850.5" width="129" height="130" stroke="#000000" stroke-width="4.58333" stroke-miterlimit="8" fill="#FFFFFF"/><text font-family="LM Roman 10,LM Roman 10_MSFontService,sans-serif" font-weight="700" font-size="55" transform="matrix(1 0 0 1 2684.9 935)">4</text><rect x="2635.5" y="980.5" width="129" height="129" stroke="#000000" stroke-width="4.58333" stroke-miterlimit="8" fill="#FFFFFF"/><text font-family="LM Roman 10,LM Roman 10_MSFontService,sans-serif" font-weight="700" font-size="55" transform="matrix(1 0 0 1 2684.9 1065)">5</text><rect x="2764.5" y="850.5" width="130" height="130" stroke="#000000" stroke-width="4.58333" stroke-miterlimit="8" fill="#FFFFFF"/><text font-family="LM Roman 10,LM Roman 10_MSFontService,sans-serif" font-weight="700" font-size="55" transform="matrix(1 0 0 1 2814.82 935)">0</text><rect x="2894.5" y="850.5" width="130" height="130" stroke="#000000" stroke-width="4.58333" stroke-miterlimit="8" fill="#FFFFFF"/><text font-family="LM Roman 10,LM Roman 10_MSFontService,sans-serif" font-weight="700" font-size="55" transform="matrix(1 0 0 1 2944.74 935)">0</text><rect x="2894.5" y="980.5" width="130" height="129" stroke="#000000" stroke-width="4.58333" stroke-miterlimit="8" fill="#FFFFFF"/><text font-family="LM Roman 10,LM Roman 10_MSFontService,sans-serif" font-weight="700" font-size="55" transform="matrix(1 0 0 1 2944.74 1065)">1</text><rect x="2764.5" y="1109.5" width="130" height="130" stroke="#000000" stroke-width="4.58333" stroke-miterlimit="8" fill="#FFFFFF"/><text font-family="LM Roman 10,LM Roman 10_MSFontService,sans-serif" font-weight="700" font-size="55" transform="translate(2814.82 1194)">1</text><rect x="2894.5" y="1109.5" width="130" height="130" stroke="#000000" stroke-width="4.58333" stroke-miterlimit="8" fill="#FFFFFF"/><text font-family="LM Roman 10,LM Roman 10_MSFontService,sans-serif" font-weight="700" font-size="55" transform="matrix(1 0 0 1 2944.74 1194)">1</text><rect x="2635.5" y="1109.5" width="129" height="130" stroke="#000000" stroke-width="4.58333" stroke-miterlimit="8" fill="#FFFFFF"/><text font-family="LM Roman 10,LM Roman 10_MSFontService,sans-serif" font-weight="700" font-size="55" transform="matrix(1 0 0 1 2684.9 1194)">0</text><rect x="1918.5" y="793.5" width="39.0002" height="41.0002" stroke="#000000" stroke-width="4.58333" stroke-miterlimit="8" fill="#FFFFFF"/><rect x="1916.5" y="655.5" width="45" height="48.0001" stroke="#FFFFFF" stroke-width="4.58333" stroke-miterlimit="8" fill="#FFFFFF"/><rect x="1915.5" y="915.5" width="45" height="48.0001" stroke="#FFFFFF" stroke-width="4.58333" stroke-miterlimit="8" fill="#FFFFFF"/><rect x="2175.5" y="915.5" width="45" height="48.0001" stroke="#FFFFFF" stroke-width="4.58333" stroke-miterlimit="8" fill="#FFFFFF"/><rect x="2175.5" y="785.5" width="45" height="48.0001" stroke="#FFFFFF" stroke-width="4.58333" stroke-miterlimit="8" fill="#FFFFFF"/><rect x="1873.5" y="614.5" width="130" height="130" stroke="#000000" stroke-width="4.58333" stroke-miterlimit="8" fill="#FFFFFF"/><rect x="1873.5" y="744.5" width="130" height="130" stroke="#000000" stroke-width="4.58333" stroke-miterlimit="8" fill="#FFFFFF"/><rect x="2003.5" y="614.5" width="130" height="130" stroke="#000000" stroke-width="4.58333" stroke-miterlimit="8" fill="#FFFFFF"/><text font-family="LM Roman 10,LM Roman 10_MSFontService,sans-serif" font-weight="700" font-size="55" transform="matrix(1 0 0 1 2053.61 699)">1</text><rect x="2133.5" y="614.5" width="130" height="130" stroke="#000000" stroke-width="4.58333" stroke-miterlimit="8" fill="#FFFFFF"/><text font-family="LM Roman 10,LM Roman 10_MSFontService,sans-serif" font-weight="700" font-size="55" transform="matrix(1 0 0 1 2183.53 699)">0</text><rect x="2133.5" y="744.5" width="130" height="130" stroke="#000000" stroke-width="4.58333" stroke-miterlimit="8" fill="#FFFFFF"/><text font-family="LM Roman 10,LM Roman 10_MSFontService,sans-serif" font-weight="700" font-size="55" transform="matrix(1 0 0 1 2183.53 829)">1</text><rect x="2003.5" y="874.5" width="130" height="130" stroke="#000000" stroke-width="4.58333" stroke-miterlimit="8" fill="#FFFFFF"/><rect x="2133.5" y="874.5" width="130" height="130" stroke="#000000" stroke-width="4.58333" stroke-miterlimit="8" fill="#FFFFFF"/><rect x="1873.5" y="874.5" width="130" height="130" stroke="#000000" stroke-width="4.58333" stroke-miterlimit="8" fill="#FFFFFF"/><rect x="1918.5" y="1267.5" width="39.0002" height="41.0002" stroke="#000000" stroke-width="4.58333" stroke-miterlimit="8" fill="#FFFFFF"/><rect x="1916.5" y="1130.5" width="45" height="47.9998" stroke="#FFFFFF" stroke-width="4.58333" stroke-miterlimit="8" fill="#FFFFFF"/><rect x="1915.5" y="1389.5" width="45" height="49.0001" stroke="#FFFFFF" stroke-width="4.58333" stroke-miterlimit="8" fill="#FFFFFF"/><rect x="2175.5" y="1389.5" width="45" height="49.0001" stroke="#FFFFFF" stroke-width="4.58333" stroke-miterlimit="8" fill="#FFFFFF"/><rect x="2175.5" y="1260.5" width="45" height="48.0001" stroke="#FFFFFF" stroke-width="4.58333" stroke-miterlimit="8" fill="#FFFFFF"/><rect x="1873.5" y="1089.5" width="130" height="130" stroke="#000000" stroke-width="4.58333" stroke-miterlimit="8" fill="#FFFFFF"/><rect x="1873.5" y="1219.5" width="130" height="130" stroke="#000000" stroke-width="4.58333" stroke-miterlimit="8" fill="#FFFFFF"/><text font-family="LM Roman 10,LM Roman 10_MSFontService,sans-serif" font-weight="700" font-size="55" transform="matrix(1 0 0 1 1923.69 1304)">5</text><rect x="2003.5" y="1089.5" width="130" height="130" stroke="#000000" stroke-width="4.58333" stroke-miterlimit="8" fill="#FFFFFF"/><rect x="2133.5" y="1089.5" width="130" height="130" stroke="#000000" stroke-width="4.58333" stroke-miterlimit="8" fill="#FFFFFF"/><rect x="2133.5" y="1219.5" width="130" height="130" stroke="#000000" stroke-width="4.58333" stroke-miterlimit="8" fill="#FFFFFF"/><rect x="2003.5" y="1349.5" width="130" height="130" stroke="#000000" stroke-width="4.58333" stroke-miterlimit="8" fill="#FFFFFF"/><text font-family="LM Roman 10,LM Roman 10_MSFontService,sans-serif" font-weight="700" font-size="55" transform="matrix(1 0 0 1 2053.61 1434)">5</text><rect x="2133.5" y="1349.5" width="130" height="130" stroke="#000000" stroke-width="4.58333" stroke-miterlimit="8" fill="#FFFFFF"/><rect x="1873.5" y="1349.5" width="130" height="130" stroke="#000000" stroke-width="4.58333" stroke-miterlimit="8" fill="#FFFFFF"/><text font-family="LM Roman 10,LM Roman 10_MSFontService,sans-serif" font-weight="700" font-size="55" transform="translate(1923.69 1434)">0</text><rect x="1918.5" y="1743.5" width="39.0002" height="40.9999" stroke="#000000" stroke-width="4.58333" stroke-miterlimit="8" fill="#FFFFFF"/><rect x="1916.5" y="1605.5" width="45" height="47.9998" stroke="#FFFFFF" stroke-width="4.58333" stroke-miterlimit="8" fill="#FFFFFF"/><rect x="1915.5" y="1865.5" width="45" height="48.0001" stroke="#FFFFFF" stroke-width="4.58333" stroke-miterlimit="8" fill="#FFFFFF"/><rect x="2175.5" y="1865.5" width="45" height="48.0001" stroke="#FFFFFF" stroke-width="4.58333" stroke-miterlimit="8" fill="#FFFFFF"/><rect x="2175.5" y="1735.5" width="45" height="47.9998" stroke="#FFFFFF" stroke-width="4.58333" stroke-miterlimit="8" fill="#FFFFFF"/><rect x="1873.5" y="1564.5" width="130" height="130" stroke="#000000" stroke-width="4.58333" stroke-miterlimit="8" fill="#FFFFFF"/><rect x="1873.5" y="1694.5" width="130" height="130" stroke="#000000" stroke-width="4.58333" stroke-miterlimit="8" fill="#FFFFFF"/><rect x="2003.5" y="1564.5" width="130" height="130" stroke="#000000" stroke-width="4.58333" stroke-miterlimit="8" fill="#FFFFFF"/><rect x="2133.5" y="1564.5" width="130" height="130" stroke="#000000" stroke-width="4.58333" stroke-miterlimit="8" fill="#FFFFFF"/><rect x="2133.5" y="1694.5" width="130" height="130" stroke="#000000" stroke-width="4.58333" stroke-miterlimit="8" fill="#FFFFFF"/><text font-family="LM Roman 10,LM Roman 10_MSFontService,sans-serif" font-weight="700" font-size="55" transform="matrix(1 0 0 1 2183.53 1779)">0</text><rect x="2003.5" y="1824.5" width="130" height="130" stroke="#000000" stroke-width="4.58333" stroke-miterlimit="8" fill="#FFFFFF"/><text font-family="LM Roman 10,LM Roman 10_MSFontService,sans-serif" font-weight="700" font-size="55" transform="matrix(1 0 0 1 2053.61 1909)">0</text><rect x="2133.5" y="1824.5" width="130" height="130" stroke="#000000" stroke-width="4.58333" stroke-miterlimit="8" fill="#FFFFFF"/><text font-family="LM Roman 10,LM Roman 10_MSFontService,sans-serif" font-weight="700" font-size="55" transform="matrix(1 0 0 1 2183.53 1909)">1</text><rect x="1873.5" y="1824.5" width="130" height="130" stroke="#000000" stroke-width="4.58333" stroke-miterlimit="8" fill="#FFFFFF"/><path d="M1.01502-0.53166 361.83 688.32 359.799 689.384-1.01502 0.53166ZM370.868 678.412 371.448 709.152 346.508 691.172Z" fill="#4472C4" transform="matrix(1 0 0 -1 1502 1043.15)"/><path d="M0.610184-0.96985 352.661 220.524 351.44 222.464-0.610184 0.96985ZM355.494 207.415 371.448 233.698 340.849 230.691Z" fill="#4472C4" transform="matrix(1 0 0 -1 1502 1042.7)"/><path d="M1502.62 1042.04 1854.84 1270.31 1853.59 1272.24 1501.38 1043.96ZM1857.85 1257.25 1873.45 1283.74 1842.89 1280.32Z" fill="#4472C4"/><path d="M1503.02 1042.47 1863.91 1738.36 1861.88 1739.42 1500.98 1043.53ZM1872.99 1728.49 1873.45 1759.23 1848.58 1741.15Z" fill="#4472C4"/><text font-family="LM Roman 10,LM Roman 10_MSFontService,sans-serif" font-weight="400" font-size="110" transform="matrix(1 0 0 1 2414.77 1081)">=<tspan font-size="83" x="-367.706" y="469">+</tspan><tspan font-size="83" x="-367.706" y="-9">+</tspan><tspan font-size="83" x="-367.706" y="-484">+</tspan></text><rect x="894.5" y="943.5" width="289" height="200" stroke="#000000" stroke-width="4.58333" stroke-miterlimit="8" fill="#FFFFFF"/><text font-family="LM Roman 10,LM Roman 10_MSFontService,sans-serif" font-weight="700" font-size="41" transform="translate(942.386 1032)">Transpose <tspan font-size="41" x="-14.3229" y="50">convolution</tspan></text><text font-family="LM Roman 10,LM Roman 10_MSFontService,sans-serif" font-weight="400" font-size="64" transform="matrix(1 0 0 1 613.591 753)">Input<tspan font-size="64" x="2105.96" y="0">Output</tspan><tspan font-size="64" x="670.031" y="5">Kernel</tspan></text><rect x="2003.5" y="269.5" width="130" height="130" stroke="#FFFFFF" stroke-width="9.16667" stroke-miterlimit="8" stroke-dasharray="9.16667 9.16667" fill="#7AF5A7"/><text font-family="LM Roman 10,LM Roman 10_MSFontService,sans-serif" font-weight="700" font-size="55" transform="matrix(1 0 0 1 2053.61 354)">4</text><rect x="2764.5" y="980.5" width="130" height="129" stroke="#F2F2F2" stroke-width="9.16667" stroke-miterlimit="8" stroke-dasharray="9.16667 9.16667" fill="none"/><text font-family="LM Roman 10,LM Roman 10_MSFontService,sans-serif" font-weight="700" font-size="55" transform="matrix(1 0 0 1 2814.82 1065)">5</text><rect x="2003.5" y="744.5" width="130" height="130" stroke="#F2F2F2" stroke-width="9.16667" stroke-miterlimit="8" stroke-dasharray="9.16667 9.16667" fill="none"/><text font-family="LM Roman 10,LM Roman 10_MSFontService,sans-serif" font-weight="700" font-size="55" transform="matrix(1 0 0 1 2053.61 829)">0</text><rect x="2003.5" y="1219.5" width="130" height="130" stroke="#F2F2F2" stroke-width="9.16667" stroke-miterlimit="8" stroke-dasharray="9.16667 9.16667" fill="none"/><text font-family="LM Roman 10,LM Roman 10_MSFontService,sans-serif" font-weight="700" font-size="55" transform="matrix(1 0 0 1 2053.61 1304)">0</text><rect x="2003.5" y="1694.5" width="130" height="130" stroke="#F2F2F2" stroke-width="9.16667" stroke-miterlimit="8" stroke-dasharray="9.16667 9.16667" fill="none"/><text font-family="LM Roman 10,LM Roman 10_MSFontService,sans-serif" font-weight="700" font-size="55" transform="translate(2053.61 1779)">1</text></g></svg>